<svg width="436" height="121" viewBox="0 0 436 121" fill="none" xmlns="http://www.w3.org/2000/svg">
<rect width="436" height="121" rx="30" fill="#F4F3F3"/>
<ellipse cx="77.2891" cy="60.1755" rx="39.72" ry="40.1755" fill="#8D8D8D"/>
<g clip-path="url(#clip0_1002_35)">
<path d="M80.2595 60.6611C82.28 60.3004 83.7306 59.682 84.7668 59.0121C83.1089 57.054 80.7257 55.7658 78.0835 55.5081C76.3738 56.3841 74.4569 56.8994 72.4364 56.8994C70.4158 56.8994 68.4989 56.4356 66.7892 55.5081C61.712 56.0749 57.6709 60.4034 57.6709 65.6594V71.7399C57.6709 72.2552 58.0854 72.6674 58.6035 72.6674H76.2702C76.2184 72.2552 76.2184 71.8429 76.2184 71.4307V65.2472C76.2702 62.9799 77.9281 61.0218 80.2595 60.6611Z" fill="white"/>
<path d="M72.4882 53.4469C77.4097 53.4469 81.3993 49.4788 81.3993 44.5839C81.3993 39.689 77.4097 35.7208 72.4882 35.7208C67.5668 35.7208 63.5771 39.689 63.5771 44.5839C63.5771 49.4788 67.5668 53.4469 72.4882 53.4469Z" fill="white"/>
<path d="M99.1698 63.959C94.6624 63.2376 92.1756 61.2279 90.984 59.8366C90.4659 59.2698 89.5333 59.2698 89.0153 59.8366C87.7718 61.2279 85.3368 63.2376 80.8295 63.959C80.156 64.062 79.6897 64.6289 79.6897 65.2987V71.4823C79.6897 78.3357 87.0465 83.1794 89.3779 84.5192C89.7924 84.7769 90.3105 84.7769 90.7249 84.5192C93.0045 83.1794 100.413 78.3357 100.413 71.4823V65.2987C100.361 64.6289 99.8433 64.062 99.1698 63.959ZM95.2323 70.2456L89.9478 75.5016C89.637 75.8107 89.2225 76.0169 88.7562 76.0169C88.2899 76.0169 87.8755 75.8623 87.5646 75.5016L84.8188 72.7705C84.1452 72.1006 84.1452 71.0185 84.8188 70.4002C85.4923 69.7303 86.5802 69.7303 87.202 70.4002L88.7562 71.946L92.8491 67.8752C93.5226 67.2053 94.6106 67.2053 95.2323 67.8752C95.854 68.4936 95.854 69.5757 95.2323 70.2456Z" fill="white"/>
</g>
<path d="M158.392 70L156.824 65.016H149.88L148.34 70H144.588L151.14 50.456H155.732L162.228 70H158.392ZM153.408 53.816H153.268L150.776 61.852H155.928L153.408 53.816ZM170.653 70.336C169.57 70.336 168.609 70.1587 167.769 69.804C166.928 69.4493 166.219 68.936 165.641 68.264C165.081 67.592 164.651 66.7893 164.353 65.856C164.054 64.904 163.905 63.84 163.905 62.664C163.905 61.488 164.054 60.4333 164.353 59.5C164.651 58.5667 165.081 57.7733 165.641 57.12C166.219 56.448 166.928 55.9347 167.769 55.58C168.609 55.2253 169.57 55.048 170.653 55.048C172.127 55.048 173.341 55.3747 174.293 56.028C175.263 56.6813 175.963 57.5867 176.393 58.744L173.453 60.06C173.285 59.444 172.967 58.94 172.501 58.548C172.053 58.1373 171.437 57.932 170.653 57.932C169.645 57.932 168.889 58.2493 168.385 58.884C167.899 59.5187 167.657 60.3493 167.657 61.376V64.036C167.657 65.0627 167.899 65.8933 168.385 66.528C168.889 67.144 169.645 67.452 170.653 67.452C171.511 67.452 172.174 67.2373 172.641 66.808C173.107 66.36 173.471 65.8093 173.733 65.156L176.477 66.472C175.991 67.76 175.254 68.7307 174.265 69.384C173.275 70.0187 172.071 70.336 170.653 70.336ZM189.992 70C189.208 70 188.583 69.776 188.116 69.328C187.668 68.8613 187.388 68.2453 187.276 67.48H187.108C186.865 68.432 186.371 69.1507 185.624 69.636C184.877 70.1027 183.953 70.336 182.852 70.336C181.359 70.336 180.211 69.944 179.408 69.16C178.605 68.376 178.204 67.3307 178.204 66.024C178.204 64.512 178.745 63.392 179.828 62.664C180.911 61.9173 182.451 61.544 184.448 61.544H186.94V60.48C186.94 59.6587 186.725 59.024 186.296 58.576C185.867 58.128 185.176 57.904 184.224 57.904C183.384 57.904 182.703 58.0907 182.18 58.464C181.676 58.8187 181.247 59.248 180.892 59.752L178.764 57.848C179.305 57.008 180.024 56.336 180.92 55.832C181.816 55.3093 183.001 55.048 184.476 55.048C186.455 55.048 187.957 55.496 188.984 56.392C190.011 57.288 190.524 58.576 190.524 60.256V67.144H191.98V70H189.992ZM184.056 67.732C184.859 67.732 185.54 67.5547 186.1 67.2C186.66 66.8453 186.94 66.3227 186.94 65.632V63.7H184.644C182.777 63.7 181.844 64.2973 181.844 65.492V65.968C181.844 66.5653 182.031 67.0133 182.404 67.312C182.796 67.592 183.347 67.732 184.056 67.732ZM203.953 67.564H203.813C203.551 68.404 203.057 69.076 202.329 69.58C201.601 70.084 200.751 70.336 199.781 70.336C197.933 70.336 196.514 69.6733 195.525 68.348C194.554 67.0227 194.069 65.128 194.069 62.664C194.069 60.2187 194.554 58.3427 195.525 57.036C196.514 55.7107 197.933 55.048 199.781 55.048C200.751 55.048 201.601 55.3 202.329 55.804C203.057 56.2893 203.551 56.952 203.813 57.792H203.953V49.28H207.537V70H203.953V67.564ZM200.929 67.368C201.787 67.368 202.506 67.1627 203.085 66.752C203.663 66.3413 203.953 65.7533 203.953 64.988V60.34C203.953 59.6307 203.663 59.0613 203.085 58.632C202.506 58.2027 201.787 57.988 200.929 57.988C199.995 57.988 199.239 58.3053 198.661 58.94C198.101 59.556 197.821 60.3867 197.821 61.432V63.952C197.821 64.9973 198.101 65.828 198.661 66.444C199.239 67.06 199.995 67.368 200.929 67.368ZM217.578 70.336C216.495 70.336 215.524 70.1587 214.666 69.804C213.826 69.4307 213.107 68.9173 212.51 68.264C211.931 67.592 211.483 66.7893 211.166 65.856C210.848 64.904 210.69 63.84 210.69 62.664C210.69 61.5067 210.839 60.4613 211.138 59.528C211.455 58.5947 211.903 57.8013 212.482 57.148C213.06 56.476 213.77 55.9627 214.61 55.608C215.45 55.2347 216.402 55.048 217.466 55.048C218.604 55.048 219.594 55.244 220.434 55.636C221.274 56.028 221.964 56.56 222.506 57.232C223.047 57.904 223.448 58.688 223.71 59.584C223.99 60.4613 224.13 61.404 224.13 62.412V63.588H214.414V63.952C214.414 65.016 214.712 65.8747 215.31 66.528C215.907 67.1627 216.794 67.48 217.97 67.48C218.866 67.48 219.594 67.2933 220.154 66.92C220.732 66.5467 221.246 66.0707 221.694 65.492L223.626 67.648C223.028 68.488 222.207 69.1507 221.162 69.636C220.135 70.1027 218.94 70.336 217.578 70.336ZM217.522 57.736C216.57 57.736 215.814 58.0533 215.254 58.688C214.694 59.3227 214.414 60.144 214.414 61.152V61.376H220.406V61.124C220.406 60.116 220.154 59.304 219.65 58.688C219.164 58.0533 218.455 57.736 217.522 57.736ZM227.283 70V55.384H230.867V57.82H231.007C231.287 57.0547 231.735 56.4013 232.351 55.86C232.967 55.3187 233.826 55.048 234.927 55.048C235.935 55.048 236.803 55.2907 237.531 55.776C238.259 56.2613 238.8 56.9987 239.155 57.988H239.211C239.472 57.1667 239.986 56.476 240.751 55.916C241.535 55.3373 242.515 55.048 243.691 55.048C245.128 55.048 246.23 55.5427 246.995 56.532C247.779 57.5213 248.171 58.9307 248.171 60.76V70H244.587V61.124C244.587 59.0333 243.803 57.988 242.235 57.988C241.88 57.988 241.535 58.044 241.199 58.156C240.882 58.2493 240.592 58.3987 240.331 58.604C240.088 58.7907 239.892 59.0333 239.743 59.332C239.594 59.612 239.519 59.948 239.519 60.34V70H235.935V61.124C235.935 59.0333 235.151 57.988 233.583 57.988C233.247 57.988 232.911 58.044 232.575 58.156C232.258 58.2493 231.968 58.3987 231.707 58.604C231.464 58.7907 231.259 59.0333 231.091 59.332C230.942 59.612 230.867 59.948 230.867 60.34V70H227.283ZM253.93 53.256C253.184 53.256 252.642 53.088 252.306 52.752C251.989 52.416 251.83 51.9867 251.83 51.464V50.904C251.83 50.3813 251.989 49.952 252.306 49.616C252.642 49.28 253.184 49.112 253.93 49.112C254.658 49.112 255.19 49.28 255.526 49.616C255.862 49.952 256.03 50.3813 256.03 50.904V51.464C256.03 51.9867 255.862 52.416 255.526 52.752C255.19 53.088 254.658 53.256 253.93 53.256ZM252.138 55.384H255.722V70H252.138V55.384ZM265.645 70.336C264.562 70.336 263.601 70.1587 262.761 69.804C261.921 69.4493 261.211 68.936 260.633 68.264C260.073 67.592 259.643 66.7893 259.345 65.856C259.046 64.904 258.897 63.84 258.897 62.664C258.897 61.488 259.046 60.4333 259.345 59.5C259.643 58.5667 260.073 57.7733 260.633 57.12C261.211 56.448 261.921 55.9347 262.761 55.58C263.601 55.2253 264.562 55.048 265.645 55.048C267.119 55.048 268.333 55.3747 269.285 56.028C270.255 56.6813 270.955 57.5867 271.385 58.744L268.445 60.06C268.277 59.444 267.959 58.94 267.493 58.548C267.045 58.1373 266.429 57.932 265.645 57.932C264.637 57.932 263.881 58.2493 263.377 58.884C262.891 59.5187 262.649 60.3493 262.649 61.376V64.036C262.649 65.0627 262.891 65.8933 263.377 66.528C263.881 67.144 264.637 67.452 265.645 67.452C266.503 67.452 267.166 67.2373 267.633 66.808C268.099 66.36 268.463 65.8093 268.725 65.156L271.469 66.472C270.983 67.76 270.246 68.7307 269.257 69.384C268.267 70.0187 267.063 70.336 265.645 70.336ZM280.261 70V67.032H282.837V53.424H280.261V50.456H289.137V53.424H286.533V67.032H289.137V70H280.261ZM292.689 70V55.384H296.273V57.82H296.413C296.712 57.036 297.179 56.3827 297.813 55.86C298.467 55.3187 299.363 55.048 300.501 55.048C302.013 55.048 303.171 55.5427 303.973 56.532C304.776 57.5213 305.177 58.9307 305.177 60.76V70H301.593V61.124C301.593 60.0787 301.407 59.2947 301.033 58.772C300.66 58.2493 300.044 57.988 299.185 57.988C298.812 57.988 298.448 58.044 298.093 58.156C297.757 58.2493 297.449 58.3987 297.169 58.604C296.908 58.7907 296.693 59.0333 296.525 59.332C296.357 59.612 296.273 59.948 296.273 60.34V70H292.689ZM313.714 70C312.482 70 311.539 69.6827 310.886 69.048C310.251 68.3947 309.934 67.4707 309.934 66.276V58.24H307.778V55.384H308.898C309.439 55.384 309.803 55.2627 309.99 55.02C310.195 54.7587 310.298 54.376 310.298 53.872V51.38H313.518V55.384H316.514V58.24H313.518V67.144H316.29V70H313.714ZM325.421 70.336C324.339 70.336 323.368 70.1587 322.509 69.804C321.669 69.4307 320.951 68.9173 320.353 68.264C319.775 67.592 319.327 66.7893 319.009 65.856C318.692 64.904 318.533 63.84 318.533 62.664C318.533 61.5067 318.683 60.4613 318.981 59.528C319.299 58.5947 319.747 57.8013 320.325 57.148C320.904 56.476 321.613 55.9627 322.453 55.608C323.293 55.2347 324.245 55.048 325.309 55.048C326.448 55.048 327.437 55.244 328.277 55.636C329.117 56.028 329.808 56.56 330.349 57.232C330.891 57.904 331.292 58.688 331.553 59.584C331.833 60.4613 331.973 61.404 331.973 62.412V63.588H322.257V63.952C322.257 65.016 322.556 65.8747 323.153 66.528C323.751 67.1627 324.637 67.48 325.813 67.48C326.709 67.48 327.437 67.2933 327.997 66.92C328.576 66.5467 329.089 66.0707 329.537 65.492L331.469 67.648C330.872 68.488 330.051 69.1507 329.005 69.636C327.979 70.1027 326.784 70.336 325.421 70.336ZM325.365 57.736C324.413 57.736 323.657 58.0533 323.097 58.688C322.537 59.3227 322.257 60.144 322.257 61.152V61.376H328.249V61.124C328.249 60.116 327.997 59.304 327.493 58.688C327.008 58.0533 326.299 57.736 325.365 57.736ZM348.315 71.232C348.315 71.9973 348.175 72.6693 347.895 73.248C347.633 73.8453 347.195 74.34 346.579 74.732C345.963 75.124 345.169 75.4227 344.199 75.628C343.228 75.8333 342.043 75.936 340.643 75.936C339.411 75.936 338.365 75.852 337.507 75.684C336.648 75.5347 335.939 75.3107 335.379 75.012C334.837 74.732 334.445 74.3773 334.203 73.948C333.96 73.5187 333.839 73.0333 333.839 72.492C333.839 71.6707 334.063 71.0267 334.511 70.56C334.977 70.112 335.621 69.8227 336.443 69.692V69.384C335.845 69.2347 335.379 68.9453 335.043 68.516C334.725 68.068 334.567 67.5453 334.567 66.948C334.567 66.5747 334.641 66.248 334.791 65.968C334.94 65.6693 335.136 65.4173 335.379 65.212C335.64 65.0067 335.929 64.8387 336.247 64.708C336.564 64.5587 336.9 64.4467 337.255 64.372V64.26C336.359 63.8493 335.687 63.28 335.239 62.552C334.809 61.824 334.595 60.9747 334.595 60.004C334.595 58.5107 335.108 57.316 336.135 56.42C337.161 55.5053 338.664 55.048 340.643 55.048C341.091 55.048 341.529 55.076 341.959 55.132C342.407 55.188 342.817 55.2813 343.191 55.412V54.936C343.191 53.5173 343.881 52.808 345.263 52.808H347.531V55.552H344.423V55.944C345.188 56.3733 345.757 56.9333 346.131 57.624C346.504 58.3147 346.691 59.108 346.691 60.004C346.691 61.4787 346.177 62.664 345.151 63.56C344.143 64.456 342.64 64.904 340.643 64.904C339.784 64.904 339.037 64.82 338.403 64.652C338.123 64.7827 337.88 64.96 337.675 65.184C337.469 65.3893 337.367 65.6507 337.367 65.968C337.367 66.696 338.001 67.06 339.271 67.06H343.191C344.983 67.06 346.28 67.4333 347.083 68.18C347.904 68.908 348.315 69.9253 348.315 71.232ZM344.955 71.652C344.955 71.1853 344.768 70.8213 344.395 70.56C344.021 70.2987 343.377 70.168 342.463 70.168H337.479C336.975 70.5413 336.723 71.0453 336.723 71.68C336.723 72.24 336.956 72.6787 337.423 72.996C337.889 73.3133 338.683 73.472 339.803 73.472H341.595C342.771 73.472 343.62 73.3227 344.143 73.024C344.684 72.7253 344.955 72.268 344.955 71.652ZM340.643 62.468C342.397 62.468 343.275 61.7213 343.275 60.228V59.752C343.275 58.2587 342.397 57.512 340.643 57.512C338.888 57.512 338.011 58.2587 338.011 59.752V60.228C338.011 61.7213 338.888 62.468 340.643 62.468ZM350.385 70V55.384H353.969V58.408H354.109C354.202 58.016 354.342 57.6427 354.529 57.288C354.734 56.9147 354.995 56.588 355.312 56.308C355.63 56.028 356.003 55.804 356.433 55.636C356.881 55.468 357.394 55.384 357.973 55.384H358.757V58.772H357.637C356.423 58.772 355.509 58.9493 354.893 59.304C354.277 59.6587 353.969 60.2373 353.969 61.04V70H350.385ZM363.169 53.256C362.422 53.256 361.881 53.088 361.545 52.752C361.227 52.416 361.069 51.9867 361.069 51.464V50.904C361.069 50.3813 361.227 49.952 361.545 49.616C361.881 49.28 362.422 49.112 363.169 49.112C363.897 49.112 364.429 49.28 364.765 49.616C365.101 49.952 365.269 50.3813 365.269 50.904V51.464C365.269 51.9867 365.101 52.416 364.765 52.752C364.429 53.088 363.897 53.256 363.169 53.256ZM361.377 55.384H364.961V70H361.377V55.384ZM373.679 70C372.447 70 371.504 69.6827 370.851 69.048C370.216 68.3947 369.899 67.4707 369.899 66.276V58.24H367.743V55.384H368.863C369.404 55.384 369.768 55.2627 369.955 55.02C370.16 54.7587 370.263 54.376 370.263 53.872V51.38H373.483V55.384H376.479V58.24H373.483V67.144H376.255V70H373.679ZM388.548 55.384H391.908L386.028 72.604C385.841 73.1267 385.626 73.5747 385.384 73.948C385.16 74.34 384.889 74.6573 384.572 74.9C384.254 75.1427 383.872 75.32 383.424 75.432C382.976 75.544 382.453 75.6 381.856 75.6H379.7V72.744H382.332L383.004 70.7L377.768 55.384H381.324L383.872 63.112L384.824 66.808H384.992L386 63.112L388.548 55.384Z" fill="black"/>
<defs>
<clipPath id="clip0_1002_35">
<rect x="53.1118" y="35.7208" width="51.8087" height="51.5294" rx="25.7647" fill="white"/>
</clipPath>
</defs>
</svg>
