<svg width="436" height="121" viewBox="0 0 436 121" fill="none" xmlns="http://www.w3.org/2000/svg">
<rect width="436" height="121" rx="30" fill="#F4F3F3"/>
<ellipse cx="77.2891" cy="60.1755" rx="39.72" ry="40.1755" fill="#004A8D"/>
<path fill-rule="evenodd" clip-rule="evenodd" d="M99.9669 46.9929C99.9669 45.0234 98.3888 43.4266 96.4424 43.4266C88.2419 43.4266 67.9667 43.4266 59.7662 43.4266C57.8197 43.4266 56.2417 45.0234 56.2417 46.9929C56.2417 53.5479 56.2417 67.4388 56.2417 73.9938C56.2417 75.9633 57.8197 77.5601 59.7662 77.5601C67.9667 77.5601 88.2419 77.5601 96.4424 77.5601C98.3888 77.5601 99.9669 75.9633 99.9669 73.9938C99.9669 67.4388 99.9669 53.5479 99.9669 46.9929ZM61.2098 74.8959H94.9988C96.3405 74.8959 97.4295 73.7937 97.4295 72.4364C97.4295 71.0789 96.3405 69.9769 94.9988 69.9769H61.2098C59.8681 69.9769 58.7791 71.0789 58.7791 72.4364C58.7791 73.7937 59.8681 74.8959 61.2098 74.8959ZM87.0949 56.6102L71.1388 64.6802V48.5402L87.0949 56.6102Z" fill="white"/>
<path d="M157.364 51L155.908 46.372H149.46L148.03 51H144.546L150.63 32.852H154.894L160.926 51H157.364ZM152.736 35.972H152.606L150.292 43.434H155.076L152.736 35.972ZM167.839 51.312C166.539 51.312 165.447 51.0953 164.563 50.662C163.679 50.2113 162.899 49.596 162.223 48.816L164.251 46.84C164.753 47.412 165.299 47.8627 165.889 48.192C166.495 48.5213 167.189 48.686 167.969 48.686C168.766 48.686 169.338 48.5473 169.685 48.27C170.049 47.9927 170.231 47.6113 170.231 47.126C170.231 46.7273 170.101 46.4153 169.841 46.19C169.598 45.9473 169.173 45.7827 168.567 45.696L167.215 45.514C165.741 45.3233 164.615 44.9073 163.835 44.266C163.072 43.6073 162.691 42.654 162.691 41.406C162.691 40.7473 162.812 40.158 163.055 39.638C163.297 39.1007 163.644 38.65 164.095 38.286C164.545 37.9047 165.083 37.6187 165.707 37.428C166.348 37.22 167.059 37.116 167.839 37.116C168.497 37.116 169.078 37.168 169.581 37.272C170.101 37.3587 170.569 37.4973 170.985 37.688C171.401 37.8613 171.782 38.0867 172.129 38.364C172.475 38.624 172.813 38.9187 173.143 39.248L171.193 41.198C170.794 40.782 170.317 40.4353 169.763 40.158C169.208 39.8807 168.601 39.742 167.943 39.742C167.215 39.742 166.686 39.872 166.357 40.132C166.045 40.392 165.889 40.73 165.889 41.146C165.889 41.5967 166.019 41.9433 166.279 42.186C166.556 42.4113 167.015 42.576 167.657 42.68L169.035 42.862C171.964 43.278 173.429 44.6127 173.429 46.866C173.429 47.5247 173.29 48.1313 173.013 48.686C172.753 49.2233 172.38 49.6913 171.895 50.09C171.409 50.4713 170.82 50.7747 170.127 51C169.451 51.208 168.688 51.312 167.839 51.312ZM184.383 37.428H187.503L182.043 53.418C181.869 53.9033 181.67 54.3193 181.445 54.666C181.237 55.03 180.985 55.3247 180.691 55.55C180.396 55.7753 180.041 55.94 179.625 56.044C179.209 56.148 178.723 56.2 178.169 56.2H176.167V53.548H178.611L179.235 51.65L174.373 37.428H177.675L180.041 44.604L180.925 48.036H181.081L182.017 44.604L184.383 37.428ZM189.697 51V37.428H193.025V39.69H193.155C193.433 38.962 193.866 38.3553 194.455 37.87C195.062 37.3673 195.894 37.116 196.951 37.116C198.355 37.116 199.43 37.5753 200.175 38.494C200.921 39.4127 201.293 40.7213 201.293 42.42V51H197.965V42.758C197.965 41.7873 197.792 41.0593 197.445 40.574C197.099 40.0887 196.527 39.846 195.729 39.846C195.383 39.846 195.045 39.898 194.715 40.002C194.403 40.0887 194.117 40.2273 193.857 40.418C193.615 40.5913 193.415 40.8167 193.259 41.094C193.103 41.354 193.025 41.666 193.025 42.03V51H189.697ZM210.339 51.312C209.333 51.312 208.441 51.1473 207.661 50.818C206.881 50.4887 206.222 50.012 205.685 49.388C205.165 48.764 204.766 48.0187 204.489 47.152C204.211 46.268 204.073 45.28 204.073 44.188C204.073 43.096 204.211 42.1167 204.489 41.25C204.766 40.3833 205.165 39.6467 205.685 39.04C206.222 38.416 206.881 37.9393 207.661 37.61C208.441 37.2807 209.333 37.116 210.339 37.116C211.708 37.116 212.835 37.4193 213.719 38.026C214.62 38.6327 215.27 39.4733 215.669 40.548L212.939 41.77C212.783 41.198 212.488 40.73 212.055 40.366C211.639 39.9847 211.067 39.794 210.339 39.794C209.403 39.794 208.701 40.0887 208.233 40.678C207.782 41.2673 207.557 42.0387 207.557 42.992V45.462C207.557 46.4153 207.782 47.1867 208.233 47.776C208.701 48.348 209.403 48.634 210.339 48.634C211.136 48.634 211.751 48.4347 212.185 48.036C212.618 47.62 212.956 47.1087 213.199 46.502L215.747 47.724C215.296 48.92 214.611 49.8213 213.693 50.428C212.774 51.0173 211.656 51.312 210.339 51.312ZM218.313 31.76H221.641V39.69H221.771C222.048 38.962 222.481 38.3553 223.071 37.87C223.677 37.3673 224.509 37.116 225.567 37.116C226.971 37.116 228.045 37.5753 228.791 38.494C229.536 39.4127 229.909 40.7213 229.909 42.42V51H226.581V42.758C226.581 41.7873 226.407 41.0593 226.061 40.574C225.714 40.0887 225.142 39.846 224.345 39.846C223.998 39.846 223.66 39.898 223.331 40.002C223.019 40.0887 222.733 40.2273 222.473 40.418C222.23 40.5913 222.031 40.8167 221.875 41.094C221.719 41.354 221.641 41.666 221.641 42.03V51H218.313V31.76ZM233.598 51V37.428H236.926V40.236H237.056C237.142 39.872 237.272 39.5253 237.446 39.196C237.636 38.8493 237.879 38.546 238.174 38.286C238.468 38.026 238.815 37.818 239.214 37.662C239.63 37.506 240.106 37.428 240.644 37.428H241.372V40.574H240.332C239.205 40.574 238.356 40.7387 237.784 41.068C237.212 41.3973 236.926 41.9347 236.926 42.68V51H233.598ZM249.06 51.312C248.089 51.312 247.214 51.1473 246.434 50.818C245.671 50.4887 245.013 50.012 244.458 49.388C243.921 48.764 243.505 48.0187 243.21 47.152C242.915 46.268 242.768 45.28 242.768 44.188C242.768 43.096 242.915 42.1167 243.21 41.25C243.505 40.3833 243.921 39.6467 244.458 39.04C245.013 38.416 245.671 37.9393 246.434 37.61C247.214 37.2807 248.089 37.116 249.06 37.116C250.031 37.116 250.906 37.2807 251.686 37.61C252.466 37.9393 253.125 38.416 253.662 39.04C254.217 39.6467 254.641 40.3833 254.936 41.25C255.231 42.1167 255.378 43.096 255.378 44.188C255.378 45.28 255.231 46.268 254.936 47.152C254.641 48.0187 254.217 48.764 253.662 49.388C253.125 50.012 252.466 50.4887 251.686 50.818C250.906 51.1473 250.031 51.312 249.06 51.312ZM249.06 48.634C249.944 48.634 250.637 48.3653 251.14 47.828C251.643 47.2907 251.894 46.502 251.894 45.462V42.94C251.894 41.9173 251.643 41.1373 251.14 40.6C250.637 40.0627 249.944 39.794 249.06 39.794C248.193 39.794 247.509 40.0627 247.006 40.6C246.503 41.1373 246.252 41.9173 246.252 42.94V45.462C246.252 46.502 246.503 47.2907 247.006 47.828C247.509 48.3653 248.193 48.634 249.06 48.634ZM258.328 51V37.428H261.656V39.69H261.786C262.064 38.962 262.497 38.3553 263.086 37.87C263.693 37.3673 264.525 37.116 265.582 37.116C266.986 37.116 268.061 37.5753 268.806 38.494C269.552 39.4127 269.924 40.7213 269.924 42.42V51H266.596V42.758C266.596 41.7873 266.423 41.0593 266.076 40.574C265.73 40.0887 265.158 39.846 264.36 39.846C264.014 39.846 263.676 39.898 263.346 40.002C263.034 40.0887 262.748 40.2273 262.488 40.418C262.246 40.5913 262.046 40.8167 261.89 41.094C261.734 41.354 261.656 41.666 261.656 42.03V51H258.328ZM278.995 51.312C278.025 51.312 277.149 51.1473 276.369 50.818C275.607 50.4887 274.948 50.012 274.393 49.388C273.856 48.764 273.44 48.0187 273.145 47.152C272.851 46.268 272.703 45.28 272.703 44.188C272.703 43.096 272.851 42.1167 273.145 41.25C273.44 40.3833 273.856 39.6467 274.393 39.04C274.948 38.416 275.607 37.9393 276.369 37.61C277.149 37.2807 278.025 37.116 278.995 37.116C279.966 37.116 280.841 37.2807 281.621 37.61C282.401 37.9393 283.06 38.416 283.597 39.04C284.152 39.6467 284.577 40.3833 284.871 41.25C285.166 42.1167 285.313 43.096 285.313 44.188C285.313 45.28 285.166 46.268 284.871 47.152C284.577 48.0187 284.152 48.764 283.597 49.388C283.06 50.012 282.401 50.4887 281.621 50.818C280.841 51.1473 279.966 51.312 278.995 51.312ZM278.995 48.634C279.879 48.634 280.573 48.3653 281.075 47.828C281.578 47.2907 281.829 46.502 281.829 45.462V42.94C281.829 41.9173 281.578 41.1373 281.075 40.6C280.573 40.0627 279.879 39.794 278.995 39.794C278.129 39.794 277.444 40.0627 276.941 40.6C276.439 41.1373 276.187 41.9173 276.187 42.94V45.462C276.187 46.502 276.439 47.2907 276.941 47.828C277.444 48.3653 278.129 48.634 278.995 48.634ZM296.376 48.738H296.246C296.125 49.0847 295.96 49.414 295.752 49.726C295.561 50.0207 295.31 50.2893 294.998 50.532C294.703 50.7747 294.339 50.9653 293.906 51.104C293.49 51.2427 293.005 51.312 292.45 51.312C291.046 51.312 289.971 50.8527 289.226 49.934C288.481 49.0153 288.108 47.7067 288.108 46.008V37.428H291.436V45.67C291.436 46.606 291.618 47.3253 291.982 47.828C292.346 48.3133 292.927 48.556 293.724 48.556C294.053 48.556 294.374 48.5127 294.686 48.426C295.015 48.3393 295.301 48.2093 295.544 48.036C295.787 47.8453 295.986 47.62 296.142 47.36C296.298 47.0827 296.376 46.762 296.376 46.398V37.428H299.704V51H296.376V48.738ZM307.995 51.312C306.695 51.312 305.603 51.0953 304.719 50.662C303.835 50.2113 303.055 49.596 302.379 48.816L304.407 46.84C304.91 47.412 305.456 47.8627 306.045 48.192C306.652 48.5213 307.345 48.686 308.125 48.686C308.922 48.686 309.494 48.5473 309.841 48.27C310.205 47.9927 310.387 47.6113 310.387 47.126C310.387 46.7273 310.257 46.4153 309.997 46.19C309.754 45.9473 309.33 45.7827 308.723 45.696L307.371 45.514C305.898 45.3233 304.771 44.9073 303.991 44.266C303.228 43.6073 302.847 42.654 302.847 41.406C302.847 40.7473 302.968 40.158 303.211 39.638C303.454 39.1007 303.8 38.65 304.251 38.286C304.702 37.9047 305.239 37.6187 305.863 37.428C306.504 37.22 307.215 37.116 307.995 37.116C308.654 37.116 309.234 37.168 309.737 37.272C310.257 37.3587 310.725 37.4973 311.141 37.688C311.557 37.8613 311.938 38.0867 312.285 38.364C312.632 38.624 312.97 38.9187 313.299 39.248L311.349 41.198C310.95 40.782 310.474 40.4353 309.919 40.158C309.364 39.8807 308.758 39.742 308.099 39.742C307.371 39.742 306.842 39.872 306.513 40.132C306.201 40.392 306.045 40.73 306.045 41.146C306.045 41.5967 306.175 41.9433 306.435 42.186C306.712 42.4113 307.172 42.576 307.813 42.68L309.191 42.862C312.12 43.278 313.585 44.6127 313.585 46.866C313.585 47.5247 313.446 48.1313 313.169 48.686C312.909 49.2233 312.536 49.6913 312.051 50.09C311.566 50.4713 310.976 50.7747 310.283 51C309.607 51.208 308.844 51.312 307.995 51.312ZM322.252 44.734V41.432H329.688V44.734H322.252ZM151.774 85.312C150.214 85.312 148.888 85.0347 147.796 84.48C146.721 83.9253 145.794 83.1973 145.014 82.296L147.328 80.06C147.952 80.788 148.645 81.3427 149.408 81.724C150.188 82.1053 151.046 82.296 151.982 82.296C153.039 82.296 153.837 82.0707 154.374 81.62C154.911 81.152 155.18 80.528 155.18 79.748C155.18 79.1413 155.007 78.6473 154.66 78.266C154.313 77.8847 153.663 77.6073 152.71 77.434L150.994 77.174C147.371 76.602 145.56 74.8427 145.56 71.896C145.56 71.0813 145.707 70.3447 146.002 69.686C146.314 69.0273 146.756 68.464 147.328 67.996C147.9 67.528 148.585 67.1727 149.382 66.93C150.197 66.67 151.115 66.54 152.138 66.54C153.507 66.54 154.703 66.7653 155.726 67.216C156.749 67.6667 157.624 68.334 158.352 69.218L156.012 71.428C155.561 70.8733 155.015 70.4227 154.374 70.076C153.733 69.7293 152.927 69.556 151.956 69.556C150.968 69.556 150.223 69.7467 149.72 70.128C149.235 70.492 148.992 71.012 148.992 71.688C148.992 72.3813 149.191 72.8927 149.59 73.222C149.989 73.5513 150.63 73.794 151.514 73.95L153.204 74.262C155.041 74.5913 156.393 75.1807 157.26 76.03C158.144 76.862 158.586 78.032 158.586 79.54C158.586 80.4067 158.43 81.1953 158.118 81.906C157.823 82.5993 157.381 83.206 156.792 83.726C156.22 84.2287 155.509 84.6187 154.66 84.896C153.828 85.1733 152.866 85.312 151.774 85.312ZM170.139 71.428H173.259L167.799 87.418C167.625 87.9033 167.426 88.3193 167.201 88.666C166.993 89.03 166.741 89.3247 166.447 89.55C166.152 89.7753 165.797 89.94 165.381 90.044C164.965 90.148 164.479 90.2 163.925 90.2H161.923V87.548H164.367L164.991 85.65L160.129 71.428H163.431L165.797 78.604L166.681 82.036H166.837L167.773 78.604L170.139 71.428ZM175.453 85V71.428H178.781V73.69H178.911C179.189 72.962 179.622 72.3553 180.211 71.87C180.818 71.3673 181.65 71.116 182.707 71.116C184.111 71.116 185.186 71.5753 185.931 72.494C186.677 73.4127 187.049 74.7213 187.049 76.42V85H183.721V76.758C183.721 75.7873 183.548 75.0593 183.201 74.574C182.855 74.0887 182.283 73.846 181.485 73.846C181.139 73.846 180.801 73.898 180.471 74.002C180.159 74.0887 179.873 74.2273 179.613 74.418C179.371 74.5913 179.171 74.8167 179.015 75.094C178.859 75.354 178.781 75.666 178.781 76.03V85H175.453ZM196.094 85.312C195.089 85.312 194.196 85.1473 193.416 84.818C192.636 84.4887 191.978 84.012 191.44 83.388C190.92 82.764 190.522 82.0187 190.244 81.152C189.967 80.268 189.828 79.28 189.828 78.188C189.828 77.096 189.967 76.1167 190.244 75.25C190.522 74.3833 190.92 73.6467 191.44 73.04C191.978 72.416 192.636 71.9393 193.416 71.61C194.196 71.2807 195.089 71.116 196.094 71.116C197.464 71.116 198.59 71.4193 199.474 72.026C200.376 72.6327 201.026 73.4733 201.424 74.548L198.694 75.77C198.538 75.198 198.244 74.73 197.81 74.366C197.394 73.9847 196.822 73.794 196.094 73.794C195.158 73.794 194.456 74.0887 193.988 74.678C193.538 75.2673 193.312 76.0387 193.312 76.992V79.462C193.312 80.4153 193.538 81.1867 193.988 81.776C194.456 82.348 195.158 82.634 196.094 82.634C196.892 82.634 197.507 82.4347 197.94 82.036C198.374 81.62 198.712 81.1087 198.954 80.502L201.502 81.724C201.052 82.92 200.367 83.8213 199.448 84.428C198.53 85.0173 197.412 85.312 196.094 85.312ZM204.069 65.76H207.397V73.69H207.527C207.804 72.962 208.237 72.3553 208.827 71.87C209.433 71.3673 210.265 71.116 211.323 71.116C212.727 71.116 213.801 71.5753 214.547 72.494C215.292 73.4127 215.665 74.7213 215.665 76.42V85H212.337V76.758C212.337 75.7873 212.163 75.0593 211.817 74.574C211.47 74.0887 210.898 73.846 210.101 73.846C209.754 73.846 209.416 73.898 209.087 74.002C208.775 74.0887 208.489 74.2273 208.229 74.418C207.986 74.5913 207.787 74.8167 207.631 75.094C207.475 75.354 207.397 75.666 207.397 76.03V85H204.069V65.76ZM219.354 85V71.428H222.682V74.236H222.812C222.898 73.872 223.028 73.5253 223.202 73.196C223.392 72.8493 223.635 72.546 223.93 72.286C224.224 72.026 224.571 71.818 224.97 71.662C225.386 71.506 225.862 71.428 226.4 71.428H227.128V74.574H226.088C224.961 74.574 224.112 74.7387 223.54 75.068C222.968 75.3973 222.682 75.9347 222.682 76.68V85H219.354ZM234.816 85.312C233.845 85.312 232.97 85.1473 232.19 84.818C231.427 84.4887 230.768 84.012 230.214 83.388C229.676 82.764 229.26 82.0187 228.966 81.152C228.671 80.268 228.524 79.28 228.524 78.188C228.524 77.096 228.671 76.1167 228.966 75.25C229.26 74.3833 229.676 73.6467 230.214 73.04C230.768 72.416 231.427 71.9393 232.19 71.61C232.97 71.2807 233.845 71.116 234.816 71.116C235.786 71.116 236.662 71.2807 237.442 71.61C238.222 71.9393 238.88 72.416 239.418 73.04C239.972 73.6467 240.397 74.3833 240.692 75.25C240.986 76.1167 241.134 77.096 241.134 78.188C241.134 79.28 240.986 80.268 240.692 81.152C240.397 82.0187 239.972 82.764 239.418 83.388C238.88 84.012 238.222 84.4887 237.442 84.818C236.662 85.1473 235.786 85.312 234.816 85.312ZM234.816 82.634C235.7 82.634 236.393 82.3653 236.896 81.828C237.398 81.2907 237.65 80.502 237.65 79.462V76.94C237.65 75.9173 237.398 75.1373 236.896 74.6C236.393 74.0627 235.7 73.794 234.816 73.794C233.949 73.794 233.264 74.0627 232.762 74.6C232.259 75.1373 232.008 75.9173 232.008 76.94V79.462C232.008 80.502 232.259 81.2907 232.762 81.828C233.264 82.3653 233.949 82.634 234.816 82.634ZM244.084 85V71.428H247.412V73.69H247.542C247.819 72.962 248.253 72.3553 248.842 71.87C249.449 71.3673 250.281 71.116 251.338 71.116C252.742 71.116 253.817 71.5753 254.562 72.494C255.307 73.4127 255.68 74.7213 255.68 76.42V85H252.352V76.758C252.352 75.7873 252.179 75.0593 251.832 74.574C251.485 74.0887 250.913 73.846 250.116 73.846C249.769 73.846 249.431 73.898 249.102 74.002C248.79 74.0887 248.504 74.2273 248.244 74.418C248.001 74.5913 247.802 74.8167 247.646 75.094C247.49 75.354 247.412 75.666 247.412 76.03V85H244.084ZM264.751 85.312C263.781 85.312 262.905 85.1473 262.125 84.818C261.363 84.4887 260.704 84.012 260.149 83.388C259.612 82.764 259.196 82.0187 258.901 81.152C258.607 80.268 258.459 79.28 258.459 78.188C258.459 77.096 258.607 76.1167 258.901 75.25C259.196 74.3833 259.612 73.6467 260.149 73.04C260.704 72.416 261.363 71.9393 262.125 71.61C262.905 71.2807 263.781 71.116 264.751 71.116C265.722 71.116 266.597 71.2807 267.377 71.61C268.157 71.9393 268.816 72.416 269.353 73.04C269.908 73.6467 270.333 74.3833 270.627 75.25C270.922 76.1167 271.069 77.096 271.069 78.188C271.069 79.28 270.922 80.268 270.627 81.152C270.333 82.0187 269.908 82.764 269.353 83.388C268.816 84.012 268.157 84.4887 267.377 84.818C266.597 85.1473 265.722 85.312 264.751 85.312ZM264.751 82.634C265.635 82.634 266.329 82.3653 266.831 81.828C267.334 81.2907 267.585 80.502 267.585 79.462V76.94C267.585 75.9173 267.334 75.1373 266.831 74.6C266.329 74.0627 265.635 73.794 264.751 73.794C263.885 73.794 263.2 74.0627 262.697 74.6C262.195 75.1373 261.943 75.9173 261.943 76.94V79.462C261.943 80.502 262.195 81.2907 262.697 81.828C263.2 82.3653 263.885 82.634 264.751 82.634ZM282.132 82.738H282.002C281.88 83.0847 281.716 83.414 281.508 83.726C281.317 84.0207 281.066 84.2893 280.754 84.532C280.459 84.7747 280.095 84.9653 279.662 85.104C279.246 85.2427 278.76 85.312 278.206 85.312C276.802 85.312 275.727 84.8527 274.982 83.934C274.236 83.0153 273.864 81.7067 273.864 80.008V71.428H277.192V79.67C277.192 80.606 277.374 81.3253 277.738 81.828C278.102 82.3133 278.682 82.556 279.48 82.556C279.809 82.556 280.13 82.5127 280.442 82.426C280.771 82.3393 281.057 82.2093 281.3 82.036C281.542 81.8453 281.742 81.62 281.898 81.36C282.054 81.0827 282.132 80.762 282.132 80.398V71.428H285.46V85H282.132V82.738ZM293.751 85.312C292.451 85.312 291.359 85.0953 290.475 84.662C289.591 84.2113 288.811 83.596 288.135 82.816L290.163 80.84C290.666 81.412 291.212 81.8627 291.801 82.192C292.408 82.5213 293.101 82.686 293.881 82.686C294.678 82.686 295.25 82.5473 295.597 82.27C295.961 81.9927 296.143 81.6113 296.143 81.126C296.143 80.7273 296.013 80.4153 295.753 80.19C295.51 79.9473 295.086 79.7827 294.479 79.696L293.127 79.514C291.654 79.3233 290.527 78.9073 289.747 78.266C288.984 77.6073 288.603 76.654 288.603 75.406C288.603 74.7473 288.724 74.158 288.967 73.638C289.21 73.1007 289.556 72.65 290.007 72.286C290.458 71.9047 290.995 71.6187 291.619 71.428C292.26 71.22 292.971 71.116 293.751 71.116C294.41 71.116 294.99 71.168 295.493 71.272C296.013 71.3587 296.481 71.4973 296.897 71.688C297.313 71.8613 297.694 72.0867 298.041 72.364C298.388 72.624 298.726 72.9187 299.055 73.248L297.105 75.198C296.706 74.782 296.23 74.4353 295.675 74.158C295.12 73.8807 294.514 73.742 293.855 73.742C293.127 73.742 292.598 73.872 292.269 74.132C291.957 74.392 291.801 74.73 291.801 75.146C291.801 75.5967 291.931 75.9433 292.191 76.186C292.468 76.4113 292.928 76.576 293.569 76.68L294.947 76.862C297.876 77.278 299.341 78.6127 299.341 80.866C299.341 81.5247 299.202 82.1313 298.925 82.686C298.665 83.2233 298.292 83.6913 297.807 84.09C297.322 84.4713 296.732 84.7747 296.039 85C295.363 85.208 294.6 85.312 293.751 85.312Z" fill="black"/>
</svg>
