<svg width="436" height="121" viewBox="0 0 436 121" fill="none" xmlns="http://www.w3.org/2000/svg">
<rect width="436" height="121" rx="30" fill="#F4F3F3"/>
<ellipse cx="77.2891" cy="60.1755" rx="39.72" ry="40.1755" fill="#004A8D"/>
<path fill-rule="evenodd" clip-rule="evenodd" d="M99.9669 46.9929C99.9669 45.0234 98.3888 43.4266 96.4424 43.4266C88.2419 43.4266 67.9667 43.4266 59.7662 43.4266C57.8197 43.4266 56.2417 45.0234 56.2417 46.9929C56.2417 53.5479 56.2417 67.4388 56.2417 73.9938C56.2417 75.9633 57.8197 77.5601 59.7662 77.5601C67.9667 77.5601 88.2419 77.5601 96.4424 77.5601C98.3888 77.5601 99.9669 75.9633 99.9669 73.9938C99.9669 67.4388 99.9669 53.5479 99.9669 46.9929ZM61.2098 74.8959H94.9988C96.3405 74.8959 97.4295 73.7937 97.4295 72.4364C97.4295 71.0789 96.3405 69.9769 94.9988 69.9769H61.2098C59.8681 69.9769 58.7791 71.0789 58.7791 72.4364C58.7791 73.7937 59.8681 74.8959 61.2098 74.8959ZM87.0949 56.6102L71.1388 64.6802V48.5402L87.0949 56.6102Z" fill="white"/>
<path d="M153.178 71.312C151.982 71.312 150.899 71.1213 149.928 70.74C148.975 70.3413 148.151 69.752 147.458 68.972C146.782 68.192 146.262 67.23 145.898 66.086C145.534 64.9247 145.352 63.5813 145.352 62.056C145.352 60.5307 145.534 59.1787 145.898 58C146.262 56.804 146.782 55.8073 147.458 55.01C148.151 54.1953 148.975 53.58 149.928 53.164C150.899 52.748 151.982 52.54 153.178 52.54C154.807 52.54 156.159 52.8867 157.234 53.58C158.309 54.2733 159.167 55.322 159.808 56.726L156.87 58.286C156.61 57.4713 156.185 56.8213 155.596 56.336C155.007 55.8333 154.201 55.582 153.178 55.582C151.895 55.582 150.873 56.0153 150.11 56.882C149.365 57.7487 148.992 58.962 148.992 60.522V63.382C148.992 64.9593 149.365 66.1727 150.11 67.022C150.873 67.854 151.895 68.27 153.178 68.27C154.201 68.27 155.033 67.9927 155.674 67.438C156.333 66.8833 156.809 66.1987 157.104 65.384L159.886 67.022C159.227 68.374 158.352 69.4313 157.26 70.194C156.168 70.9393 154.807 71.312 153.178 71.312ZM165.934 71C164.79 71 163.949 70.714 163.412 70.142C162.874 69.57 162.606 68.764 162.606 67.724V51.76H165.934V68.348H167.728V71H165.934ZM180.232 71C179.504 71 178.924 70.792 178.49 70.376C178.074 69.9427 177.814 69.3707 177.71 68.66H177.554C177.329 69.544 176.87 70.2113 176.176 70.662C175.483 71.0953 174.625 71.312 173.602 71.312C172.216 71.312 171.15 70.948 170.404 70.22C169.659 69.492 169.286 68.5213 169.286 67.308C169.286 65.904 169.789 64.864 170.794 64.188C171.8 63.4947 173.23 63.148 175.084 63.148H177.398V62.16C177.398 61.3973 177.199 60.808 176.8 60.392C176.402 59.976 175.76 59.768 174.876 59.768C174.096 59.768 173.464 59.9413 172.978 60.288C172.51 60.6173 172.112 61.016 171.782 61.484L169.806 59.716C170.309 58.936 170.976 58.312 171.808 57.844C172.64 57.3587 173.741 57.116 175.11 57.116C176.948 57.116 178.343 57.532 179.296 58.364C180.25 59.196 180.726 60.392 180.726 61.952V68.348H182.078V71H180.232ZM174.72 68.894C175.466 68.894 176.098 68.7293 176.618 68.4C177.138 68.0707 177.398 67.5853 177.398 66.944V65.15H175.266C173.533 65.15 172.666 65.7047 172.666 66.814V67.256C172.666 67.8107 172.84 68.2267 173.186 68.504C173.55 68.764 174.062 68.894 174.72 68.894ZM189.218 71.312C187.918 71.312 186.826 71.0953 185.942 70.662C185.058 70.2113 184.278 69.596 183.602 68.816L185.63 66.84C186.132 67.412 186.678 67.8627 187.268 68.192C187.874 68.5213 188.568 68.686 189.348 68.686C190.145 68.686 190.717 68.5473 191.064 68.27C191.428 67.9927 191.61 67.6113 191.61 67.126C191.61 66.7273 191.48 66.4153 191.22 66.19C190.977 65.9473 190.552 65.7827 189.946 65.696L188.594 65.514C187.12 65.3233 185.994 64.9073 185.214 64.266C184.451 63.6073 184.07 62.654 184.07 61.406C184.07 60.7473 184.191 60.158 184.434 59.638C184.676 59.1007 185.023 58.65 185.474 58.286C185.924 57.9047 186.462 57.6187 187.086 57.428C187.727 57.22 188.438 57.116 189.218 57.116C189.876 57.116 190.457 57.168 190.96 57.272C191.48 57.3587 191.948 57.4973 192.364 57.688C192.78 57.8613 193.161 58.0867 193.508 58.364C193.854 58.624 194.192 58.9187 194.522 59.248L192.572 61.198C192.173 60.782 191.696 60.4353 191.142 60.158C190.587 59.8807 189.98 59.742 189.322 59.742C188.594 59.742 188.065 59.872 187.736 60.132C187.424 60.392 187.268 60.73 187.268 61.146C187.268 61.5967 187.398 61.9433 187.658 62.186C187.935 62.4113 188.394 62.576 189.036 62.68L190.414 62.862C193.343 63.278 194.808 64.6127 194.808 66.866C194.808 67.5247 194.669 68.1313 194.392 68.686C194.132 69.2233 193.759 69.6913 193.274 70.09C192.788 70.4713 192.199 70.7747 191.506 71C190.83 71.208 190.067 71.312 189.218 71.312ZM202.015 71.312C200.715 71.312 199.623 71.0953 198.739 70.662C197.855 70.2113 197.075 69.596 196.399 68.816L198.427 66.84C198.929 67.412 199.475 67.8627 200.065 68.192C200.671 68.5213 201.365 68.686 202.145 68.686C202.942 68.686 203.514 68.5473 203.861 68.27C204.225 67.9927 204.407 67.6113 204.407 67.126C204.407 66.7273 204.277 66.4153 204.017 66.19C203.774 65.9473 203.349 65.7827 202.743 65.696L201.391 65.514C199.917 65.3233 198.791 64.9073 198.011 64.266C197.248 63.6073 196.867 62.654 196.867 61.406C196.867 60.7473 196.988 60.158 197.231 59.638C197.473 59.1007 197.82 58.65 198.271 58.286C198.721 57.9047 199.259 57.6187 199.883 57.428C200.524 57.22 201.235 57.116 202.015 57.116C202.673 57.116 203.254 57.168 203.757 57.272C204.277 57.3587 204.745 57.4973 205.161 57.688C205.577 57.8613 205.958 58.0867 206.305 58.364C206.651 58.624 206.989 58.9187 207.319 59.248L205.369 61.198C204.97 60.782 204.493 60.4353 203.939 60.158C203.384 59.8807 202.777 59.742 202.119 59.742C201.391 59.742 200.862 59.872 200.533 60.132C200.221 60.392 200.065 60.73 200.065 61.146C200.065 61.5967 200.195 61.9433 200.455 62.186C200.732 62.4113 201.191 62.576 201.833 62.68L203.211 62.862C206.14 63.278 207.605 64.6127 207.605 66.866C207.605 67.5247 207.466 68.1313 207.189 68.686C206.929 69.2233 206.556 69.6913 206.071 70.09C205.585 70.4713 204.996 70.7747 204.303 71C203.627 71.208 202.864 71.312 202.015 71.312ZM229.35 71H215.752V67.932L225.138 55.894H216.22V52.852H229.09V55.92L219.678 67.958H229.35V71ZM237.507 71.312C236.537 71.312 235.661 71.1473 234.881 70.818C234.119 70.4887 233.46 70.012 232.905 69.388C232.368 68.764 231.952 68.0187 231.657 67.152C231.363 66.268 231.215 65.28 231.215 64.188C231.215 63.096 231.363 62.1167 231.657 61.25C231.952 60.3833 232.368 59.6467 232.905 59.04C233.46 58.416 234.119 57.9393 234.881 57.61C235.661 57.2807 236.537 57.116 237.507 57.116C238.478 57.116 239.353 57.2807 240.133 57.61C240.913 57.9393 241.572 58.416 242.109 59.04C242.664 59.6467 243.089 60.3833 243.383 61.25C243.678 62.1167 243.825 63.096 243.825 64.188C243.825 65.28 243.678 66.268 243.383 67.152C243.089 68.0187 242.664 68.764 242.109 69.388C241.572 70.012 240.913 70.4887 240.133 70.818C239.353 71.1473 238.478 71.312 237.507 71.312ZM237.507 68.634C238.391 68.634 239.085 68.3653 239.587 67.828C240.09 67.2907 240.341 66.502 240.341 65.462V62.94C240.341 61.9173 240.09 61.1373 239.587 60.6C239.085 60.0627 238.391 59.794 237.507 59.794C236.641 59.794 235.956 60.0627 235.453 60.6C234.951 61.1373 234.699 61.9173 234.699 62.94V65.462C234.699 66.502 234.951 67.2907 235.453 67.828C235.956 68.3653 236.641 68.634 237.507 68.634ZM252.158 71.312C251.187 71.312 250.312 71.1473 249.532 70.818C248.769 70.4887 248.11 70.012 247.556 69.388C247.018 68.764 246.602 68.0187 246.308 67.152C246.013 66.268 245.866 65.28 245.866 64.188C245.866 63.096 246.013 62.1167 246.308 61.25C246.602 60.3833 247.018 59.6467 247.556 59.04C248.11 58.416 248.769 57.9393 249.532 57.61C250.312 57.2807 251.187 57.116 252.158 57.116C253.128 57.116 254.004 57.2807 254.784 57.61C255.564 57.9393 256.222 58.416 256.76 59.04C257.314 59.6467 257.739 60.3833 258.034 61.25C258.328 62.1167 258.476 63.096 258.476 64.188C258.476 65.28 258.328 66.268 258.034 67.152C257.739 68.0187 257.314 68.764 256.76 69.388C256.222 70.012 255.564 70.4887 254.784 70.818C254.004 71.1473 253.128 71.312 252.158 71.312ZM252.158 68.634C253.042 68.634 253.735 68.3653 254.238 67.828C254.74 67.2907 254.992 66.502 254.992 65.462V62.94C254.992 61.9173 254.74 61.1373 254.238 60.6C253.735 60.0627 253.042 59.794 252.158 59.794C251.291 59.794 250.606 60.0627 250.104 60.6C249.601 61.1373 249.35 61.9173 249.35 62.94V65.462C249.35 66.502 249.601 67.2907 250.104 67.828C250.606 68.3653 251.291 68.634 252.158 68.634ZM261.426 71V57.428H264.754V59.69H264.884C265.144 58.9793 265.56 58.3727 266.132 57.87C266.704 57.3673 267.501 57.116 268.524 57.116C269.46 57.116 270.266 57.3413 270.942 57.792C271.618 58.2427 272.121 58.9273 272.45 59.846H272.502C272.745 59.0833 273.221 58.442 273.932 57.922C274.66 57.3847 275.57 57.116 276.662 57.116C277.997 57.116 279.019 57.5753 279.73 58.494C280.458 59.4127 280.822 60.7213 280.822 62.42V71H277.494V62.758C277.494 60.8167 276.766 59.846 275.31 59.846C274.981 59.846 274.66 59.898 274.348 60.002C274.053 60.0887 273.785 60.2273 273.542 60.418C273.317 60.5913 273.135 60.8167 272.996 61.094C272.857 61.354 272.788 61.666 272.788 62.03V71H269.46V62.758C269.46 60.8167 268.732 59.846 267.276 59.846C266.964 59.846 266.652 59.898 266.34 60.002C266.045 60.0887 265.777 60.2273 265.534 60.418C265.309 60.5913 265.118 60.8167 264.962 61.094C264.823 61.354 264.754 61.666 264.754 62.03V71H261.426ZM290.859 71V52.852H294.291V67.958H301.441V71H290.859ZM305.873 55.452C305.18 55.452 304.677 55.296 304.365 54.984C304.07 54.672 303.923 54.2733 303.923 53.788V53.268C303.923 52.7827 304.07 52.384 304.365 52.072C304.677 51.76 305.18 51.604 305.873 51.604C306.549 51.604 307.043 51.76 307.355 52.072C307.667 52.384 307.823 52.7827 307.823 53.268V53.788C307.823 54.2733 307.667 54.672 307.355 54.984C307.043 55.296 306.549 55.452 305.873 55.452ZM304.209 57.428H307.537V71H304.209V57.428ZM311.395 71V57.428H314.723V59.69H314.853C315.13 58.962 315.563 58.3553 316.153 57.87C316.759 57.3673 317.591 57.116 318.649 57.116C320.053 57.116 321.127 57.5753 321.873 58.494C322.618 59.4127 322.991 60.7213 322.991 62.42V71H319.663V62.758C319.663 61.7873 319.489 61.0593 319.143 60.574C318.796 60.0887 318.224 59.846 317.427 59.846C317.08 59.846 316.742 59.898 316.413 60.002C316.101 60.0887 315.815 60.2273 315.555 60.418C315.312 60.5913 315.113 60.8167 314.957 61.094C314.801 61.354 314.723 61.666 314.723 62.03V71H311.395ZM326.68 51.76H330.008V63.356H330.138L331.932 60.912L334.974 57.428H338.744L334.064 62.68L339.238 71H335.286L331.802 64.916L330.008 66.866V71H326.68V51.76ZM345.472 71.312C344.172 71.312 343.08 71.0953 342.196 70.662C341.312 70.2113 340.532 69.596 339.856 68.816L341.884 66.84C342.386 67.412 342.932 67.8627 343.522 68.192C344.128 68.5213 344.822 68.686 345.602 68.686C346.399 68.686 346.971 68.5473 347.318 68.27C347.682 67.9927 347.864 67.6113 347.864 67.126C347.864 66.7273 347.734 66.4153 347.474 66.19C347.231 65.9473 346.806 65.7827 346.2 65.696L344.848 65.514C343.374 65.3233 342.248 64.9073 341.468 64.266C340.705 63.6073 340.324 62.654 340.324 61.406C340.324 60.7473 340.445 60.158 340.688 59.638C340.93 59.1007 341.277 58.65 341.728 58.286C342.178 57.9047 342.716 57.6187 343.34 57.428C343.981 57.22 344.692 57.116 345.472 57.116C346.13 57.116 346.711 57.168 347.214 57.272C347.734 57.3587 348.202 57.4973 348.618 57.688C349.034 57.8613 349.415 58.0867 349.762 58.364C350.108 58.624 350.446 58.9187 350.776 59.248L348.826 61.198C348.427 60.782 347.95 60.4353 347.396 60.158C346.841 59.8807 346.234 59.742 345.576 59.742C344.848 59.742 344.319 59.872 343.99 60.132C343.678 60.392 343.522 60.73 343.522 61.146C343.522 61.5967 343.652 61.9433 343.912 62.186C344.189 62.4113 344.648 62.576 345.29 62.68L346.668 62.862C349.597 63.278 351.062 64.6127 351.062 66.866C351.062 67.5247 350.923 68.1313 350.646 68.686C350.386 69.2233 350.013 69.6913 349.528 70.09C349.042 70.4713 348.453 70.7747 347.76 71C347.084 71.208 346.321 71.312 345.472 71.312Z" fill="black"/>
</svg>
