<svg width="1346" height="113" viewBox="0 0 1346 113" fill="none" xmlns="http://www.w3.org/2000/svg">
<g clip-path="url(#clip0_949_97)">
<path d="M29.8047 110.244L15.5469 187.862L73.7665 136.515L29.8047 110.244Z" fill="#CCCCCC"/>
<path d="M73.7666 136.515L134.363 186.668L148.62 107.855L73.7666 136.515Z" fill="#B3B3B3"/>
<path d="M29.8049 110.244L73.7667 136.515L70.2022 88.7494L29.8049 110.244Z" fill="#E6E6E6"/>
<path d="M70.2021 88.7494L73.7666 136.515L148.62 107.855L70.2021 88.7494Z" fill="#CCCCCC"/>
<path d="M148.62 107.855L134.363 186.668L192.582 134.126L148.62 107.855Z" fill="#CCCCCC"/>
<path d="M192.582 134.126L254.366 184.28L268.624 106.661L192.582 134.126Z" fill="#B3B3B3"/>
<path d="M148.62 107.856L192.582 134.126L189.018 87.5553L148.62 107.856Z" fill="#E6E6E6"/>
<path d="M189.018 87.5553L192.582 134.126L268.624 106.661L189.018 87.5553Z" fill="#CCCCCC"/>
<path d="M268.624 106.661L254.366 184.28L312.586 132.932L268.624 106.661Z" fill="#CCCCCC"/>
<path d="M312.586 132.932L373.182 183.086L388.628 104.273L312.586 132.932Z" fill="#B3B3B3"/>
<path d="M268.624 106.661L312.586 132.932L309.022 85.167L268.624 106.661Z" fill="#E6E6E6"/>
<path d="M309.021 85.167L312.586 132.932L388.628 104.273L309.021 85.167Z" fill="#CCCCCC"/>
<path d="M4.85352 -6.78105L83.2718 12.325L63.0732 -58.1287L4.85352 -6.78105Z" fill="#B3B3B3"/>
<path d="M63.0732 -58.1287L83.2719 12.325L123.669 -7.97518L63.0732 -58.1287Z" fill="#CCCCCC"/>
<path d="M123.669 -7.97514L203.276 11.131L181.889 -60.5169L123.669 -7.97514Z" fill="#B3B3B3"/>
<path d="M181.889 -60.5169L203.276 11.131L243.673 -10.3634L181.889 -60.5169Z" fill="#CCCCCC"/>
<path d="M243.673 -10.3634L322.091 8.74268H323.279L301.893 -61.7111L243.673 -10.3634Z" fill="#B3B3B3"/>
<path d="M301.893 -61.7111L323.279 8.74268L362.488 -12.7517L301.893 -61.7111Z" fill="#CCCCCC"/>
<path d="M-35.5436 13.5192L-49.8015 91.1377L8.41813 39.7901L-35.5436 13.5192Z" fill="#CCCCCC"/>
<path d="M8.41797 39.7901L69.0139 89.9436L83.2718 12.3251L8.41797 39.7901Z" fill="#B3B3B3"/>
<path d="M-49.8015 91.1377L28.6168 110.244L8.41813 39.79L-49.8015 91.1377Z" fill="#B3B3B3"/>
<path d="M8.41797 39.79L28.6166 110.244L69.0139 89.9435L8.41797 39.79Z" fill="#CCCCCC"/>
<path d="M-35.5437 13.5191L8.41807 39.79L4.8536 -7.97522L-35.5437 13.5191Z" fill="#E6E6E6"/>
<path d="M4.85352 -7.97522L8.41798 39.79L83.2718 12.325L4.85352 -7.97522Z" fill="#CCCCCC"/>
<path d="M83.2718 12.3251L69.0139 89.9436L127.234 37.4018L83.2718 12.3251Z" fill="#CCCCCC"/>
<path d="M127.234 37.4018L189.018 87.5553L203.276 9.93677L127.234 37.4018Z" fill="#B3B3B3"/>
<path d="M69.0139 89.9436L148.62 109.05L127.234 37.4019L69.0139 89.9436Z" fill="#B3B3B3"/>
<path d="M127.234 37.4019L148.62 109.05L189.018 87.5553L127.234 37.4019Z" fill="#CCCCCC"/>
<path d="M83.272 12.325L127.234 37.4018L123.669 -9.16931L83.272 12.325Z" fill="#E6E6E6"/>
<path d="M123.669 -9.16931L127.234 37.4018L203.276 9.93678L123.669 -9.16931Z" fill="#CCCCCC"/>
<path d="M-46.2371 137.709L15.5471 187.862L29.8049 110.244L-46.2371 137.709Z" fill="#B3B3B3"/>
<path d="M-49.8015 91.1377L-46.237 137.709L29.8049 110.244L-49.8015 91.1377Z" fill="#CCCCCC"/>
<path d="M203.276 9.93677L189.018 87.5553L247.237 36.2076L203.276 9.93677Z" fill="#CCCCCC"/>
<path d="M247.237 36.2077L307.833 86.3612L323.279 8.74268L247.237 36.2077Z" fill="#B3B3B3"/>
<path d="M189.018 87.5553L267.436 106.661L247.237 36.2076L189.018 87.5553Z" fill="#B3B3B3"/>
<path d="M247.237 36.2076L267.436 106.661L307.833 86.3611L247.237 36.2076Z" fill="#CCCCCC"/>
<path d="M203.276 9.93674L247.237 36.2076L243.673 -11.5576L203.276 9.93674Z" fill="#E6E6E6"/>
<path d="M243.673 -11.5576L247.237 36.2076L323.279 8.74261L243.673 -11.5576Z" fill="#CCCCCC"/>
<path d="M322.091 8.74268L307.833 86.3612L366.053 33.8194L322.091 8.74268Z" fill="#CCCCCC"/>
<path d="M366.053 33.8194L427.837 83.9729L442.095 6.35437L366.053 33.8194Z" fill="#B3B3B3"/>
<path d="M307.833 86.3612L387.44 105.467L366.053 33.8195L307.833 86.3612Z" fill="#B3B3B3"/>
<path d="M366.053 33.8195L387.44 105.467L427.837 83.973L366.053 33.8195Z" fill="#CCCCCC"/>
<path d="M322.091 8.74265L366.053 33.8194L362.489 -12.7517L322.091 8.74265Z" fill="#E6E6E6"/>
<path d="M362.489 -12.7517L366.053 33.8194L442.095 6.35439L362.489 -12.7517Z" fill="#CCCCCC"/>
<path d="M626.259 100.691L612.001 178.309L670.221 125.768L626.259 100.691Z" fill="#CCCCCC"/>
<path d="M670.221 125.768L732.005 175.921L746.263 98.3025L670.221 125.768Z" fill="#B3B3B3"/>
<path d="M626.259 100.691L670.221 125.768L666.657 79.1964L626.259 100.691Z" fill="#E6E6E6"/>
<path d="M666.656 79.1964L670.221 125.768L746.263 98.3025L666.656 79.1964Z" fill="#CCCCCC"/>
<path d="M746.263 98.3025L732.005 175.921L790.225 124.573L746.263 98.3025Z" fill="#CCCCCC"/>
<path d="M790.225 124.573L850.821 174.727L866.267 95.9142L790.225 124.573Z" fill="#B3B3B3"/>
<path d="M746.263 98.3025L790.225 124.573L786.66 76.8081L746.263 98.3025Z" fill="#E6E6E6"/>
<path d="M786.66 76.8081L790.225 124.573L866.267 95.9142L786.66 76.8081Z" fill="#CCCCCC"/>
<path d="M865.079 97.1084L850.821 174.727L909.04 122.185L865.079 97.1084Z" fill="#CCCCCC"/>
<path d="M909.04 122.185L970.824 172.339L985.082 94.7201L909.04 122.185Z" fill="#B3B3B3"/>
<path d="M865.079 97.1084L909.04 122.185L905.476 75.614L865.079 97.1084Z" fill="#E6E6E6"/>
<path d="M905.476 75.614L909.041 122.185L985.082 94.7201L905.476 75.614Z" fill="#CCCCCC"/>
<path d="M720.124 -18.7223L799.73 0.383748L778.343 -71.2641L720.124 -18.7223Z" fill="#B3B3B3"/>
<path d="M778.343 -71.2641L799.73 0.383748L840.127 -21.1106L778.343 -71.2641Z" fill="#CCCCCC"/>
<path d="M919.734 -2.00452L905.476 75.614L963.696 24.2664L919.734 -2.00452Z" fill="#CCCCCC"/>
<path d="M963.695 24.2663L1024.29 73.2257L1038.55 -4.39282L963.695 24.2663Z" fill="#B3B3B3"/>
<path d="M905.476 75.614L983.894 94.7201L963.696 24.2664L905.476 75.614Z" fill="#B3B3B3"/>
<path d="M963.695 24.2664L983.894 94.7201L1024.29 73.2257L963.695 24.2664Z" fill="#CCCCCC"/>
<path d="M919.734 -2.00454L963.696 24.2663L960.131 -23.4989L919.734 -2.00454Z" fill="#E6E6E6"/>
<path d="M960.131 -23.4989L963.695 24.2663L1038.55 -4.3928L960.131 -23.4989Z" fill="#CCCCCC"/>
<path d="M1038.55 -4.39282L1024.29 73.2257L1082.51 21.8781L1038.55 -4.39282Z" fill="#CCCCCC"/>
<path d="M1082.51 21.8781L1144.3 72.0316L1158.55 -5.58691L1082.51 21.8781Z" fill="#B3B3B3"/>
<path d="M1024.29 73.2258L1103.9 92.3319L1082.51 21.8782L1024.29 73.2258Z" fill="#B3B3B3"/>
<path d="M1082.51 21.8782L1103.9 92.3319L1144.3 72.0317L1082.51 21.8782Z" fill="#CCCCCC"/>
<path d="M1038.55 -4.39279L1082.51 21.8781L1078.95 -25.8871L1038.55 -4.39279Z" fill="#E6E6E6"/>
<path d="M1078.95 -25.8871L1082.51 21.8781L1158.55 -5.58692L1078.95 -25.8871Z" fill="#CCCCCC"/>
<path d="M482.492 -15.1399L562.099 3.96616L540.712 -67.6817L482.492 -15.1399Z" fill="#B3B3B3"/>
<path d="M540.712 -67.6817L562.099 3.96616L601.308 -17.5282L540.712 -67.6817Z" fill="#CCCCCC"/>
<path d="M442.095 5.16028L427.837 82.7788L486.057 31.4312L442.095 5.16028Z" fill="#CCCCCC"/>
<path d="M486.057 31.4312L547.841 81.5847L562.099 3.96619L486.057 31.4312Z" fill="#B3B3B3"/>
<path d="M427.837 82.7788L507.444 103.079L486.057 31.4312L427.837 82.7788Z" fill="#B3B3B3"/>
<path d="M486.057 31.4312L507.443 103.079L547.841 81.5847L486.057 31.4312Z" fill="#CCCCCC"/>
<path d="M442.095 5.16025L486.057 31.4311L482.492 -16.3341L442.095 5.16025Z" fill="#E6E6E6"/>
<path d="M482.492 -16.3341L486.057 31.4311L562.099 3.96612L482.492 -16.3341Z" fill="#CCCCCC"/>
<path d="M601.308 -17.5282L680.914 2.77201V1.57788L659.527 -68.8759L601.308 -17.5282Z" fill="#B3B3B3"/>
<path d="M659.528 -68.8759L680.914 1.57787L721.312 -18.7224L659.528 -68.8759Z" fill="#CCCCCC"/>
<path d="M560.911 2.77197L546.653 81.5846L604.872 29.0429L560.911 2.77197Z" fill="#CCCCCC"/>
<path d="M604.872 29.0429L666.656 79.1964L680.914 1.57788L604.872 29.0429Z" fill="#B3B3B3"/>
<path d="M546.653 81.5846L626.259 100.691L604.872 29.0428L546.653 81.5846Z" fill="#B3B3B3"/>
<path d="M604.872 29.0428L626.259 100.691L666.656 79.1964L604.872 29.0428Z" fill="#CCCCCC"/>
<path d="M560.911 2.77202L604.872 29.0429L601.308 -17.5282L560.911 2.77202Z" fill="#E6E6E6"/>
<path d="M601.308 -17.5282L604.872 29.0429L680.914 1.57789L601.308 -17.5282Z" fill="#CCCCCC"/>
<path d="M680.914 1.57788L666.656 79.1964L723.688 27.8488L680.914 1.57788Z" fill="#CCCCCC"/>
<path d="M723.688 27.8487L785.472 78.0022L799.73 -0.810425L723.688 27.8487Z" fill="#B3B3B3"/>
<path d="M666.656 79.1964L745.075 98.3025L723.688 27.8488L666.656 79.1964Z" fill="#B3B3B3"/>
<path d="M723.688 27.8488L745.075 98.3025L785.472 78.0023L723.688 27.8488Z" fill="#CCCCCC"/>
<path d="M680.914 1.57785L723.688 27.8487L721.312 -19.9165L680.914 1.57785Z" fill="#E6E6E6"/>
<path d="M721.312 -19.9165L723.688 27.8487L799.73 -0.81041L721.312 -19.9165Z" fill="#CCCCCC"/>
<path d="M799.73 -0.810425L785.472 78.0022L843.692 25.4605L799.73 -0.810425Z" fill="#CCCCCC"/>
<path d="M843.692 25.4605L905.476 75.614L919.734 -2.00452L843.692 25.4605Z" fill="#B3B3B3"/>
<path d="M785.472 78.0022L865.079 97.1083L843.692 25.4604L785.472 78.0022Z" fill="#B3B3B3"/>
<path d="M843.692 25.4604L865.079 97.1083L905.476 75.6139L843.692 25.4604Z" fill="#CCCCCC"/>
<path d="M799.73 -0.810364L843.692 25.4605L840.127 -21.1106L799.73 -0.810364Z" fill="#E6E6E6"/>
<path d="M840.127 -21.1106L843.692 25.4605L919.734 -2.0045L840.127 -21.1106Z" fill="#CCCCCC"/>
<path d="M387.44 104.273L373.182 181.892L431.402 130.544L387.44 104.273Z" fill="#CCCCCC"/>
<path d="M431.402 130.544L493.186 179.503L507.444 101.885L431.402 130.544Z" fill="#B3B3B3"/>
<path d="M387.44 104.273L431.402 130.544L427.837 82.7788L387.44 104.273Z" fill="#E6E6E6"/>
<path d="M427.837 82.7788L431.402 130.544L507.444 101.885L427.837 82.7788Z" fill="#CCCCCC"/>
<path d="M507.444 100.691L493.186 178.309L551.405 126.962L507.444 100.691Z" fill="#CCCCCC"/>
<path d="M551.405 126.962L613.189 177.115L627.447 99.4966L551.405 126.962Z" fill="#B3B3B3"/>
<path d="M507.444 100.691L551.405 126.962L547.841 79.1964L507.444 100.691Z" fill="#E6E6E6"/>
<path d="M547.841 79.1964L551.405 126.962L627.447 99.4966L547.841 79.1964Z" fill="#CCCCCC"/>
<path d="M362.489 -12.7517L442.095 6.35442L420.708 -64.0993L362.489 -12.7517Z" fill="#B3B3B3"/>
<path d="M420.708 -64.0993L442.095 6.35442L482.492 -15.1399L420.708 -64.0993Z" fill="#CCCCCC"/>
<path d="M481.304 -13.9459L560.911 5.16024L539.524 -66.4876L481.304 -13.9459Z" fill="#B3B3B3"/>
<path d="M539.524 -66.4876L560.911 5.16024L601.308 -16.3341L539.524 -66.4876Z" fill="#CCCCCC"/>
<path d="M1221.53 91.1377L1207.27 168.756L1265.49 117.409L1221.53 91.1377Z" fill="#CCCCCC"/>
<path d="M1265.49 117.409L1326.08 166.368L1341.53 88.7494L1265.49 117.409Z" fill="#B3B3B3"/>
<path d="M1221.53 91.1377L1265.49 117.409L1261.92 69.6433L1221.53 91.1377Z" fill="#E6E6E6"/>
<path d="M1261.92 69.6433L1265.49 117.409L1341.53 88.7494L1261.92 69.6433Z" fill="#CCCCCC"/>
<path d="M1156.18 -5.58691L1141.92 72.0316L1200.14 20.684L1156.18 -5.58691Z" fill="#CCCCCC"/>
<path d="M1200.14 20.6839L1260.73 70.8374L1276.18 -7.97522L1200.14 20.6839Z" fill="#B3B3B3"/>
<path d="M1141.92 72.0316L1220.34 91.1377L1200.14 20.684L1141.92 72.0316Z" fill="#B3B3B3"/>
<path d="M1200.14 20.684L1220.34 91.1377L1260.73 70.8375L1200.14 20.684Z" fill="#CCCCCC"/>
<path d="M1156.18 -5.58688L1200.14 20.684L1196.57 -27.0812L1156.18 -5.58688Z" fill="#E6E6E6"/>
<path d="M1196.57 -27.0812L1200.14 20.684L1276.18 -7.97514L1196.57 -27.0812Z" fill="#CCCCCC"/>
<path d="M1274.99 -7.97522L1260.73 70.8374L1318.95 18.2957L1274.99 -7.97522Z" fill="#CCCCCC"/>
<path d="M1318.95 18.2957L1380.74 68.4492L1395 -9.16931L1318.95 18.2957Z" fill="#B3B3B3"/>
<path d="M1260.73 70.8374L1340.34 89.9435L1318.95 18.2957L1260.73 70.8374Z" fill="#B3B3B3"/>
<path d="M1318.95 18.2957L1340.34 89.9435L1380.74 68.4492L1318.95 18.2957Z" fill="#CCCCCC"/>
<path d="M1274.99 -7.97516L1318.95 18.2957L1315.39 -28.2754L1274.99 -7.97516Z" fill="#E6E6E6"/>
<path d="M1315.39 -28.2754L1318.95 18.2957L1395 -9.16929L1315.39 -28.2754Z" fill="#CCCCCC"/>
<path d="M982.706 94.7201L968.448 172.339L1026.67 120.991L982.706 94.7201Z" fill="#CCCCCC"/>
<path d="M1026.67 120.991L1088.45 171.144L1102.71 92.3318L1026.67 120.991Z" fill="#B3B3B3"/>
<path d="M982.706 94.7201L1026.67 120.991L1023.1 73.2257L982.706 94.7201Z" fill="#E6E6E6"/>
<path d="M1023.1 73.2257L1026.67 120.991L1102.71 92.3318L1023.1 73.2257Z" fill="#CCCCCC"/>
<path d="M1101.52 92.3318L1087.26 171.144L1145.48 118.603L1101.52 92.3318Z" fill="#CCCCCC"/>
<path d="M1145.48 118.603L1207.27 168.756L1221.53 91.1377L1145.48 118.603Z" fill="#B3B3B3"/>
<path d="M1101.52 92.3318L1145.48 118.603L1141.92 72.0316L1101.52 92.3318Z" fill="#E6E6E6"/>
<path d="M1141.92 72.0316L1145.48 118.603L1221.53 91.1377L1141.92 72.0316Z" fill="#CCCCCC"/>
<rect y="-1" width="1346" height="114" fill="url(#paint0_linear_949_97)" fill-opacity="0.8"/>
<path d="M161.708 72.432C160.052 72.432 158.552 72.168 157.208 71.64C155.888 71.088 154.748 70.272 153.788 69.192C152.852 68.112 152.132 66.78 151.628 65.196C151.124 63.588 150.872 61.728 150.872 59.616C150.872 57.504 151.124 55.632 151.628 54C152.132 52.344 152.852 50.964 153.788 49.86C154.748 48.732 155.888 47.88 157.208 47.304C158.552 46.728 160.052 46.44 161.708 46.44C163.964 46.44 165.836 46.92 167.324 47.88C168.812 48.84 170 50.292 170.888 52.236L166.82 54.396C166.46 53.268 165.872 52.368 165.056 51.696C164.24 51 163.124 50.652 161.708 50.652C159.932 50.652 158.516 51.252 157.46 52.452C156.428 53.652 155.912 55.332 155.912 57.492V61.452C155.912 63.636 156.428 65.316 157.46 66.492C158.516 67.644 159.932 68.22 161.708 68.22C163.124 68.22 164.276 67.836 165.164 67.068C166.076 66.3 166.736 65.352 167.144 64.224L170.996 66.492C170.084 68.364 168.872 69.828 167.36 70.884C165.848 71.916 163.964 72.432 161.708 72.432ZM182.214 72.432C180.87 72.432 179.658 72.204 178.578 71.748C177.522 71.292 176.61 70.632 175.842 69.768C175.098 68.904 174.522 67.872 174.114 66.672C173.706 65.448 173.502 64.08 173.502 62.568C173.502 61.056 173.706 59.7 174.114 58.5C174.522 57.3 175.098 56.28 175.842 55.44C176.61 54.576 177.522 53.916 178.578 53.46C179.658 53.004 180.87 52.776 182.214 52.776C183.558 52.776 184.77 53.004 185.85 53.46C186.93 53.916 187.842 54.576 188.586 55.44C189.354 56.28 189.942 57.3 190.35 58.5C190.758 59.7 190.962 61.056 190.962 62.568C190.962 64.08 190.758 65.448 190.35 66.672C189.942 67.872 189.354 68.904 188.586 69.768C187.842 70.632 186.93 71.292 185.85 71.748C184.77 72.204 183.558 72.432 182.214 72.432ZM182.214 68.724C183.438 68.724 184.398 68.352 185.094 67.608C185.79 66.864 186.138 65.772 186.138 64.332V60.84C186.138 59.424 185.79 58.344 185.094 57.6C184.398 56.856 183.438 56.484 182.214 56.484C181.014 56.484 180.066 56.856 179.37 57.6C178.674 58.344 178.326 59.424 178.326 60.84V64.332C178.326 65.772 178.674 66.864 179.37 67.608C180.066 68.352 181.014 68.724 182.214 68.724ZM195.047 72V53.208H199.655V56.34H199.835C200.195 55.356 200.771 54.516 201.563 53.82C202.355 53.124 203.459 52.776 204.875 52.776C206.171 52.776 207.287 53.088 208.223 53.712C209.159 54.336 209.855 55.284 210.311 56.556H210.383C210.719 55.5 211.379 54.612 212.363 53.892C213.371 53.148 214.631 52.776 216.143 52.776C217.991 52.776 219.407 53.412 220.391 54.684C221.399 55.956 221.903 57.768 221.903 60.12V72H217.295V60.588C217.295 57.9 216.287 56.556 214.271 56.556C213.815 56.556 213.371 56.628 212.939 56.772C212.531 56.892 212.159 57.084 211.823 57.348C211.511 57.588 211.259 57.9 211.067 58.284C210.875 58.644 210.779 59.076 210.779 59.58V72H206.171V60.588C206.171 57.9 205.163 56.556 203.147 56.556C202.715 56.556 202.283 56.628 201.851 56.772C201.443 56.892 201.071 57.084 200.735 57.348C200.423 57.588 200.159 57.9 199.943 58.284C199.751 58.644 199.655 59.076 199.655 59.58V72H195.047ZM227.004 72V53.208H231.612V56.34H231.792C232.152 55.356 232.728 54.516 233.52 53.82C234.312 53.124 235.416 52.776 236.832 52.776C238.128 52.776 239.244 53.088 240.18 53.712C241.116 54.336 241.812 55.284 242.268 56.556H242.34C242.676 55.5 243.336 54.612 244.32 53.892C245.328 53.148 246.588 52.776 248.1 52.776C249.948 52.776 251.364 53.412 252.348 54.684C253.356 55.956 253.86 57.768 253.86 60.12V72H249.252V60.588C249.252 57.9 248.244 56.556 246.228 56.556C245.772 56.556 245.328 56.628 244.896 56.772C244.488 56.892 244.116 57.084 243.78 57.348C243.468 57.588 243.216 57.9 243.024 58.284C242.832 58.644 242.736 59.076 242.736 59.58V72H238.128V60.588C238.128 57.9 237.12 56.556 235.104 56.556C234.672 56.556 234.24 56.628 233.808 56.772C233.4 56.892 233.028 57.084 232.692 57.348C232.38 57.588 232.116 57.9 231.9 58.284C231.708 58.644 231.612 59.076 231.612 59.58V72H227.004ZM270.193 68.868H270.013C269.845 69.348 269.617 69.804 269.329 70.236C269.065 70.644 268.717 71.016 268.285 71.352C267.877 71.688 267.373 71.952 266.773 72.144C266.197 72.336 265.525 72.432 264.757 72.432C262.813 72.432 261.325 71.796 260.293 70.524C259.261 69.252 258.745 67.44 258.745 65.088V53.208H263.353V64.62C263.353 65.916 263.605 66.912 264.109 67.608C264.613 68.28 265.417 68.616 266.521 68.616C266.977 68.616 267.421 68.556 267.853 68.436C268.309 68.316 268.705 68.136 269.041 67.896C269.377 67.632 269.653 67.32 269.869 66.96C270.085 66.576 270.193 66.132 270.193 65.628V53.208H274.801V72H270.193V68.868ZM280.125 72V53.208H284.733V56.34H284.913C285.297 55.332 285.897 54.492 286.713 53.82C287.553 53.124 288.705 52.776 290.169 52.776C292.113 52.776 293.601 53.412 294.633 54.684C295.665 55.956 296.181 57.768 296.181 60.12V72H291.573V60.588C291.573 59.244 291.333 58.236 290.853 57.564C290.373 56.892 289.581 56.556 288.477 56.556C287.997 56.556 287.529 56.628 287.073 56.772C286.641 56.892 286.245 57.084 285.885 57.348C285.549 57.588 285.273 57.9 285.057 58.284C284.841 58.644 284.733 59.076 284.733 59.58V72H280.125ZM303.593 50.472C302.633 50.472 301.937 50.256 301.505 49.824C301.097 49.392 300.893 48.84 300.893 48.168V47.448C300.893 46.776 301.097 46.224 301.505 45.792C301.937 45.36 302.633 45.144 303.593 45.144C304.529 45.144 305.213 45.36 305.645 45.792C306.077 46.224 306.293 46.776 306.293 47.448V48.168C306.293 48.84 306.077 49.392 305.645 49.824C305.213 50.256 304.529 50.472 303.593 50.472ZM301.289 53.208H305.897V72H301.289V53.208ZM318.654 72.432C317.262 72.432 316.026 72.204 314.946 71.748C313.866 71.292 312.954 70.632 312.21 69.768C311.49 68.904 310.938 67.872 310.554 66.672C310.17 65.448 309.978 64.08 309.978 62.568C309.978 61.056 310.17 59.7 310.554 58.5C310.938 57.3 311.49 56.28 312.21 55.44C312.954 54.576 313.866 53.916 314.946 53.46C316.026 53.004 317.262 52.776 318.654 52.776C320.55 52.776 322.11 53.196 323.334 54.036C324.582 54.876 325.482 56.04 326.034 57.528L322.254 59.22C322.038 58.428 321.63 57.78 321.03 57.276C320.454 56.748 319.662 56.484 318.654 56.484C317.358 56.484 316.386 56.892 315.738 57.708C315.114 58.524 314.802 59.592 314.802 60.912V64.332C314.802 65.652 315.114 66.72 315.738 67.536C316.386 68.328 317.358 68.724 318.654 68.724C319.758 68.724 320.61 68.448 321.21 67.896C321.81 67.32 322.278 66.612 322.614 65.772L326.142 67.464C325.518 69.12 324.57 70.368 323.298 71.208C322.026 72.024 320.478 72.432 318.654 72.432ZM343.519 72C342.511 72 341.707 71.712 341.107 71.136C340.531 70.536 340.171 69.744 340.027 68.76H339.811C339.499 69.984 338.863 70.908 337.903 71.532C336.943 72.132 335.755 72.432 334.339 72.432C332.419 72.432 330.943 71.928 329.911 70.92C328.879 69.912 328.363 68.568 328.363 66.888C328.363 64.944 329.059 63.504 330.451 62.568C331.843 61.608 333.823 61.128 336.391 61.128H339.595V59.76C339.595 58.704 339.319 57.888 338.767 57.312C338.215 56.736 337.327 56.448 336.103 56.448C335.023 56.448 334.147 56.688 333.475 57.168C332.827 57.624 332.275 58.176 331.819 58.824L329.083 56.376C329.779 55.296 330.703 54.432 331.855 53.784C333.007 53.112 334.531 52.776 336.427 52.776C338.971 52.776 340.903 53.352 342.223 54.504C343.543 55.656 344.203 57.312 344.203 59.472V68.328H346.075V72H343.519ZM335.887 69.084C336.919 69.084 337.795 68.856 338.515 68.4C339.235 67.944 339.595 67.272 339.595 66.384V63.9H336.643C334.243 63.9 333.043 64.668 333.043 66.204V66.816C333.043 67.584 333.283 68.16 333.763 68.544C334.267 68.904 334.975 69.084 335.887 69.084ZM355.532 72C353.948 72 352.736 71.592 351.896 70.776C351.08 69.936 350.672 68.748 350.672 67.212V56.88H347.9V53.208H349.34C350.036 53.208 350.504 53.052 350.744 52.74C351.008 52.404 351.14 51.912 351.14 51.264V48.06H355.28V53.208H359.132V56.88H355.28V68.328H358.844V72H355.532ZM370.584 72.432C369.192 72.432 367.944 72.204 366.84 71.748C365.76 71.268 364.836 70.608 364.068 69.768C363.324 68.904 362.748 67.872 362.34 66.672C361.932 65.448 361.728 64.08 361.728 62.568C361.728 61.08 361.92 59.736 362.304 58.536C362.712 57.336 363.288 56.316 364.032 55.476C364.776 54.612 365.688 53.952 366.768 53.496C367.848 53.016 369.072 52.776 370.44 52.776C371.904 52.776 373.176 53.028 374.256 53.532C375.336 54.036 376.224 54.72 376.92 55.584C377.616 56.448 378.132 57.456 378.468 58.608C378.828 59.736 379.008 60.948 379.008 62.244V63.756H366.516V64.224C366.516 65.592 366.9 66.696 367.668 67.536C368.436 68.352 369.576 68.76 371.088 68.76C372.24 68.76 373.176 68.52 373.896 68.04C374.64 67.56 375.3 66.948 375.876 66.204L378.36 68.976C377.592 70.056 376.536 70.908 375.192 71.532C373.872 72.132 372.336 72.432 370.584 72.432ZM370.512 56.232C369.288 56.232 368.316 56.64 367.596 57.456C366.876 58.272 366.516 59.328 366.516 60.624V60.912H374.22V60.588C374.22 59.292 373.896 58.248 373.248 57.456C372.624 56.64 371.712 56.232 370.512 56.232ZM406.474 69.696C406.114 70.008 405.706 70.332 405.25 70.668C404.794 70.98 404.266 71.268 403.666 71.532C403.09 71.796 402.43 72.012 401.686 72.18C400.966 72.348 400.15 72.432 399.238 72.432C397.894 72.432 396.694 72.252 395.638 71.892C394.606 71.532 393.742 71.04 393.046 70.416C392.35 69.792 391.822 69.06 391.462 68.22C391.102 67.356 390.922 66.432 390.922 65.448C390.922 64.56 391.054 63.78 391.318 63.108C391.582 62.412 391.942 61.788 392.398 61.236C392.854 60.66 393.394 60.156 394.018 59.724C394.642 59.268 395.302 58.836 395.998 58.428C395.254 57.588 394.594 56.676 394.018 55.692C393.466 54.684 393.19 53.604 393.19 52.452C393.19 51.636 393.358 50.868 393.694 50.148C394.03 49.404 394.51 48.756 395.134 48.204C395.782 47.652 396.55 47.22 397.438 46.908C398.326 46.596 399.322 46.44 400.426 46.44C401.41 46.44 402.322 46.572 403.162 46.836C404.002 47.1 404.722 47.472 405.322 47.952C405.946 48.432 406.426 49.02 406.762 49.716C407.122 50.412 407.302 51.204 407.302 52.092C407.302 52.884 407.158 53.616 406.87 54.288C406.606 54.936 406.234 55.536 405.754 56.088C405.274 56.616 404.722 57.12 404.098 57.6C403.474 58.056 402.802 58.488 402.082 58.896L406.474 63.648C406.81 62.832 407.062 61.968 407.23 61.056C407.422 60.144 407.542 59.232 407.59 58.32H413.242V62.172H410.902C410.542 63.804 409.99 65.292 409.246 66.636L414.214 72H408.562L406.474 69.696ZM400.282 50.004C399.514 50.004 398.878 50.232 398.374 50.688C397.87 51.12 397.618 51.708 397.618 52.452V52.704C397.618 53.256 397.786 53.808 398.122 54.36C398.482 54.888 399.034 55.572 399.778 56.412C400.69 55.86 401.434 55.284 402.01 54.684C402.61 54.084 402.91 53.388 402.91 52.596V52.38C402.91 51.612 402.646 51.024 402.118 50.616C401.614 50.208 401.002 50.004 400.282 50.004ZM399.85 68.58C400.714 68.58 401.494 68.448 402.19 68.184C402.886 67.92 403.498 67.56 404.026 67.104L398.302 60.912C397.462 61.416 396.802 61.956 396.322 62.532C395.866 63.084 395.638 63.792 395.638 64.656V65.052C395.638 66.108 395.998 66.96 396.718 67.608C397.438 68.256 398.482 68.58 399.85 68.58ZM435.786 72.432C434.13 72.432 432.63 72.168 431.286 71.64C429.966 71.088 428.826 70.272 427.866 69.192C426.93 68.112 426.21 66.78 425.706 65.196C425.202 63.588 424.95 61.728 424.95 59.616C424.95 57.504 425.202 55.632 425.706 54C426.21 52.344 426.93 50.964 427.866 49.86C428.826 48.732 429.966 47.88 431.286 47.304C432.63 46.728 434.13 46.44 435.786 46.44C438.042 46.44 439.914 46.92 441.402 47.88C442.89 48.84 444.078 50.292 444.966 52.236L440.898 54.396C440.538 53.268 439.95 52.368 439.134 51.696C438.318 51 437.202 50.652 435.786 50.652C434.01 50.652 432.594 51.252 431.538 52.452C430.506 53.652 429.99 55.332 429.99 57.492V61.452C429.99 63.636 430.506 65.316 431.538 66.492C432.594 67.644 434.01 68.22 435.786 68.22C437.202 68.22 438.354 67.836 439.242 67.068C440.154 66.3 440.814 65.352 441.222 64.224L445.074 66.492C444.162 68.364 442.95 69.828 441.438 70.884C439.926 71.916 438.042 72.432 435.786 72.432ZM456.292 72.432C454.948 72.432 453.736 72.204 452.656 71.748C451.6 71.292 450.688 70.632 449.92 69.768C449.176 68.904 448.6 67.872 448.192 66.672C447.784 65.448 447.58 64.08 447.58 62.568C447.58 61.056 447.784 59.7 448.192 58.5C448.6 57.3 449.176 56.28 449.92 55.44C450.688 54.576 451.6 53.916 452.656 53.46C453.736 53.004 454.948 52.776 456.292 52.776C457.636 52.776 458.848 53.004 459.928 53.46C461.008 53.916 461.92 54.576 462.664 55.44C463.432 56.28 464.02 57.3 464.428 58.5C464.836 59.7 465.04 61.056 465.04 62.568C465.04 64.08 464.836 65.448 464.428 66.672C464.02 67.872 463.432 68.904 462.664 69.768C461.92 70.632 461.008 71.292 459.928 71.748C458.848 72.204 457.636 72.432 456.292 72.432ZM456.292 68.724C457.516 68.724 458.476 68.352 459.172 67.608C459.868 66.864 460.216 65.772 460.216 64.332V60.84C460.216 59.424 459.868 58.344 459.172 57.6C458.476 56.856 457.516 56.484 456.292 56.484C455.092 56.484 454.144 56.856 453.448 57.6C452.752 58.344 452.404 59.424 452.404 60.84V64.332C452.404 65.772 452.752 66.864 453.448 67.608C454.144 68.352 455.092 68.724 456.292 68.724ZM473.733 72C472.149 72 470.985 71.604 470.241 70.812C469.497 70.02 469.125 68.904 469.125 67.464V45.36H473.733V68.328H476.217V72H473.733ZM484.069 72C482.485 72 481.321 71.604 480.577 70.812C479.833 70.02 479.461 68.904 479.461 67.464V45.36H484.069V68.328H486.553V72H484.069ZM503.867 72C502.859 72 502.055 71.712 501.455 71.136C500.879 70.536 500.519 69.744 500.375 68.76H500.159C499.847 69.984 499.211 70.908 498.251 71.532C497.291 72.132 496.103 72.432 494.687 72.432C492.767 72.432 491.291 71.928 490.259 70.92C489.227 69.912 488.711 68.568 488.711 66.888C488.711 64.944 489.407 63.504 490.799 62.568C492.191 61.608 494.171 61.128 496.739 61.128H499.943V59.76C499.943 58.704 499.667 57.888 499.115 57.312C498.563 56.736 497.675 56.448 496.451 56.448C495.371 56.448 494.495 56.688 493.823 57.168C493.175 57.624 492.623 58.176 492.167 58.824L489.431 56.376C490.127 55.296 491.051 54.432 492.203 53.784C493.355 53.112 494.879 52.776 496.775 52.776C499.319 52.776 501.251 53.352 502.571 54.504C503.891 55.656 504.551 57.312 504.551 59.472V68.328H506.423V72H503.867ZM496.235 69.084C497.267 69.084 498.143 68.856 498.863 68.4C499.583 67.944 499.943 67.272 499.943 66.384V63.9H496.991C494.591 63.9 493.391 64.668 493.391 66.204V66.816C493.391 67.584 493.631 68.16 494.111 68.544C494.615 68.904 495.323 69.084 496.235 69.084ZM510.152 45.36H514.76V56.304H514.904C515.24 55.224 515.876 54.372 516.812 53.748C517.748 53.1 518.84 52.776 520.088 52.776C522.488 52.776 524.312 53.628 525.56 55.332C526.832 57.012 527.468 59.424 527.468 62.568C527.468 65.736 526.832 68.172 525.56 69.876C524.312 71.58 522.488 72.432 520.088 72.432C518.84 72.432 517.748 72.108 516.812 71.46C515.9 70.812 515.264 69.948 514.904 68.868H514.76V72H510.152V45.36ZM518.612 68.616C519.812 68.616 520.784 68.22 521.528 67.428C522.272 66.636 522.644 65.568 522.644 64.224V60.984C522.644 59.64 522.272 58.572 521.528 57.78C520.784 56.964 519.812 56.556 518.612 56.556C517.508 56.556 516.584 56.832 515.84 57.384C515.12 57.936 514.76 58.668 514.76 59.58V65.556C514.76 66.54 515.12 67.296 515.84 67.824C516.584 68.352 517.508 68.616 518.612 68.616ZM539.19 72.432C537.846 72.432 536.634 72.204 535.554 71.748C534.498 71.292 533.586 70.632 532.818 69.768C532.074 68.904 531.498 67.872 531.09 66.672C530.682 65.448 530.478 64.08 530.478 62.568C530.478 61.056 530.682 59.7 531.09 58.5C531.498 57.3 532.074 56.28 532.818 55.44C533.586 54.576 534.498 53.916 535.554 53.46C536.634 53.004 537.846 52.776 539.19 52.776C540.534 52.776 541.746 53.004 542.826 53.46C543.906 53.916 544.818 54.576 545.562 55.44C546.33 56.28 546.918 57.3 547.326 58.5C547.734 59.7 547.938 61.056 547.938 62.568C547.938 64.08 547.734 65.448 547.326 66.672C546.918 67.872 546.33 68.904 545.562 69.768C544.818 70.632 543.906 71.292 542.826 71.748C541.746 72.204 540.534 72.432 539.19 72.432ZM539.19 68.724C540.414 68.724 541.374 68.352 542.07 67.608C542.766 66.864 543.114 65.772 543.114 64.332V60.84C543.114 59.424 542.766 58.344 542.07 57.6C541.374 56.856 540.414 56.484 539.19 56.484C537.99 56.484 537.042 56.856 536.346 57.6C535.65 58.344 535.302 59.424 535.302 60.84V64.332C535.302 65.772 535.65 66.864 536.346 67.608C537.042 68.352 537.99 68.724 539.19 68.724ZM552.023 72V53.208H556.631V57.096H556.811C556.931 56.592 557.111 56.112 557.351 55.656C557.615 55.176 557.951 54.756 558.359 54.396C558.767 54.036 559.247 53.748 559.799 53.532C560.375 53.316 561.035 53.208 561.779 53.208H562.787V57.564H561.347C559.787 57.564 558.611 57.792 557.819 58.248C557.027 58.704 556.631 59.448 556.631 60.48V72H552.023ZM579.593 72C578.585 72 577.781 71.712 577.181 71.136C576.605 70.536 576.245 69.744 576.101 68.76H575.885C575.573 69.984 574.937 70.908 573.977 71.532C573.017 72.132 571.829 72.432 570.413 72.432C568.493 72.432 567.017 71.928 565.985 70.92C564.953 69.912 564.437 68.568 564.437 66.888C564.437 64.944 565.133 63.504 566.525 62.568C567.917 61.608 569.897 61.128 572.465 61.128H575.669V59.76C575.669 58.704 575.393 57.888 574.841 57.312C574.289 56.736 573.401 56.448 572.177 56.448C571.097 56.448 570.221 56.688 569.549 57.168C568.901 57.624 568.349 58.176 567.893 58.824L565.157 56.376C565.853 55.296 566.777 54.432 567.929 53.784C569.081 53.112 570.605 52.776 572.501 52.776C575.045 52.776 576.977 53.352 578.297 54.504C579.617 55.656 580.277 57.312 580.277 59.472V68.328H582.149V72H579.593ZM571.961 69.084C572.993 69.084 573.869 68.856 574.589 68.4C575.309 67.944 575.669 67.272 575.669 66.384V63.9H572.717C570.317 63.9 569.117 64.668 569.117 66.204V66.816C569.117 67.584 569.357 68.16 569.837 68.544C570.341 68.904 571.049 69.084 571.961 69.084ZM591.606 72C590.022 72 588.81 71.592 587.97 70.776C587.154 69.936 586.746 68.748 586.746 67.212V56.88H583.974V53.208H585.414C586.11 53.208 586.578 53.052 586.818 52.74C587.082 52.404 587.214 51.912 587.214 51.264V48.06H591.354V53.208H595.206V56.88H591.354V68.328H594.918V72H591.606ZM606.658 72.432C605.266 72.432 604.018 72.204 602.914 71.748C601.834 71.268 600.91 70.608 600.142 69.768C599.398 68.904 598.822 67.872 598.414 66.672C598.006 65.448 597.802 64.08 597.802 62.568C597.802 61.08 597.994 59.736 598.378 58.536C598.786 57.336 599.362 56.316 600.106 55.476C600.85 54.612 601.762 53.952 602.842 53.496C603.922 53.016 605.146 52.776 606.514 52.776C607.978 52.776 609.25 53.028 610.33 53.532C611.41 54.036 612.298 54.72 612.994 55.584C613.69 56.448 614.206 57.456 614.542 58.608C614.902 59.736 615.082 60.948 615.082 62.244V63.756H602.59V64.224C602.59 65.592 602.974 66.696 603.742 67.536C604.51 68.352 605.65 68.76 607.162 68.76C608.314 68.76 609.25 68.52 609.97 68.04C610.714 67.56 611.374 66.948 611.95 66.204L614.434 68.976C613.666 70.056 612.61 70.908 611.266 71.532C609.946 72.132 608.41 72.432 606.658 72.432ZM606.586 56.232C605.362 56.232 604.39 56.64 603.67 57.456C602.95 58.272 602.59 59.328 602.59 60.624V60.912H610.294V60.588C610.294 59.292 609.97 58.248 609.322 57.456C608.698 56.64 607.786 56.232 606.586 56.232Z" fill="white"/>
<path d="M109.125 37.1973H72.7951C70.223 37.1973 68.1137 39.1731 67.9179 41.6918C67.909 41.8164 67.9001 41.9499 67.9001 42.0834V43.0268V44.3618V66.2647C67.9001 68.9614 70.0895 71.1508 72.7951 71.1508H88.1565H88.4146H90.0433H90.96L103.046 81.9732L102.441 71.1508H109.125C111.831 71.1508 114.02 68.9614 114.02 66.2647V42.0834C114.02 39.3867 111.831 37.1973 109.125 37.1973Z" fill="white"/>
<path d="M72.7952 72.4857C69.3598 72.4857 66.5652 69.6911 66.5652 66.2646V44.3617V43.0267H47.8752C45.1696 43.0267 42.9802 45.2161 42.9802 47.9217V72.0941C42.9802 74.7997 45.1696 76.9891 47.8752 76.9891H66.0401L78.1263 87.8026L77.5211 76.9891H84.205C86.7771 76.9891 88.8864 75.0133 89.0822 72.4857H87.7472H72.7952Z" fill="white"/>
</g>
<defs>
<linearGradient id="paint0_linear_949_97" x1="8.43608e-06" y1="48.555" x2="1346" y2="48.555" gradientUnits="userSpaceOnUse">
<stop stop-color="#CC2131"/>
<stop offset="0.541667" stop-color="#004A8D"/>
<stop offset="1" stop-color="#57A88E"/>
</linearGradient>
<clipPath id="clip0_949_97">
<rect width="1346" height="113" rx="30" fill="white"/>
</clipPath>
</defs>
</svg>
