<svg width="436" height="121" viewBox="0 0 436 121" fill="none" xmlns="http://www.w3.org/2000/svg">
<rect width="436" height="121" rx="30" fill="#F4F3F3"/>
<circle cx="78.1755" cy="60.1755" r="40.1755" fill="black"/>
<path d="M61.7599 65.0798C60.9799 63.4598 60.5599 61.8398 60.2599 60.6398C59.8999 59.1398 59.6599 57.6398 59.5399 56.0798C59.4799 55.8998 59.4799 55.6598 59.4799 55.4798C59.4799 55.2998 59.4799 55.0598 59.4799 54.8798L59.2999 54.9398C58.6399 55.1198 57.7999 55.2998 56.7199 55.8398C55.9999 56.1998 55.2199 56.5598 54.5599 57.3998C53.8999 58.1798 53.5399 59.1398 53.4199 60.2798C53.2399 62.2598 54.0799 63.6998 54.4999 64.4198C54.9799 65.1998 55.5799 66.1598 56.7799 66.6998C57.6799 67.0598 58.4599 66.9998 59.2399 66.9398C59.9599 66.8798 60.4399 66.7598 60.9199 66.5798C61.3399 66.4598 61.6999 66.3398 62.3599 66.2798C62.2399 66.0998 62.1199 65.8598 62.0599 65.6198C61.9399 65.4398 61.8199 65.2598 61.7599 65.0798Z" fill="white"/>
<path d="M82.3401 39.9999L82.2801 40.0599L81.8601 40.4799C81.6201 40.7199 81.4401 40.9599 81.2001 41.1399C80.0001 42.2799 78.8001 43.4199 77.5401 44.4999C75.9801 45.8799 74.6601 47.0199 72.6801 48.3399C71.4201 49.1799 70.2801 49.7799 68.0001 51.0399C66.3801 51.8799 65.3601 52.4799 63.8601 53.1399L63.3201 53.3799C62.5401 53.7399 61.8801 54.0399 61.3401 54.2799V55.5999C61.4601 57.1599 61.7001 58.7199 62.0601 60.2199C62.4201 61.5999 62.8401 63.3399 63.7401 65.0199C63.8601 65.1999 63.9801 65.4399 64.1001 65.6199C64.2201 65.7999 64.3401 66.0399 64.5201 66.2199C65.8401 66.2799 67.3401 66.1599 69.0801 65.9799C70.8201 65.7999 72.8601 65.6199 75.0201 65.6199C79.3401 65.6199 86.8401 67.7799 89.1201 68.1399C89.2401 62.7999 88.5801 57.4599 87.2001 52.2399C86.1201 47.9199 84.4401 43.7799 82.3401 39.9999Z" fill="white"/>
<path d="M93.56 40.5999C93.08 40.3599 92.6 40.5999 92.36 41.0199C92.12 41.4999 92.36 41.9799 92.78 42.2199C96.98 44.1999 99.68 48.6999 99.68 53.7399C99.68 56.3199 99.02 58.6599 97.76 60.6999C97.52 61.1199 97.64 61.6599 98.06 61.9599C98.18 62.0199 98.36 62.0799 98.54 62.0799C98.84 62.0799 99.14 61.8999 99.32 61.6599C100.76 59.3199 101.48 56.6199 101.48 53.7399C101.48 48.0399 98.36 42.8799 93.56 40.5999Z" fill="white"/>
<path d="M91.8801 44.8001C91.4001 44.6201 90.9201 44.8001 90.6801 45.2201C90.5001 45.7001 90.6801 46.1801 91.1001 46.4201C93.7401 47.6201 95.4801 50.5601 95.4801 53.7401C95.4801 55.6001 94.8801 57.4001 93.8601 58.7801C93.5601 59.2001 93.6201 59.7401 94.0401 60.0401C94.2201 60.1601 94.4001 60.2201 94.5801 60.2201C94.8801 60.2201 95.1201 60.1001 95.3001 59.8601C96.5601 58.1801 97.2801 56.0201 97.2801 53.7401C97.3401 49.8401 95.2401 46.3601 91.8801 44.8001Z" fill="white"/>
<path d="M78.7401 77.9801C78.6801 77.8001 78.5601 77.5601 78.4401 77.2001C78.3801 77.0201 78.2601 76.7801 78.2001 76.5401C77.4801 74.5001 77.5401 73.9601 77.5401 73.7201C77.5401 73.3001 77.6601 72.9401 77.9001 72.1001C78.0201 71.6801 78.0801 71.3801 78.2001 71.0801C78.3801 70.5401 78.5601 70.1201 78.6201 69.5801C78.6201 69.4001 78.6201 69.1601 78.6201 68.9201C78.6201 68.5001 78.5001 68.0201 78.3801 67.6001C77.3601 67.4801 76.4601 67.4201 75.6201 67.4201C73.4601 67.4201 71.4201 67.6001 69.6801 67.7801C67.9401 67.9601 66.4401 68.0801 65.1201 68.0201L65.6001 68.8001C65.6601 68.9201 65.9001 69.4601 66.2601 70.2401C67.5801 73.1801 70.4001 79.5401 71.1201 80.5601C72.0201 81.8201 72.7401 82.1801 73.2201 82.3601C73.6401 82.5401 74.0601 82.6001 74.5401 82.6001C75.0801 82.6001 75.6201 82.4801 76.2201 82.2401C77.6601 81.7001 78.5601 80.8001 78.8601 79.7201C78.9201 79.4801 78.9201 79.2401 78.9201 79.0001C78.9201 78.7001 78.8001 78.4001 78.7401 77.9801Z" fill="white"/>
<path d="M84.9199 38.2C84.6799 37.78 84.1399 37.6 83.7199 37.84C83.2999 38.08 83.1199 38.62 83.3599 39.04C85.5199 42.94 87.2599 47.14 88.4599 51.64C89.9599 57.1 90.5599 62.74 90.3199 68.38C90.3199 68.86 90.6799 69.28 91.1599 69.34C91.1599 69.34 91.1599 69.34 91.2199 69.34C91.6999 69.34 92.1199 68.98 92.1199 68.5C92.3599 62.74 91.6999 56.92 90.1999 51.28C88.9399 46.54 87.1999 42.22 84.9199 38.2Z" fill="white"/>
<path d="M154.472 53.288C153.368 53.288 152.368 53.112 151.472 52.76C150.592 52.392 149.832 51.848 149.192 51.128C148.568 50.408 148.088 49.52 147.752 48.464C147.416 47.392 147.248 46.152 147.248 44.744C147.248 43.336 147.416 42.088 147.752 41C148.088 39.896 148.568 38.976 149.192 38.24C149.832 37.488 150.592 36.92 151.472 36.536C152.368 36.152 153.368 35.96 154.472 35.96C155.976 35.96 157.224 36.28 158.216 36.92C159.208 37.56 160 38.528 160.592 39.824L157.88 41.264C157.64 40.512 157.248 39.912 156.704 39.464C156.16 39 155.416 38.768 154.472 38.768C153.288 38.768 152.344 39.168 151.64 39.968C150.952 40.768 150.608 41.888 150.608 43.328V45.968C150.608 47.424 150.952 48.544 151.64 49.328C152.344 50.096 153.288 50.48 154.472 50.48C155.416 50.48 156.184 50.224 156.776 49.712C157.384 49.2 157.824 48.568 158.096 47.816L160.664 49.328C160.056 50.576 159.248 51.552 158.24 52.256C157.232 52.944 155.976 53.288 154.472 53.288ZM168.142 53.288C167.246 53.288 166.438 53.136 165.718 52.832C165.014 52.528 164.406 52.088 163.894 51.512C163.398 50.936 163.014 50.248 162.742 49.448C162.47 48.632 162.334 47.72 162.334 46.712C162.334 45.704 162.47 44.8 162.742 44C163.014 43.2 163.398 42.52 163.894 41.96C164.406 41.384 165.014 40.944 165.718 40.64C166.438 40.336 167.246 40.184 168.142 40.184C169.038 40.184 169.846 40.336 170.566 40.64C171.286 40.944 171.894 41.384 172.39 41.96C172.902 42.52 173.294 43.2 173.566 44C173.838 44.8 173.974 45.704 173.974 46.712C173.974 47.72 173.838 48.632 173.566 49.448C173.294 50.248 172.902 50.936 172.39 51.512C171.894 52.088 171.286 52.528 170.566 52.832C169.846 53.136 169.038 53.288 168.142 53.288ZM168.142 50.816C168.958 50.816 169.598 50.568 170.062 50.072C170.526 49.576 170.758 48.848 170.758 47.888V45.56C170.758 44.616 170.526 43.896 170.062 43.4C169.598 42.904 168.958 42.656 168.142 42.656C167.342 42.656 166.71 42.904 166.246 43.4C165.782 43.896 165.55 44.616 165.55 45.56V47.888C165.55 48.848 165.782 49.576 166.246 50.072C166.71 50.568 167.342 50.816 168.142 50.816ZM184.186 50.912H184.066C183.954 51.232 183.802 51.536 183.61 51.824C183.434 52.096 183.202 52.344 182.914 52.568C182.642 52.792 182.306 52.968 181.906 53.096C181.522 53.224 181.074 53.288 180.562 53.288C179.266 53.288 178.274 52.864 177.586 52.016C176.898 51.168 176.554 49.96 176.554 48.392V40.472H179.626V48.08C179.626 48.944 179.794 49.608 180.13 50.072C180.466 50.52 181.002 50.744 181.738 50.744C182.042 50.744 182.338 50.704 182.626 50.624C182.93 50.544 183.194 50.424 183.418 50.264C183.642 50.088 183.826 49.88 183.97 49.64C184.114 49.384 184.186 49.088 184.186 48.752V40.472H187.258V53H184.186V50.912ZM190.807 53V40.472H193.879V43.064H193.999C194.079 42.728 194.199 42.408 194.359 42.104C194.535 41.784 194.759 41.504 195.031 41.264C195.303 41.024 195.623 40.832 195.991 40.688C196.375 40.544 196.815 40.472 197.311 40.472H197.983V43.376H197.023C195.983 43.376 195.199 43.528 194.671 43.832C194.143 44.136 193.879 44.632 193.879 45.32V53H190.807ZM204.333 53.288C203.133 53.288 202.125 53.088 201.309 52.688C200.493 52.272 199.773 51.704 199.149 50.984L201.021 49.16C201.485 49.688 201.989 50.104 202.533 50.408C203.093 50.712 203.733 50.864 204.453 50.864C205.189 50.864 205.717 50.736 206.037 50.48C206.373 50.224 206.541 49.872 206.541 49.424C206.541 49.056 206.421 48.768 206.181 48.56C205.957 48.336 205.565 48.184 205.005 48.104L203.757 47.936C202.397 47.76 201.357 47.376 200.637 46.784C199.933 46.176 199.581 45.296 199.581 44.144C199.581 43.536 199.693 42.992 199.917 42.512C200.141 42.016 200.461 41.6 200.877 41.264C201.293 40.912 201.789 40.648 202.365 40.472C202.957 40.28 203.613 40.184 204.333 40.184C204.941 40.184 205.477 40.232 205.941 40.328C206.421 40.408 206.853 40.536 207.237 40.712C207.621 40.872 207.973 41.08 208.293 41.336C208.613 41.576 208.925 41.848 209.229 42.152L207.429 43.952C207.061 43.568 206.621 43.248 206.109 42.992C205.597 42.736 205.037 42.608 204.429 42.608C203.757 42.608 203.269 42.728 202.965 42.968C202.677 43.208 202.533 43.52 202.533 43.904C202.533 44.32 202.653 44.64 202.893 44.864C203.149 45.072 203.573 45.224 204.165 45.32L205.437 45.488C208.141 45.872 209.493 47.104 209.493 49.184C209.493 49.792 209.365 50.352 209.109 50.864C208.869 51.36 208.525 51.792 208.077 52.16C207.629 52.512 207.085 52.792 206.445 53C205.821 53.192 205.117 53.288 204.333 53.288ZM217.27 53.288C216.342 53.288 215.51 53.136 214.774 52.832C214.054 52.512 213.438 52.072 212.926 51.512C212.43 50.936 212.046 50.248 211.774 49.448C211.502 48.632 211.366 47.72 211.366 46.712C211.366 45.72 211.494 44.824 211.75 44.024C212.022 43.224 212.406 42.544 212.902 41.984C213.398 41.408 214.006 40.968 214.726 40.664C215.446 40.344 216.262 40.184 217.174 40.184C218.15 40.184 218.998 40.352 219.718 40.688C220.438 41.024 221.03 41.48 221.494 42.056C221.958 42.632 222.302 43.304 222.526 44.072C222.766 44.824 222.886 45.632 222.886 46.496V47.504H214.558V47.816C214.558 48.728 214.814 49.464 215.326 50.024C215.838 50.568 216.598 50.84 217.606 50.84C218.374 50.84 218.998 50.68 219.478 50.36C219.974 50.04 220.414 49.632 220.798 49.136L222.454 50.984C221.942 51.704 221.238 52.272 220.342 52.688C219.462 53.088 218.438 53.288 217.27 53.288ZM217.222 42.488C216.406 42.488 215.758 42.76 215.278 43.304C214.798 43.848 214.558 44.552 214.558 45.416V45.608H219.694V45.392C219.694 44.528 219.478 43.832 219.046 43.304C218.63 42.76 218.022 42.488 217.222 42.488ZM158.336 84L156.992 79.728H151.04L149.72 84H146.504L152.12 67.248H156.056L161.624 84H158.336ZM154.064 70.128H153.944L151.808 77.016H156.224L154.064 70.128ZM163.901 84V71.472H166.973V73.56H167.093C167.349 72.888 167.749 72.328 168.293 71.88C168.853 71.416 169.621 71.184 170.597 71.184C171.893 71.184 172.885 71.608 173.573 72.456C174.261 73.304 174.605 74.512 174.605 76.08V84H171.533V76.392C171.533 75.496 171.373 74.824 171.053 74.376C170.733 73.928 170.205 73.704 169.469 73.704C169.149 73.704 168.837 73.752 168.533 73.848C168.245 73.928 167.981 74.056 167.741 74.232C167.517 74.392 167.333 74.6 167.189 74.856C167.045 75.096 166.973 75.384 166.973 75.72V84H163.901ZM178.01 84V71.472H181.082V73.56H181.202C181.458 72.888 181.858 72.328 182.402 71.88C182.962 71.416 183.73 71.184 184.706 71.184C186.002 71.184 186.994 71.608 187.682 72.456C188.37 73.304 188.714 74.512 188.714 76.08V84H185.642V76.392C185.642 75.496 185.482 74.824 185.162 74.376C184.842 73.928 184.314 73.704 183.578 73.704C183.258 73.704 182.946 73.752 182.642 73.848C182.354 73.928 182.09 74.056 181.85 74.232C181.626 74.392 181.442 74.6 181.298 74.856C181.154 75.096 181.082 75.384 181.082 75.72V84H178.01ZM197.088 84.288C196.192 84.288 195.384 84.136 194.664 83.832C193.96 83.528 193.352 83.088 192.84 82.512C192.344 81.936 191.96 81.248 191.688 80.448C191.416 79.632 191.28 78.72 191.28 77.712C191.28 76.704 191.416 75.8 191.688 75C191.96 74.2 192.344 73.52 192.84 72.96C193.352 72.384 193.96 71.944 194.664 71.64C195.384 71.336 196.192 71.184 197.088 71.184C197.984 71.184 198.792 71.336 199.512 71.64C200.232 71.944 200.84 72.384 201.336 72.96C201.848 73.52 202.24 74.2 202.512 75C202.784 75.8 202.92 76.704 202.92 77.712C202.92 78.72 202.784 79.632 202.512 80.448C202.24 81.248 201.848 81.936 201.336 82.512C200.84 83.088 200.232 83.528 199.512 83.832C198.792 84.136 197.984 84.288 197.088 84.288ZM197.088 81.816C197.904 81.816 198.544 81.568 199.008 81.072C199.472 80.576 199.704 79.848 199.704 78.888V76.56C199.704 75.616 199.472 74.896 199.008 74.4C198.544 73.904 197.904 73.656 197.088 73.656C196.288 73.656 195.656 73.904 195.192 74.4C194.728 74.896 194.496 75.616 194.496 76.56V78.888C194.496 79.848 194.728 80.576 195.192 81.072C195.656 81.568 196.288 81.816 197.088 81.816ZM213.131 81.912H213.011C212.899 82.232 212.747 82.536 212.555 82.824C212.379 83.096 212.147 83.344 211.859 83.568C211.587 83.792 211.251 83.968 210.851 84.096C210.467 84.224 210.019 84.288 209.507 84.288C208.211 84.288 207.219 83.864 206.531 83.016C205.843 82.168 205.499 80.96 205.499 79.392V71.472H208.571V79.08C208.571 79.944 208.739 80.608 209.075 81.072C209.411 81.52 209.947 81.744 210.683 81.744C210.987 81.744 211.283 81.704 211.571 81.624C211.875 81.544 212.139 81.424 212.363 81.264C212.587 81.088 212.771 80.88 212.915 80.64C213.059 80.384 213.131 80.088 213.131 79.752V71.472H216.203V84H213.131V81.912ZM219.753 84V71.472H222.825V73.56H222.945C223.201 72.888 223.601 72.328 224.145 71.88C224.705 71.416 225.473 71.184 226.449 71.184C227.745 71.184 228.737 71.608 229.425 72.456C230.113 73.304 230.457 74.512 230.457 76.08V84H227.385V76.392C227.385 75.496 227.225 74.824 226.905 74.376C226.585 73.928 226.057 73.704 225.321 73.704C225.001 73.704 224.689 73.752 224.385 73.848C224.097 73.928 223.833 74.056 223.593 74.232C223.369 74.392 223.185 74.6 223.041 74.856C222.897 75.096 222.825 75.384 222.825 75.72V84H219.753ZM238.806 84.288C237.878 84.288 237.054 84.136 236.334 83.832C235.614 83.528 235.006 83.088 234.51 82.512C234.03 81.936 233.662 81.248 233.406 80.448C233.15 79.632 233.022 78.72 233.022 77.712C233.022 76.704 233.15 75.8 233.406 75C233.662 74.2 234.03 73.52 234.51 72.96C235.006 72.384 235.614 71.944 236.334 71.64C237.054 71.336 237.878 71.184 238.806 71.184C240.07 71.184 241.11 71.464 241.926 72.024C242.758 72.584 243.358 73.36 243.726 74.352L241.206 75.48C241.062 74.952 240.79 74.52 240.39 74.184C240.006 73.832 239.478 73.656 238.806 73.656C237.942 73.656 237.294 73.928 236.862 74.472C236.446 75.016 236.238 75.728 236.238 76.608V78.888C236.238 79.768 236.446 80.48 236.862 81.024C237.294 81.552 237.942 81.816 238.806 81.816C239.542 81.816 240.11 81.632 240.51 81.264C240.91 80.88 241.222 80.408 241.446 79.848L243.798 80.976C243.382 82.08 242.75 82.912 241.902 83.472C241.054 84.016 240.022 84.288 238.806 84.288ZM251.113 84.288C250.185 84.288 249.353 84.136 248.617 83.832C247.897 83.512 247.281 83.072 246.769 82.512C246.273 81.936 245.889 81.248 245.617 80.448C245.345 79.632 245.209 78.72 245.209 77.712C245.209 76.72 245.337 75.824 245.593 75.024C245.865 74.224 246.249 73.544 246.745 72.984C247.241 72.408 247.849 71.968 248.569 71.664C249.289 71.344 250.105 71.184 251.017 71.184C251.993 71.184 252.841 71.352 253.561 71.688C254.281 72.024 254.873 72.48 255.337 73.056C255.801 73.632 256.145 74.304 256.369 75.072C256.609 75.824 256.729 76.632 256.729 77.496V78.504H248.401V78.816C248.401 79.728 248.657 80.464 249.169 81.024C249.681 81.568 250.441 81.84 251.449 81.84C252.217 81.84 252.841 81.68 253.321 81.36C253.817 81.04 254.257 80.632 254.641 80.136L256.297 81.984C255.785 82.704 255.081 83.272 254.185 83.688C253.305 84.088 252.281 84.288 251.113 84.288ZM251.065 73.488C250.249 73.488 249.601 73.76 249.121 74.304C248.641 74.848 248.401 75.552 248.401 76.416V76.608H253.537V76.392C253.537 75.528 253.321 74.832 252.889 74.304C252.473 73.76 251.865 73.488 251.065 73.488ZM259.432 84V71.472H262.504V73.56H262.624C262.864 72.904 263.248 72.344 263.776 71.88C264.304 71.416 265.04 71.184 265.984 71.184C266.848 71.184 267.592 71.392 268.216 71.808C268.84 72.224 269.304 72.856 269.608 73.704H269.656C269.88 73 270.32 72.408 270.976 71.928C271.648 71.432 272.488 71.184 273.496 71.184C274.728 71.184 275.672 71.608 276.328 72.456C277 73.304 277.336 74.512 277.336 76.08V84H274.264V76.392C274.264 74.6 273.592 73.704 272.248 73.704C271.944 73.704 271.648 73.752 271.36 73.848C271.088 73.928 270.84 74.056 270.616 74.232C270.408 74.392 270.24 74.6 270.112 74.856C269.984 75.096 269.92 75.384 269.92 75.72V84H266.848V76.392C266.848 74.6 266.176 73.704 264.832 73.704C264.544 73.704 264.256 73.752 263.968 73.848C263.696 73.928 263.448 74.056 263.224 74.232C263.016 74.392 262.84 74.6 262.696 74.856C262.568 75.096 262.504 75.384 262.504 75.72V84H259.432ZM285.801 84.288C284.873 84.288 284.041 84.136 283.305 83.832C282.585 83.512 281.969 83.072 281.457 82.512C280.961 81.936 280.577 81.248 280.305 80.448C280.033 79.632 279.897 78.72 279.897 77.712C279.897 76.72 280.025 75.824 280.281 75.024C280.553 74.224 280.937 73.544 281.433 72.984C281.929 72.408 282.537 71.968 283.257 71.664C283.977 71.344 284.793 71.184 285.705 71.184C286.681 71.184 287.529 71.352 288.249 71.688C288.969 72.024 289.561 72.48 290.025 73.056C290.489 73.632 290.833 74.304 291.057 75.072C291.297 75.824 291.417 76.632 291.417 77.496V78.504H283.089V78.816C283.089 79.728 283.345 80.464 283.857 81.024C284.369 81.568 285.129 81.84 286.137 81.84C286.905 81.84 287.529 81.68 288.009 81.36C288.505 81.04 288.945 80.632 289.329 80.136L290.985 81.984C290.473 82.704 289.769 83.272 288.873 83.688C287.993 84.088 286.969 84.288 285.801 84.288ZM285.753 73.488C284.937 73.488 284.289 73.76 283.809 74.304C283.329 74.848 283.089 75.552 283.089 76.416V76.608H288.225V76.392C288.225 75.528 288.009 74.832 287.577 74.304C287.161 73.76 286.553 73.488 285.753 73.488ZM294.12 84V71.472H297.192V73.56H297.312C297.568 72.888 297.968 72.328 298.512 71.88C299.072 71.416 299.84 71.184 300.816 71.184C302.112 71.184 303.104 71.608 303.792 72.456C304.48 73.304 304.824 74.512 304.824 76.08V84H301.752V76.392C301.752 75.496 301.592 74.824 301.272 74.376C300.952 73.928 300.424 73.704 299.688 73.704C299.368 73.704 299.056 73.752 298.752 73.848C298.464 73.928 298.2 74.056 297.96 74.232C297.736 74.392 297.552 74.6 297.408 74.856C297.264 75.096 297.192 75.384 297.192 75.72V84H294.12ZM312.141 84C311.085 84 310.277 83.728 309.717 83.184C309.173 82.624 308.901 81.832 308.901 80.808V73.92H307.053V71.472H308.013C308.477 71.472 308.789 71.368 308.949 71.16C309.125 70.936 309.213 70.608 309.213 70.176V68.04H311.973V71.472H314.541V73.92H311.973V81.552H314.349V84H312.141ZM321.31 84.288C320.11 84.288 319.102 84.088 318.286 83.688C317.47 83.272 316.75 82.704 316.126 81.984L317.998 80.16C318.462 80.688 318.966 81.104 319.51 81.408C320.07 81.712 320.71 81.864 321.43 81.864C322.166 81.864 322.694 81.736 323.014 81.48C323.35 81.224 323.518 80.872 323.518 80.424C323.518 80.056 323.398 79.768 323.158 79.56C322.934 79.336 322.542 79.184 321.982 79.104L320.734 78.936C319.374 78.76 318.334 78.376 317.614 77.784C316.91 77.176 316.558 76.296 316.558 75.144C316.558 74.536 316.67 73.992 316.894 73.512C317.118 73.016 317.438 72.6 317.854 72.264C318.27 71.912 318.766 71.648 319.342 71.472C319.934 71.28 320.59 71.184 321.31 71.184C321.918 71.184 322.454 71.232 322.918 71.328C323.398 71.408 323.83 71.536 324.214 71.712C324.598 71.872 324.95 72.08 325.27 72.336C325.59 72.576 325.902 72.848 326.206 73.152L324.406 74.952C324.038 74.568 323.598 74.248 323.086 73.992C322.574 73.736 322.014 73.608 321.406 73.608C320.734 73.608 320.246 73.728 319.942 73.968C319.654 74.208 319.51 74.52 319.51 74.904C319.51 75.32 319.63 75.64 319.87 75.864C320.126 76.072 320.55 76.224 321.142 76.32L322.414 76.488C325.118 76.872 326.47 78.104 326.47 80.184C326.47 80.792 326.342 81.352 326.086 81.864C325.846 82.36 325.502 82.792 325.054 83.16C324.606 83.512 324.062 83.792 323.422 84C322.798 84.192 322.094 84.288 321.31 84.288Z" fill="black"/>
</svg>
