<svg width="436" height="121" viewBox="0 0 436 121" fill="none" xmlns="http://www.w3.org/2000/svg">
<rect width="436" height="121" rx="30" fill="#F4F3F3"/>
<ellipse cx="77.2891" cy="60.1755" rx="39.72" ry="40.1755" fill="#57A88E"/>
<path d="M77.8591 63.16H74.0152C73.4457 63.16 72.9712 63.64 72.9712 64.216V67C72.9712 67.576 73.4457 68.056 74.0152 68.056H77.8591C78.4286 68.056 78.9032 67.576 78.9032 67V64.216C78.8557 63.64 78.4286 63.16 77.8591 63.16Z" fill="white"/>
<path d="M62.1038 71.848C61.2496 71.848 60.5852 71.176 60.5852 70.312V51.736H91.2891V60.568C92.3331 60.616 93.3772 60.808 94.3737 61.048V46.696C94.3737 44.152 92.3331 42.04 89.7705 42.04H86.4486V39.544C86.4486 38.776 85.8317 38.2 85.1198 38.2H81.7505C80.9912 38.2 80.4217 38.824 80.4217 39.544V41.992H71.5V39.544C71.5 38.776 70.8831 38.2 70.1713 38.2H66.7545C65.9952 38.2 65.3782 38.824 65.3782 39.544V41.992H62.0563C59.5412 41.992 57.4531 44.056 57.4531 46.648V70.264C57.4531 72.808 59.4937 74.92 62.0563 74.92H77.7167C77.6693 74.536 77.6693 74.104 77.6693 73.672C77.6693 73.048 77.7167 72.424 77.8117 71.8H62.1038V71.848Z" fill="white"/>
<path d="M82.5572 55.5279C81.9877 55.5279 81.5132 56.0079 81.5132 56.5839V59.3679C81.5132 59.9439 81.9877 60.4239 82.5572 60.4239H86.4011C86.9706 60.4239 87.4452 59.9439 87.4452 59.3679V56.5839C87.4452 56.0079 86.9706 55.5279 86.4011 55.5279H82.5572Z" fill="white"/>
<path d="M77.8591 55.5279H74.0152C73.4457 55.5279 72.9712 56.0079 72.9712 56.5839V59.3679C72.9712 59.9439 73.4457 60.4239 74.0152 60.4239H77.8591C78.4286 60.4239 78.9032 59.9439 78.9032 59.3679V56.5839C78.8557 56.0079 78.4286 55.5279 77.8591 55.5279Z" fill="white"/>
<path d="M70.3136 56.5839C70.3136 56.0079 69.839 55.5279 69.2695 55.5279H65.4256C64.8561 55.5279 64.3816 56.0079 64.3816 56.5839V59.3679C64.3816 59.9439 64.8561 60.4239 65.4256 60.4239H69.2695C69.839 60.4239 70.3136 59.9439 70.3136 59.3679V56.5839Z" fill="white"/>
<path d="M69.3171 63.16H65.4732C64.9038 63.16 64.4292 63.64 64.4292 64.216V67C64.4292 67.576 64.9038 68.056 65.4732 68.056H69.3171C69.8866 68.056 70.3612 67.576 70.3612 67V64.216C70.3137 63.64 69.8866 63.16 69.3171 63.16Z" fill="white"/>
<path d="M90.7196 63.6399C85.2148 63.6399 80.7539 68.1519 80.7539 73.7199C80.7539 79.2879 85.2148 83.7999 90.7196 83.7999C96.2245 83.7999 100.685 79.2879 100.685 73.7199C100.685 68.1519 96.2245 63.6399 90.7196 63.6399ZM95.2279 72.4719L90.2451 77.5119C89.9603 77.7999 89.5332 77.9439 89.1536 77.9439C88.7739 77.9439 88.3468 77.7999 88.0621 77.5119L85.5944 75.0159C84.9775 74.3919 84.9775 73.4319 85.5944 72.8079C86.2113 72.1839 87.1604 72.1839 87.7774 72.8079L89.201 74.2479L93.1399 70.2639C93.7568 69.6399 94.7059 69.6399 95.3228 70.2639C95.9398 70.8879 95.8448 71.8479 95.2279 72.4719Z" fill="white"/>
<path d="M154.229 70.336C152.941 70.336 151.774 70.1307 150.729 69.72C149.702 69.2907 148.815 68.656 148.069 67.816C147.341 66.976 146.781 65.94 146.389 64.708C145.997 63.4573 145.801 62.0107 145.801 60.368C145.801 58.7253 145.997 57.2693 146.389 56C146.781 54.712 147.341 53.6387 148.069 52.78C148.815 51.9027 149.702 51.24 150.729 50.792C151.774 50.344 152.941 50.12 154.229 50.12C155.983 50.12 157.439 50.4933 158.597 51.24C159.754 51.9867 160.678 53.116 161.369 54.628L158.205 56.308C157.925 55.4307 157.467 54.7307 156.833 54.208C156.198 53.6667 155.33 53.396 154.229 53.396C152.847 53.396 151.746 53.8627 150.925 54.796C150.122 55.7293 149.721 57.036 149.721 58.716V61.796C149.721 63.4947 150.122 64.8013 150.925 65.716C151.746 66.612 152.847 67.06 154.229 67.06C155.33 67.06 156.226 66.7613 156.917 66.164C157.626 65.5667 158.139 64.8293 158.457 63.952L161.453 65.716C160.743 67.172 159.801 68.3107 158.625 69.132C157.449 69.9347 155.983 70.336 154.229 70.336ZM170.178 70.336C169.132 70.336 168.19 70.1587 167.35 69.804C166.528 69.4493 165.819 68.936 165.222 68.264C164.643 67.592 164.195 66.7893 163.878 65.856C163.56 64.904 163.402 63.84 163.402 62.664C163.402 61.488 163.56 60.4333 163.878 59.5C164.195 58.5667 164.643 57.7733 165.222 57.12C165.819 56.448 166.528 55.9347 167.35 55.58C168.19 55.2253 169.132 55.048 170.178 55.048C171.223 55.048 172.166 55.2253 173.006 55.58C173.846 55.9347 174.555 56.448 175.134 57.12C175.731 57.7733 176.188 58.5667 176.506 59.5C176.823 60.4333 176.982 61.488 176.982 62.664C176.982 63.84 176.823 64.904 176.506 65.856C176.188 66.7893 175.731 67.592 175.134 68.264C174.555 68.936 173.846 69.4493 173.006 69.804C172.166 70.1587 171.223 70.336 170.178 70.336ZM170.178 67.452C171.13 67.452 171.876 67.1627 172.418 66.584C172.959 66.0053 173.23 65.156 173.23 64.036V61.32C173.23 60.2187 172.959 59.3787 172.418 58.8C171.876 58.2213 171.13 57.932 170.178 57.932C169.244 57.932 168.507 58.2213 167.966 58.8C167.424 59.3787 167.154 60.2187 167.154 61.32V64.036C167.154 65.156 167.424 66.0053 167.966 66.584C168.507 67.1627 169.244 67.452 170.178 67.452ZM188.895 67.564H188.755C188.624 67.9373 188.447 68.292 188.223 68.628C188.018 68.9453 187.747 69.2347 187.411 69.496C187.094 69.7573 186.702 69.9627 186.235 70.112C185.787 70.2613 185.264 70.336 184.667 70.336C183.155 70.336 181.998 69.8413 181.195 68.852C180.392 67.8627 179.991 66.4533 179.991 64.624V55.384H183.575V64.26C183.575 65.268 183.771 66.0427 184.163 66.584C184.555 67.1067 185.18 67.368 186.039 67.368C186.394 67.368 186.739 67.3213 187.075 67.228C187.43 67.1347 187.738 66.9947 187.999 66.808C188.26 66.6027 188.475 66.36 188.643 66.08C188.811 65.7813 188.895 65.436 188.895 65.044V55.384H192.479V70H188.895V67.564ZM196.62 70V55.384H200.204V58.408H200.344C200.437 58.016 200.577 57.6427 200.764 57.288C200.969 56.9147 201.231 56.588 201.548 56.308C201.865 56.028 202.239 55.804 202.668 55.636C203.116 55.468 203.629 55.384 204.208 55.384H204.992V58.772H203.872C202.659 58.772 201.744 58.9493 201.128 59.304C200.512 59.6587 200.204 60.2373 200.204 61.04V70H196.62ZM212.4 70.336C211 70.336 209.824 70.1027 208.872 69.636C207.92 69.1507 207.08 68.488 206.352 67.648L208.536 65.52C209.077 66.136 209.665 66.6213 210.3 66.976C210.953 67.3307 211.7 67.508 212.54 67.508C213.399 67.508 214.015 67.3587 214.388 67.06C214.78 66.7613 214.976 66.3507 214.976 65.828C214.976 65.3987 214.836 65.0627 214.556 64.82C214.295 64.5587 213.837 64.3813 213.184 64.288L211.728 64.092C210.141 63.8867 208.928 63.4387 208.088 62.748C207.267 62.0387 206.856 61.012 206.856 59.668C206.856 58.9587 206.987 58.324 207.248 57.764C207.509 57.1853 207.883 56.7 208.368 56.308C208.853 55.8973 209.432 55.5893 210.104 55.384C210.795 55.16 211.56 55.048 212.4 55.048C213.109 55.048 213.735 55.104 214.276 55.216C214.836 55.3093 215.34 55.4587 215.788 55.664C216.236 55.8507 216.647 56.0933 217.02 56.392C217.393 56.672 217.757 56.9893 218.112 57.344L216.012 59.444C215.583 58.996 215.069 58.6227 214.472 58.324C213.875 58.0253 213.221 57.876 212.512 57.876C211.728 57.876 211.159 58.016 210.804 58.296C210.468 58.576 210.3 58.94 210.3 59.388C210.3 59.8733 210.44 60.2467 210.72 60.508C211.019 60.7507 211.513 60.928 212.204 61.04L213.688 61.236C216.843 61.684 218.42 63.1213 218.42 65.548C218.42 66.2573 218.271 66.9107 217.972 67.508C217.692 68.0867 217.291 68.5907 216.768 69.02C216.245 69.4307 215.611 69.7573 214.864 70C214.136 70.224 213.315 70.336 212.4 70.336ZM227.493 70.336C226.41 70.336 225.439 70.1587 224.581 69.804C223.741 69.4307 223.022 68.9173 222.425 68.264C221.846 67.592 221.398 66.7893 221.081 65.856C220.763 64.904 220.605 63.84 220.605 62.664C220.605 61.5067 220.754 60.4613 221.053 59.528C221.37 58.5947 221.818 57.8013 222.397 57.148C222.975 56.476 223.685 55.9627 224.525 55.608C225.365 55.2347 226.317 55.048 227.381 55.048C228.519 55.048 229.509 55.244 230.349 55.636C231.189 56.028 231.879 56.56 232.421 57.232C232.962 57.904 233.363 58.688 233.625 59.584C233.905 60.4613 234.045 61.404 234.045 62.412V63.588H224.329V63.952C224.329 65.016 224.627 65.8747 225.225 66.528C225.822 67.1627 226.709 67.48 227.885 67.48C228.781 67.48 229.509 67.2933 230.069 66.92C230.647 66.5467 231.161 66.0707 231.609 65.492L233.541 67.648C232.943 68.488 232.122 69.1507 231.077 69.636C230.05 70.1027 228.855 70.336 227.493 70.336ZM227.437 57.736C226.485 57.736 225.729 58.0533 225.169 58.688C224.609 59.3227 224.329 60.144 224.329 61.152V61.376H230.321V61.124C230.321 60.116 230.069 59.304 229.565 58.688C229.079 58.0533 228.37 57.736 227.437 57.736ZM250.115 70.336C248.435 70.336 247.007 70.0373 245.831 69.44C244.674 68.8427 243.675 68.0587 242.835 67.088L245.327 64.68C245.999 65.464 246.746 66.0613 247.567 66.472C248.407 66.8827 249.331 67.088 250.339 67.088C251.478 67.088 252.336 66.8453 252.915 66.36C253.494 65.856 253.783 65.184 253.783 64.344C253.783 63.6907 253.596 63.1587 253.223 62.748C252.85 62.3373 252.15 62.0387 251.123 61.852L249.275 61.572C245.374 60.956 243.423 59.0613 243.423 55.888C243.423 55.0107 243.582 54.2173 243.899 53.508C244.235 52.7987 244.711 52.192 245.327 51.688C245.943 51.184 246.68 50.8013 247.539 50.54C248.416 50.26 249.406 50.12 250.507 50.12C251.982 50.12 253.27 50.3627 254.371 50.848C255.472 51.3333 256.415 52.052 257.199 53.004L254.679 55.384C254.194 54.7867 253.606 54.3013 252.915 53.928C252.224 53.5547 251.356 53.368 250.311 53.368C249.247 53.368 248.444 53.5733 247.903 53.984C247.38 54.376 247.119 54.936 247.119 55.664C247.119 56.4107 247.334 56.9613 247.763 57.316C248.192 57.6707 248.883 57.932 249.835 58.1L251.655 58.436C253.634 58.7907 255.09 59.4253 256.023 60.34C256.975 61.236 257.451 62.496 257.451 64.12C257.451 65.0533 257.283 65.9027 256.947 66.668C256.63 67.4147 256.154 68.068 255.519 68.628C254.903 69.1693 254.138 69.5893 253.223 69.888C252.327 70.1867 251.291 70.336 250.115 70.336ZM266.7 70.336C265.618 70.336 264.656 70.1587 263.816 69.804C262.976 69.4493 262.267 68.936 261.688 68.264C261.128 67.592 260.699 66.7893 260.4 65.856C260.102 64.904 259.952 63.84 259.952 62.664C259.952 61.488 260.102 60.4333 260.4 59.5C260.699 58.5667 261.128 57.7733 261.688 57.12C262.267 56.448 262.976 55.9347 263.816 55.58C264.656 55.2253 265.618 55.048 266.7 55.048C268.175 55.048 269.388 55.3747 270.34 56.028C271.311 56.6813 272.011 57.5867 272.44 58.744L269.5 60.06C269.332 59.444 269.015 58.94 268.548 58.548C268.1 58.1373 267.484 57.932 266.7 57.932C265.692 57.932 264.936 58.2493 264.432 58.884C263.947 59.5187 263.704 60.3493 263.704 61.376V64.036C263.704 65.0627 263.947 65.8933 264.432 66.528C264.936 67.144 265.692 67.452 266.7 67.452C267.559 67.452 268.222 67.2373 268.688 66.808C269.155 66.36 269.519 65.8093 269.78 65.156L272.524 66.472C272.039 67.76 271.302 68.7307 270.312 69.384C269.323 70.0187 268.119 70.336 266.7 70.336ZM275.288 49.28H278.872V57.82H279.012C279.31 57.036 279.777 56.3827 280.412 55.86C281.065 55.3187 281.961 55.048 283.1 55.048C284.612 55.048 285.769 55.5427 286.572 56.532C287.374 57.5213 287.776 58.9307 287.776 60.76V70H284.192V61.124C284.192 60.0787 284.005 59.2947 283.632 58.772C283.258 58.2493 282.642 57.988 281.784 57.988C281.41 57.988 281.046 58.044 280.692 58.156C280.356 58.2493 280.048 58.3987 279.768 58.604C279.506 58.7907 279.292 59.0333 279.124 59.332C278.956 59.612 278.872 59.948 278.872 60.34V70H275.288V49.28ZM297.657 70.336C296.574 70.336 295.603 70.1587 294.745 69.804C293.905 69.4307 293.186 68.9173 292.589 68.264C292.01 67.592 291.562 66.7893 291.245 65.856C290.927 64.904 290.769 63.84 290.769 62.664C290.769 61.5067 290.918 60.4613 291.217 59.528C291.534 58.5947 291.982 57.8013 292.561 57.148C293.139 56.476 293.849 55.9627 294.689 55.608C295.529 55.2347 296.481 55.048 297.545 55.048C298.683 55.048 299.673 55.244 300.513 55.636C301.353 56.028 302.043 56.56 302.585 57.232C303.126 57.904 303.527 58.688 303.789 59.584C304.069 60.4613 304.209 61.404 304.209 62.412V63.588H294.493V63.952C294.493 65.016 294.791 65.8747 295.389 66.528C295.986 67.1627 296.873 67.48 298.049 67.48C298.945 67.48 299.673 67.2933 300.233 66.92C300.811 66.5467 301.325 66.0707 301.773 65.492L303.705 67.648C303.107 68.488 302.286 69.1507 301.241 69.636C300.214 70.1027 299.019 70.336 297.657 70.336ZM297.601 57.736C296.649 57.736 295.893 58.0533 295.333 58.688C294.773 59.3227 294.493 60.144 294.493 61.152V61.376H300.485V61.124C300.485 60.116 300.233 59.304 299.729 58.688C299.243 58.0533 298.534 57.736 297.601 57.736ZM316.434 67.564H316.294C316.033 68.404 315.538 69.076 314.81 69.58C314.082 70.084 313.233 70.336 312.262 70.336C310.414 70.336 308.995 69.6733 308.006 68.348C307.035 67.0227 306.55 65.128 306.55 62.664C306.55 60.2187 307.035 58.3427 308.006 57.036C308.995 55.7107 310.414 55.048 312.262 55.048C313.233 55.048 314.082 55.3 314.81 55.804C315.538 56.2893 316.033 56.952 316.294 57.792H316.434V49.28H320.018V70H316.434V67.564ZM313.41 67.368C314.269 67.368 314.987 67.1627 315.566 66.752C316.145 66.3413 316.434 65.7533 316.434 64.988V60.34C316.434 59.6307 316.145 59.0613 315.566 58.632C314.987 58.2027 314.269 57.988 313.41 57.988C312.477 57.988 311.721 58.3053 311.142 58.94C310.582 59.556 310.302 60.3867 310.302 61.432V63.952C310.302 64.9973 310.582 65.828 311.142 66.444C311.721 67.06 312.477 67.368 313.41 67.368ZM332.887 67.564H332.747C332.616 67.9373 332.439 68.292 332.215 68.628C332.01 68.9453 331.739 69.2347 331.403 69.496C331.086 69.7573 330.694 69.9627 330.227 70.112C329.779 70.2613 329.256 70.336 328.659 70.336C327.147 70.336 325.99 69.8413 325.187 68.852C324.384 67.8627 323.983 66.4533 323.983 64.624V55.384H327.567V64.26C327.567 65.268 327.763 66.0427 328.155 66.584C328.547 67.1067 329.172 67.368 330.031 67.368C330.386 67.368 330.731 67.3213 331.067 67.228C331.422 67.1347 331.73 66.9947 331.991 66.808C332.252 66.6027 332.467 66.36 332.635 66.08C332.803 65.7813 332.887 65.436 332.887 65.044V55.384H336.471V70H332.887V67.564ZM344.196 70C342.964 70 342.059 69.692 341.48 69.076C340.901 68.46 340.612 67.592 340.612 66.472V49.28H344.196V67.144H346.128V70H344.196ZM354.751 70.336C353.668 70.336 352.697 70.1587 351.839 69.804C350.999 69.4307 350.28 68.9173 349.683 68.264C349.104 67.592 348.656 66.7893 348.339 65.856C348.021 64.904 347.863 63.84 347.863 62.664C347.863 61.5067 348.012 60.4613 348.311 59.528C348.628 58.5947 349.076 57.8013 349.655 57.148C350.233 56.476 350.943 55.9627 351.783 55.608C352.623 55.2347 353.575 55.048 354.639 55.048C355.777 55.048 356.767 55.244 357.607 55.636C358.447 56.028 359.137 56.56 359.679 57.232C360.22 57.904 360.621 58.688 360.883 59.584C361.163 60.4613 361.303 61.404 361.303 62.412V63.588H351.587V63.952C351.587 65.016 351.885 65.8747 352.483 66.528C353.08 67.1627 353.967 67.48 355.143 67.48C356.039 67.48 356.767 67.2933 357.327 66.92C357.905 66.5467 358.419 66.0707 358.867 65.492L360.799 67.648C360.201 68.488 359.38 69.1507 358.335 69.636C357.308 70.1027 356.113 70.336 354.751 70.336ZM354.695 57.736C353.743 57.736 352.987 58.0533 352.427 58.688C351.867 59.3227 351.587 60.144 351.587 61.152V61.376H357.579V61.124C357.579 60.116 357.327 59.304 356.823 58.688C356.337 58.0533 355.628 57.736 354.695 57.736Z" fill="black"/>
</svg>
