<svg width="436" height="121" viewBox="0 0 436 121" fill="none" xmlns="http://www.w3.org/2000/svg">
<rect width="436" height="121" rx="30" fill="#F4F3F3"/>
<ellipse cx="77.2891" cy="60.1755" rx="39.72" ry="40.1755" fill="#9E2063"/>
<path d="M90.1844 81.2329H65.5075C62.8475 81.2329 60.6748 79.0713 60.6748 76.4249V43.6732C60.6748 41.0268 62.8475 38.8652 65.5075 38.8652H90.1712C92.8311 38.8652 95.0039 41.0268 95.0039 43.6732V76.4249C95.017 77.6957 94.5166 78.901 93.6081 79.818C92.6995 80.7351 91.488 81.2329 90.1844 81.2329ZM65.5075 42.7954C65.0203 42.7954 64.6252 43.1885 64.6252 43.6732V76.4249C64.6252 76.9097 65.0203 77.3027 65.5075 77.3027H90.1844C90.5004 77.3027 90.7111 77.1455 90.8033 77.0407C90.8954 76.949 91.0535 76.7393 91.0535 76.438V43.6732C91.0535 43.1885 90.6584 42.7954 90.1712 42.7954H65.5075Z" fill="white"/>
<path d="M83.8109 51.0489H71.433C70.34 51.0489 69.4578 50.1711 69.4578 49.0838C69.4578 47.9964 70.34 47.1187 71.433 47.1187H83.8109C84.9039 47.1187 85.7861 47.9964 85.7861 49.0838C85.7861 50.1711 84.9039 51.0489 83.8109 51.0489Z" fill="white"/>
<path d="M83.8109 58.359H71.433C70.34 58.359 69.4578 57.4812 69.4578 56.3939C69.4578 55.3065 70.34 54.4288 71.433 54.4288H83.8109C84.9039 54.4288 85.7861 55.3065 85.7861 56.3939C85.7861 57.4812 84.9039 58.359 83.8109 58.359Z" fill="white"/>
<path d="M83.8109 65.6693H71.433C70.34 65.6693 69.4578 64.7915 69.4578 63.7042C69.4578 62.6168 70.34 61.7391 71.433 61.7391H83.8109C84.9039 61.7391 85.7861 62.6168 85.7861 63.7042C85.7861 64.7915 84.9039 65.6693 83.8109 65.6693Z" fill="white"/>
<path d="M83.8109 72.9795H71.433C70.34 72.9795 69.4578 72.1017 69.4578 71.0144C69.4578 69.927 70.34 69.0493 71.433 69.0493H83.8109C84.9039 69.0493 85.7861 69.927 85.7861 71.0144C85.7861 72.1017 84.9039 72.9795 83.8109 72.9795Z" fill="white"/>
<path d="M153.884 70.336C152.596 70.336 151.429 70.1307 150.384 69.72C149.357 69.2907 148.471 68.656 147.724 67.816C146.996 66.976 146.436 65.94 146.044 64.708C145.652 63.4573 145.456 62.0107 145.456 60.368C145.456 58.7253 145.652 57.2693 146.044 56C146.436 54.712 146.996 53.6387 147.724 52.78C148.471 51.9027 149.357 51.24 150.384 50.792C151.429 50.344 152.596 50.12 153.884 50.12C155.639 50.12 157.095 50.4933 158.252 51.24C159.409 51.9867 160.333 53.116 161.024 54.628L157.86 56.308C157.58 55.4307 157.123 54.7307 156.488 54.208C155.853 53.6667 154.985 53.396 153.884 53.396C152.503 53.396 151.401 53.8627 150.58 54.796C149.777 55.7293 149.376 57.036 149.376 58.716V61.796C149.376 63.4947 149.777 64.8013 150.58 65.716C151.401 66.612 152.503 67.06 153.884 67.06C154.985 67.06 155.881 66.7613 156.572 66.164C157.281 65.5667 157.795 64.8293 158.112 63.952L161.108 65.716C160.399 67.172 159.456 68.3107 158.28 69.132C157.104 69.9347 155.639 70.336 153.884 70.336ZM169.833 70.336C168.788 70.336 167.845 70.1587 167.005 69.804C166.184 69.4493 165.474 68.936 164.877 68.264C164.298 67.592 163.85 66.7893 163.533 65.856C163.216 64.904 163.057 63.84 163.057 62.664C163.057 61.488 163.216 60.4333 163.533 59.5C163.85 58.5667 164.298 57.7733 164.877 57.12C165.474 56.448 166.184 55.9347 167.005 55.58C167.845 55.2253 168.788 55.048 169.833 55.048C170.878 55.048 171.821 55.2253 172.661 55.58C173.501 55.9347 174.21 56.448 174.789 57.12C175.386 57.7733 175.844 58.5667 176.161 59.5C176.478 60.4333 176.637 61.488 176.637 62.664C176.637 63.84 176.478 64.904 176.161 65.856C175.844 66.7893 175.386 67.592 174.789 68.264C174.21 68.936 173.501 69.4493 172.661 69.804C171.821 70.1587 170.878 70.336 169.833 70.336ZM169.833 67.452C170.785 67.452 171.532 67.1627 172.073 66.584C172.614 66.0053 172.885 65.156 172.885 64.036V61.32C172.885 60.2187 172.614 59.3787 172.073 58.8C171.532 58.2213 170.785 57.932 169.833 57.932C168.9 57.932 168.162 58.2213 167.621 58.8C167.08 59.3787 166.809 60.2187 166.809 61.32V64.036C166.809 65.156 167.08 66.0053 167.621 66.584C168.162 67.1627 168.9 67.452 169.833 67.452ZM188.55 67.564H188.41C188.28 67.9373 188.102 68.292 187.878 68.628C187.673 68.9453 187.402 69.2347 187.066 69.496C186.749 69.7573 186.357 69.9627 185.89 70.112C185.442 70.2613 184.92 70.336 184.322 70.336C182.81 70.336 181.653 69.8413 180.85 68.852C180.048 67.8627 179.646 66.4533 179.646 64.624V55.384H183.23V64.26C183.23 65.268 183.426 66.0427 183.818 66.584C184.21 67.1067 184.836 67.368 185.694 67.368C186.049 67.368 186.394 67.3213 186.73 67.228C187.085 67.1347 187.393 66.9947 187.654 66.808C187.916 66.6027 188.13 66.36 188.298 66.08C188.466 65.7813 188.55 65.436 188.55 65.044V55.384H192.134V70H188.55V67.564ZM196.275 70V55.384H199.859V58.408H199.999C200.092 58.016 200.232 57.6427 200.419 57.288C200.624 56.9147 200.886 56.588 201.203 56.308C201.52 56.028 201.894 55.804 202.323 55.636C202.771 55.468 203.284 55.384 203.863 55.384H204.647V58.772H203.527C202.314 58.772 201.399 58.9493 200.783 59.304C200.167 59.6587 199.859 60.2373 199.859 61.04V70H196.275ZM212.055 70.336C210.655 70.336 209.479 70.1027 208.527 69.636C207.575 69.1507 206.735 68.488 206.007 67.648L208.191 65.52C208.733 66.136 209.321 66.6213 209.955 66.976C210.609 67.3307 211.355 67.508 212.195 67.508C213.054 67.508 213.67 67.3587 214.043 67.06C214.435 66.7613 214.631 66.3507 214.631 65.828C214.631 65.3987 214.491 65.0627 214.211 64.82C213.95 64.5587 213.493 64.3813 212.839 64.288L211.383 64.092C209.797 63.8867 208.583 63.4387 207.743 62.748C206.922 62.0387 206.511 61.012 206.511 59.668C206.511 58.9587 206.642 58.324 206.903 57.764C207.165 57.1853 207.538 56.7 208.023 56.308C208.509 55.8973 209.087 55.5893 209.759 55.384C210.45 55.16 211.215 55.048 212.055 55.048C212.765 55.048 213.39 55.104 213.931 55.216C214.491 55.3093 214.995 55.4587 215.443 55.664C215.891 55.8507 216.302 56.0933 216.675 56.392C217.049 56.672 217.413 56.9893 217.767 57.344L215.667 59.444C215.238 58.996 214.725 58.6227 214.127 58.324C213.53 58.0253 212.877 57.876 212.167 57.876C211.383 57.876 210.814 58.016 210.459 58.296C210.123 58.576 209.955 58.94 209.955 59.388C209.955 59.8733 210.095 60.2467 210.375 60.508C210.674 60.7507 211.169 60.928 211.859 61.04L213.343 61.236C216.498 61.684 218.075 63.1213 218.075 65.548C218.075 66.2573 217.926 66.9107 217.627 67.508C217.347 68.0867 216.946 68.5907 216.423 69.02C215.901 69.4307 215.266 69.7573 214.519 70C213.791 70.224 212.97 70.336 212.055 70.336ZM227.148 70.336C226.065 70.336 225.095 70.1587 224.236 69.804C223.396 69.4307 222.677 68.9173 222.08 68.264C221.501 67.592 221.053 66.7893 220.736 65.856C220.419 64.904 220.26 63.84 220.26 62.664C220.26 61.5067 220.409 60.4613 220.708 59.528C221.025 58.5947 221.473 57.8013 222.052 57.148C222.631 56.476 223.34 55.9627 224.18 55.608C225.02 55.2347 225.972 55.048 227.036 55.048C228.175 55.048 229.164 55.244 230.004 55.636C230.844 56.028 231.535 56.56 232.076 57.232C232.617 57.904 233.019 58.688 233.28 59.584C233.56 60.4613 233.7 61.404 233.7 62.412V63.588H223.984V63.952C223.984 65.016 224.283 65.8747 224.88 66.528C225.477 67.1627 226.364 67.48 227.54 67.48C228.436 67.48 229.164 67.2933 229.724 66.92C230.303 66.5467 230.816 66.0707 231.264 65.492L233.196 67.648C232.599 68.488 231.777 69.1507 230.732 69.636C229.705 70.1027 228.511 70.336 227.148 70.336ZM227.092 57.736C226.14 57.736 225.384 58.0533 224.824 58.688C224.264 59.3227 223.984 60.144 223.984 61.152V61.376H229.976V61.124C229.976 60.116 229.724 59.304 229.22 58.688C228.735 58.0533 228.025 57.736 227.092 57.736ZM249.77 70.336C248.09 70.336 246.662 70.0373 245.486 69.44C244.329 68.8427 243.33 68.0587 242.49 67.088L244.982 64.68C245.654 65.464 246.401 66.0613 247.222 66.472C248.062 66.8827 248.986 67.088 249.994 67.088C251.133 67.088 251.992 66.8453 252.57 66.36C253.149 65.856 253.438 65.184 253.438 64.344C253.438 63.6907 253.252 63.1587 252.878 62.748C252.505 62.3373 251.805 62.0387 250.778 61.852L248.93 61.572C245.029 60.956 243.078 59.0613 243.078 55.888C243.078 55.0107 243.237 54.2173 243.554 53.508C243.89 52.7987 244.366 52.192 244.982 51.688C245.598 51.184 246.336 50.8013 247.194 50.54C248.072 50.26 249.061 50.12 250.162 50.12C251.637 50.12 252.925 50.3627 254.026 50.848C255.128 51.3333 256.07 52.052 256.854 53.004L254.334 55.384C253.849 54.7867 253.261 54.3013 252.57 53.928C251.88 53.5547 251.012 53.368 249.966 53.368C248.902 53.368 248.1 53.5733 247.558 53.984C247.036 54.376 246.774 54.936 246.774 55.664C246.774 56.4107 246.989 56.9613 247.418 57.316C247.848 57.6707 248.538 57.932 249.49 58.1L251.31 58.436C253.289 58.7907 254.745 59.4253 255.678 60.34C256.63 61.236 257.106 62.496 257.106 64.12C257.106 65.0533 256.938 65.9027 256.602 66.668C256.285 67.4147 255.809 68.068 255.174 68.628C254.558 69.1693 253.793 69.5893 252.878 69.888C251.982 70.1867 250.946 70.336 249.77 70.336ZM269.548 55.384H272.908L267.028 72.604C266.841 73.1267 266.626 73.5747 266.384 73.948C266.16 74.34 265.889 74.6573 265.572 74.9C265.254 75.1427 264.872 75.32 264.424 75.432C263.976 75.544 263.453 75.6 262.856 75.6H260.7V72.744H263.332L264.004 70.7L258.768 55.384H262.324L264.872 63.112L265.824 66.808H265.992L267 63.112L269.548 55.384ZM278.855 70C277.623 70 276.718 69.692 276.139 69.076C275.561 68.46 275.271 67.592 275.271 66.472V49.28H278.855V67.144H280.787V70H278.855ZM286.894 70C285.662 70 284.757 69.692 284.178 69.076C283.6 68.46 283.31 67.592 283.31 66.472V49.28H286.894V67.144H288.826V70H286.894ZM302.293 70C301.509 70 300.883 69.776 300.417 69.328C299.969 68.8613 299.689 68.2453 299.577 67.48H299.409C299.166 68.432 298.671 69.1507 297.925 69.636C297.178 70.1027 296.254 70.336 295.153 70.336C293.659 70.336 292.511 69.944 291.709 69.16C290.906 68.376 290.505 67.3307 290.505 66.024C290.505 64.512 291.046 63.392 292.129 62.664C293.211 61.9173 294.751 61.544 296.749 61.544H299.241V60.48C299.241 59.6587 299.026 59.024 298.597 58.576C298.167 58.128 297.477 57.904 296.525 57.904C295.685 57.904 295.003 58.0907 294.481 58.464C293.977 58.8187 293.547 59.248 293.193 59.752L291.065 57.848C291.606 57.008 292.325 56.336 293.221 55.832C294.117 55.3093 295.302 55.048 296.777 55.048C298.755 55.048 300.258 55.496 301.285 56.392C302.311 57.288 302.825 58.576 302.825 60.256V67.144H304.281V70H302.293ZM296.357 67.732C297.159 67.732 297.841 67.5547 298.401 67.2C298.961 66.8453 299.241 66.3227 299.241 65.632V63.7H296.945C295.078 63.7 294.145 64.2973 294.145 65.492V65.968C294.145 66.5653 294.331 67.0133 294.705 67.312C295.097 67.592 295.647 67.732 296.357 67.732ZM307.181 49.28H310.765V57.792H310.877C311.139 56.952 311.633 56.2893 312.361 55.804C313.089 55.3 313.939 55.048 314.909 55.048C316.776 55.048 318.195 55.7107 319.165 57.036C320.155 58.3427 320.649 60.2187 320.649 62.664C320.649 65.128 320.155 67.0227 319.165 68.348C318.195 69.6733 316.776 70.336 314.909 70.336C313.939 70.336 313.089 70.084 312.361 69.58C311.652 69.076 311.157 68.404 310.877 67.564H310.765V70H307.181V49.28ZM313.761 67.368C314.695 67.368 315.451 67.06 316.029 66.444C316.608 65.828 316.897 64.9973 316.897 63.952V61.432C316.897 60.3867 316.608 59.556 316.029 58.94C315.451 58.3053 314.695 57.988 313.761 57.988C312.903 57.988 312.184 58.2027 311.605 58.632C311.045 59.0613 310.765 59.6307 310.765 60.34V64.988C310.765 65.7533 311.045 66.3413 311.605 66.752C312.184 67.1627 312.903 67.368 313.761 67.368ZM332.706 67.564H332.566C332.436 67.9373 332.258 68.292 332.034 68.628C331.829 68.9453 331.558 69.2347 331.222 69.496C330.905 69.7573 330.513 69.9627 330.046 70.112C329.598 70.2613 329.076 70.336 328.478 70.336C326.966 70.336 325.809 69.8413 325.006 68.852C324.204 67.8627 323.802 66.4533 323.802 64.624V55.384H327.386V64.26C327.386 65.268 327.582 66.0427 327.974 66.584C328.366 67.1067 328.992 67.368 329.85 67.368C330.205 67.368 330.55 67.3213 330.886 67.228C331.241 67.1347 331.549 66.9947 331.81 66.808C332.072 66.6027 332.286 66.36 332.454 66.08C332.622 65.7813 332.706 65.436 332.706 65.044V55.384H336.29V70H332.706V67.564ZM345.219 70.336C343.819 70.336 342.643 70.1027 341.691 69.636C340.739 69.1507 339.899 68.488 339.171 67.648L341.355 65.52C341.897 66.136 342.485 66.6213 343.119 66.976C343.773 67.3307 344.519 67.508 345.359 67.508C346.218 67.508 346.834 67.3587 347.207 67.06C347.599 66.7613 347.795 66.3507 347.795 65.828C347.795 65.3987 347.655 65.0627 347.375 64.82C347.114 64.5587 346.657 64.3813 346.003 64.288L344.547 64.092C342.961 63.8867 341.747 63.4387 340.907 62.748C340.086 62.0387 339.675 61.012 339.675 59.668C339.675 58.9587 339.806 58.324 340.067 57.764C340.329 57.1853 340.702 56.7 341.187 56.308C341.673 55.8973 342.251 55.5893 342.923 55.384C343.614 55.16 344.379 55.048 345.219 55.048C345.929 55.048 346.554 55.104 347.095 55.216C347.655 55.3093 348.159 55.4587 348.607 55.664C349.055 55.8507 349.466 56.0933 349.839 56.392C350.213 56.672 350.577 56.9893 350.931 57.344L348.831 59.444C348.402 58.996 347.889 58.6227 347.291 58.324C346.694 58.0253 346.041 57.876 345.331 57.876C344.547 57.876 343.978 58.016 343.623 58.296C343.287 58.576 343.119 58.94 343.119 59.388C343.119 59.8733 343.259 60.2467 343.539 60.508C343.838 60.7507 344.333 60.928 345.023 61.04L346.507 61.236C349.662 61.684 351.239 63.1213 351.239 65.548C351.239 66.2573 351.09 66.9107 350.791 67.508C350.511 68.0867 350.11 68.5907 349.587 69.02C349.065 69.4307 348.43 69.7573 347.683 70C346.955 70.224 346.134 70.336 345.219 70.336Z" fill="black"/>
</svg>
