<svg width="436" height="121" viewBox="0 0 436 121" fill="none" xmlns="http://www.w3.org/2000/svg">
<rect width="436" height="121" rx="30" fill="#F4F3F3"/>
<ellipse cx="77.2891" cy="60.1755" rx="39.72" ry="40.1755" fill="#004A8D"/>
<path fill-rule="evenodd" clip-rule="evenodd" d="M99.9669 46.9929C99.9669 45.0234 98.3888 43.4266 96.4424 43.4266C88.2419 43.4266 67.9667 43.4266 59.7662 43.4266C57.8197 43.4266 56.2417 45.0234 56.2417 46.9929C56.2417 53.5479 56.2417 67.4388 56.2417 73.9938C56.2417 75.9633 57.8197 77.5601 59.7662 77.5601C67.9667 77.5601 88.2419 77.5601 96.4424 77.5601C98.3888 77.5601 99.9669 75.9633 99.9669 73.9938C99.9669 67.4388 99.9669 53.5479 99.9669 46.9929ZM61.2098 74.8959H94.9988C96.3405 74.8959 97.4295 73.7937 97.4295 72.4364C97.4295 71.0789 96.3405 69.9769 94.9988 69.9769H61.2098C59.8681 69.9769 58.7791 71.0789 58.7791 72.4364C58.7791 73.7937 59.8681 74.8959 61.2098 74.8959ZM87.0949 56.6102L71.1388 64.6802V48.5402L87.0949 56.6102Z" fill="white"/>
<path d="M146.132 71V52.852H158.092V55.894H149.564V60.288H157.104V63.33H149.564V67.958H158.092V71H146.132ZM168.768 71.312C167.572 71.312 166.489 71.1213 165.518 70.74C164.565 70.3413 163.741 69.752 163.048 68.972C162.372 68.192 161.852 67.23 161.488 66.086C161.124 64.9247 160.942 63.5813 160.942 62.056C160.942 60.5307 161.124 59.1787 161.488 58C161.852 56.804 162.372 55.8073 163.048 55.01C163.741 54.1953 164.565 53.58 165.518 53.164C166.489 52.748 167.572 52.54 168.768 52.54C170.397 52.54 171.749 52.8867 172.824 53.58C173.899 54.2733 174.757 55.322 175.398 56.726L172.46 58.286C172.2 57.4713 171.775 56.8213 171.186 56.336C170.597 55.8333 169.791 55.582 168.768 55.582C167.485 55.582 166.463 56.0153 165.7 56.882C164.955 57.7487 164.582 58.962 164.582 60.522V63.382C164.582 64.9593 164.955 66.1727 165.7 67.022C166.463 67.854 167.485 68.27 168.768 68.27C169.791 68.27 170.623 67.9927 171.264 67.438C171.923 66.8833 172.399 66.1987 172.694 65.384L175.476 67.022C174.817 68.374 173.942 69.4313 172.85 70.194C171.758 70.9393 170.397 71.312 168.768 71.312ZM189.401 63.33H181.835V71H178.403V52.852H181.835V60.288H189.401V52.852H192.833V71H189.401V63.33ZM204.215 71.312C203.019 71.312 201.936 71.1127 200.965 70.714C199.994 70.3153 199.162 69.7173 198.469 68.92C197.793 68.1227 197.264 67.1433 196.883 65.982C196.502 64.8207 196.311 63.4687 196.311 61.926C196.311 60.4007 196.502 59.0573 196.883 57.896C197.264 56.7173 197.793 55.7293 198.469 54.932C199.162 54.1347 199.994 53.5367 200.965 53.138C201.936 52.7393 203.019 52.54 204.215 52.54C205.411 52.54 206.494 52.7393 207.465 53.138C208.436 53.5367 209.268 54.1347 209.961 54.932C210.654 55.7293 211.183 56.7173 211.547 57.896C211.928 59.0573 212.119 60.4007 212.119 61.926C212.119 63.4687 211.928 64.8207 211.547 65.982C211.183 67.1433 210.654 68.1227 209.961 68.92C209.268 69.7173 208.436 70.3153 207.465 70.714C206.494 71.1127 205.411 71.312 204.215 71.312ZM204.215 68.27C205.515 68.27 206.546 67.8367 207.309 66.97C208.089 66.1033 208.479 64.89 208.479 63.33V60.522C208.479 58.962 208.089 57.7487 207.309 56.882C206.546 56.0153 205.515 55.582 204.215 55.582C202.915 55.582 201.875 56.0153 201.095 56.882C200.332 57.7487 199.951 58.962 199.951 60.522V63.33C199.951 64.89 200.332 66.1033 201.095 66.97C201.875 67.8367 202.915 68.27 204.215 68.27ZM226.425 60.184C227.465 60.184 228.228 59.976 228.713 59.56C229.216 59.1267 229.467 58.5807 229.467 57.922V57.74C229.467 56.9947 229.225 56.414 228.739 55.998C228.271 55.5647 227.621 55.348 226.789 55.348C225.992 55.348 225.281 55.5387 224.657 55.92C224.051 56.3013 223.522 56.8387 223.071 57.532L220.887 55.556C221.199 55.14 221.537 54.75 221.901 54.386C222.283 54.0047 222.716 53.684 223.201 53.424C223.687 53.1467 224.233 52.93 224.839 52.774C225.446 52.618 226.131 52.54 226.893 52.54C227.812 52.54 228.644 52.6527 229.389 52.878C230.152 53.086 230.802 53.398 231.339 53.814C231.894 54.23 232.319 54.7327 232.613 55.322C232.908 55.894 233.055 56.544 233.055 57.272C233.055 57.8613 232.96 58.39 232.769 58.858C232.596 59.326 232.345 59.7333 232.015 60.08C231.703 60.4267 231.331 60.7127 230.897 60.938C230.481 61.146 230.039 61.302 229.571 61.406V61.562C230.091 61.666 230.585 61.8307 231.053 62.056C231.521 62.2813 231.92 62.5847 232.249 62.966C232.596 63.33 232.865 63.7633 233.055 64.266C233.263 64.7687 233.367 65.3407 233.367 65.982C233.367 66.7793 233.203 67.5073 232.873 68.166C232.561 68.8247 232.111 69.388 231.521 69.856C230.932 70.324 230.23 70.688 229.415 70.948C228.601 71.1907 227.691 71.312 226.685 71.312C225.801 71.312 225.021 71.2167 224.345 71.026C223.669 70.8527 223.071 70.61 222.551 70.298C222.049 69.986 221.607 69.6307 221.225 69.232C220.844 68.816 220.515 68.3827 220.237 67.932L222.759 66.008C222.967 66.372 223.193 66.71 223.435 67.022C223.678 67.3167 223.955 67.5767 224.267 67.802C224.579 68.0273 224.935 68.2007 225.333 68.322C225.732 68.4433 226.183 68.504 226.685 68.504C227.691 68.504 228.462 68.2613 228.999 67.776C229.537 67.2907 229.805 66.6233 229.805 65.774V65.592C229.805 64.76 229.511 64.1273 228.921 63.694C228.349 63.2607 227.517 63.044 226.425 63.044H224.631V60.184H226.425ZM243.081 71.312C242.041 71.312 241.114 71.1473 240.299 70.818C239.484 70.4713 238.791 69.9947 238.219 69.388C237.647 68.764 237.214 68.0187 236.919 67.152C236.624 66.268 236.477 65.28 236.477 64.188C236.477 62.888 236.668 61.666 237.049 60.522C237.448 59.3607 237.959 58.3033 238.583 57.35C239.207 56.3793 239.9 55.5213 240.663 54.776C241.443 54.0133 242.214 53.372 242.977 52.852H247.605C246.53 53.6147 245.568 54.3513 244.719 55.062C243.887 55.7727 243.15 56.492 242.509 57.22C241.885 57.948 241.365 58.7107 240.949 59.508C240.55 60.288 240.247 61.1373 240.039 62.056L240.247 62.108C240.42 61.7613 240.62 61.432 240.845 61.12C241.088 60.7907 241.374 60.5047 241.703 60.262C242.032 60.002 242.414 59.8027 242.847 59.664C243.28 59.508 243.783 59.43 244.355 59.43C245.1 59.43 245.794 59.56 246.435 59.82C247.094 60.08 247.657 60.4613 248.125 60.964C248.61 61.4493 248.983 62.0387 249.243 62.732C249.52 63.4253 249.659 64.1967 249.659 65.046C249.659 65.9647 249.503 66.8053 249.191 67.568C248.879 68.3307 248.437 68.9893 247.865 69.544C247.293 70.0987 246.6 70.532 245.785 70.844C244.988 71.156 244.086 71.312 243.081 71.312ZM243.081 68.608C244.034 68.608 244.78 68.348 245.317 67.828C245.872 67.2907 246.149 66.528 246.149 65.54V65.15C246.149 64.162 245.872 63.408 245.317 62.888C244.78 62.3507 244.034 62.082 243.081 62.082C242.11 62.082 241.356 62.3507 240.819 62.888C240.282 63.408 240.013 64.162 240.013 65.15V65.54C240.013 66.528 240.282 67.2907 240.819 67.828C241.356 68.348 242.11 68.608 243.081 68.608ZM258.593 71.312C257.432 71.312 256.426 71.104 255.577 70.688C254.728 70.2547 254.026 69.6393 253.471 68.842C252.916 68.0447 252.5 67.0653 252.223 65.904C251.963 64.7427 251.833 63.4167 251.833 61.926C251.833 60.4527 251.963 59.1353 252.223 57.974C252.5 56.7953 252.916 55.8073 253.471 55.01C254.026 54.2127 254.728 53.606 255.577 53.19C256.426 52.7567 257.432 52.54 258.593 52.54C260.898 52.54 262.597 53.3633 263.689 55.01C264.798 56.6567 265.353 58.962 265.353 61.926C265.353 64.89 264.798 67.1953 263.689 68.842C262.597 70.4887 260.898 71.312 258.593 71.312ZM258.593 68.426C259.754 68.426 260.56 67.9927 261.011 67.126C261.479 66.242 261.713 65.0547 261.713 63.564V60.288C261.713 58.7973 261.479 57.6187 261.011 56.752C260.56 55.868 259.754 55.426 258.593 55.426C257.432 55.426 256.617 55.868 256.149 56.752C255.698 57.6187 255.473 58.7973 255.473 60.288V63.564C255.473 65.0547 255.698 66.242 256.149 67.126C256.617 67.9927 257.432 68.426 258.593 68.426ZM278.871 71L272.943 52.852H276.453L279.235 61.692L280.847 67.724H280.925L282.511 61.692L285.293 52.852H288.699L282.771 71H278.871ZM292.695 55.452C292.002 55.452 291.499 55.296 291.187 54.984C290.893 54.672 290.745 54.2733 290.745 53.788V53.268C290.745 52.7827 290.893 52.384 291.187 52.072C291.499 51.76 292.002 51.604 292.695 51.604C293.371 51.604 293.865 51.76 294.177 52.072C294.489 52.384 294.645 52.7827 294.645 53.268V53.788C294.645 54.2733 294.489 54.672 294.177 54.984C293.865 55.296 293.371 55.452 292.695 55.452ZM291.031 57.428H294.359V71H291.031V57.428ZM306.641 68.738H306.511C306.268 69.518 305.809 70.142 305.133 70.61C304.457 71.078 303.668 71.312 302.767 71.312C301.051 71.312 299.734 70.6967 298.815 69.466C297.914 68.2353 297.463 66.476 297.463 64.188C297.463 61.9173 297.914 60.1753 298.815 58.962C299.734 57.7313 301.051 57.116 302.767 57.116C303.668 57.116 304.457 57.35 305.133 57.818C305.809 58.2687 306.268 58.884 306.511 59.664H306.641V51.76H309.969V71H306.641V68.738ZM303.833 68.556C304.63 68.556 305.298 68.3653 305.835 67.984C306.372 67.6027 306.641 67.0567 306.641 66.346V62.03C306.641 61.3713 306.372 60.8427 305.835 60.444C305.298 60.0453 304.63 59.846 303.833 59.846C302.966 59.846 302.264 60.1407 301.727 60.73C301.207 61.302 300.947 62.0733 300.947 63.044V65.384C300.947 66.3547 301.207 67.126 301.727 67.698C302.264 68.27 302.966 68.556 303.833 68.556ZM319.293 71.312C318.287 71.312 317.386 71.1473 316.589 70.818C315.809 70.4713 315.141 69.9947 314.587 69.388C314.049 68.764 313.633 68.0187 313.339 67.152C313.044 66.268 312.897 65.28 312.897 64.188C312.897 63.1133 313.035 62.1427 313.313 61.276C313.607 60.4093 314.023 59.6727 314.561 59.066C315.098 58.442 315.757 57.9653 316.537 57.636C317.317 57.2893 318.201 57.116 319.189 57.116C320.246 57.116 321.165 57.298 321.945 57.662C322.725 58.026 323.366 58.52 323.869 59.144C324.371 59.768 324.744 60.496 324.987 61.328C325.247 62.1427 325.377 63.018 325.377 63.954V65.046H316.355V65.384C316.355 66.372 316.632 67.1693 317.187 67.776C317.741 68.3653 318.565 68.66 319.657 68.66C320.489 68.66 321.165 68.4867 321.685 68.14C322.222 67.7933 322.699 67.3513 323.115 66.814L324.909 68.816C324.354 69.596 323.591 70.2113 322.621 70.662C321.667 71.0953 320.558 71.312 319.293 71.312ZM319.241 59.612C318.357 59.612 317.655 59.9067 317.135 60.496C316.615 61.0853 316.355 61.848 316.355 62.784V62.992H321.919V62.758C321.919 61.822 321.685 61.068 321.217 60.496C320.766 59.9067 320.107 59.612 319.241 59.612ZM333.687 71.312C332.716 71.312 331.841 71.1473 331.061 70.818C330.298 70.4887 329.64 70.012 329.085 69.388C328.548 68.764 328.132 68.0187 327.837 67.152C327.542 66.268 327.395 65.28 327.395 64.188C327.395 63.096 327.542 62.1167 327.837 61.25C328.132 60.3833 328.548 59.6467 329.085 59.04C329.64 58.416 330.298 57.9393 331.061 57.61C331.841 57.2807 332.716 57.116 333.687 57.116C334.658 57.116 335.533 57.2807 336.313 57.61C337.093 57.9393 337.752 58.416 338.289 59.04C338.844 59.6467 339.268 60.3833 339.563 61.25C339.858 62.1167 340.005 63.096 340.005 64.188C340.005 65.28 339.858 66.268 339.563 67.152C339.268 68.0187 338.844 68.764 338.289 69.388C337.752 70.012 337.093 70.4887 336.313 70.818C335.533 71.1473 334.658 71.312 333.687 71.312ZM333.687 68.634C334.571 68.634 335.264 68.3653 335.767 67.828C336.27 67.2907 336.521 66.502 336.521 65.462V62.94C336.521 61.9173 336.27 61.1373 335.767 60.6C335.264 60.0627 334.571 59.794 333.687 59.794C332.82 59.794 332.136 60.0627 331.633 60.6C331.13 61.1373 330.879 61.9173 330.879 62.94V65.462C330.879 66.502 331.13 67.2907 331.633 67.828C332.136 68.3653 332.82 68.634 333.687 68.634ZM347.401 71.312C346.101 71.312 345.009 71.0953 344.125 70.662C343.241 70.2113 342.461 69.596 341.785 68.816L343.813 66.84C344.316 67.412 344.862 67.8627 345.451 68.192C346.058 68.5213 346.751 68.686 347.531 68.686C348.329 68.686 348.901 68.5473 349.247 68.27C349.611 67.9927 349.793 67.6113 349.793 67.126C349.793 66.7273 349.663 66.4153 349.403 66.19C349.161 65.9473 348.736 65.7827 348.129 65.696L346.777 65.514C345.304 65.3233 344.177 64.9073 343.397 64.266C342.635 63.6073 342.253 62.654 342.253 61.406C342.253 60.7473 342.375 60.158 342.617 59.638C342.86 59.1007 343.207 58.65 343.657 58.286C344.108 57.9047 344.645 57.6187 345.269 57.428C345.911 57.22 346.621 57.116 347.401 57.116C348.06 57.116 348.641 57.168 349.143 57.272C349.663 57.3587 350.131 57.4973 350.547 57.688C350.963 57.8613 351.345 58.0867 351.691 58.364C352.038 58.624 352.376 58.9187 352.705 59.248L350.755 61.198C350.357 60.782 349.88 60.4353 349.325 60.158C348.771 59.8807 348.164 59.742 347.505 59.742C346.777 59.742 346.249 59.872 345.919 60.132C345.607 60.392 345.451 60.73 345.451 61.146C345.451 61.5967 345.581 61.9433 345.841 62.186C346.119 62.4113 346.578 62.576 347.219 62.68L348.597 62.862C351.527 63.278 352.991 64.6127 352.991 66.866C352.991 67.5247 352.853 68.1313 352.575 68.686C352.315 69.2233 351.943 69.6913 351.457 70.09C350.972 70.4713 350.383 70.7747 349.689 71C349.013 71.208 348.251 71.312 347.401 71.312Z" fill="black"/>
</svg>
