<svg width="436" height="121" viewBox="0 0 436 121" fill="none" xmlns="http://www.w3.org/2000/svg">
<rect width="436" height="121" rx="30" fill="#F4F3F3"/>
<ellipse cx="77.2891" cy="60.1755" rx="39.72" ry="40.1755" fill="#EDCD4C"/>
<path d="M78.1042 37.4688C66.3792 37.4688 56.7861 47.3828 56.7861 59.5C56.7861 71.6172 66.3792 81.5312 78.1042 81.5312C89.8291 81.5312 99.4222 71.6172 99.4222 59.5C99.4222 47.3828 89.8291 37.4688 78.1042 37.4688ZM78.1042 77.8594C68.2979 77.8594 60.3391 69.6344 60.3391 59.5C60.3391 49.3656 68.2979 41.1406 78.1042 41.1406C87.9105 41.1406 95.8692 49.3656 95.8692 59.5C95.8692 69.6344 87.9105 77.8594 78.1042 77.8594ZM90.5397 63.9797C90.5397 65.0078 89.758 65.8156 88.7632 65.8156H75.546C74.5512 65.8156 73.7695 65.0078 73.7695 63.9797V50.2469C73.7695 49.2188 74.5512 48.4109 75.546 48.4109C76.5408 48.4109 77.3225 49.2188 77.3225 50.2469V62.1437H88.7632C89.758 62.1437 90.5397 62.9516 90.5397 63.9797Z" fill="white"/>
<path d="M154.313 70.336C153.025 70.336 151.858 70.1213 150.813 69.692C149.767 69.2627 148.871 68.6187 148.125 67.76C147.397 66.9013 146.827 65.8467 146.417 64.596C146.006 63.3453 145.801 61.8893 145.801 60.228C145.801 58.5853 146.006 57.1387 146.417 55.888C146.827 54.6187 147.397 53.5547 148.125 52.696C148.871 51.8373 149.767 51.1933 150.813 50.764C151.858 50.3347 153.025 50.12 154.313 50.12C155.601 50.12 156.767 50.3347 157.813 50.764C158.858 51.1933 159.754 51.8373 160.501 52.696C161.247 53.5547 161.817 54.6187 162.209 55.888C162.619 57.1387 162.825 58.5853 162.825 60.228C162.825 61.8893 162.619 63.3453 162.209 64.596C161.817 65.8467 161.247 66.9013 160.501 67.76C159.754 68.6187 158.858 69.2627 157.813 69.692C156.767 70.1213 155.601 70.336 154.313 70.336ZM154.313 67.06C155.713 67.06 156.823 66.5933 157.645 65.66C158.485 64.7267 158.905 63.42 158.905 61.74V58.716C158.905 57.036 158.485 55.7293 157.645 54.796C156.823 53.8627 155.713 53.396 154.313 53.396C152.913 53.396 151.793 53.8627 150.953 54.796C150.131 55.7293 149.721 57.036 149.721 58.716V61.74C149.721 63.42 150.131 64.7267 150.953 65.66C151.793 66.5933 152.913 67.06 154.313 67.06ZM167.078 58.212H164.922V55.384H167.078V53.284C167.078 51.996 167.414 51.0067 168.086 50.316C168.777 49.6253 169.785 49.28 171.11 49.28H173.658V52.136H170.662V55.384H173.658V58.212H170.662V70H167.078V58.212ZM176.949 58.212H174.793V55.384H176.949V53.284C176.949 51.996 177.285 51.0067 177.957 50.316C178.648 49.6253 179.656 49.28 180.981 49.28H183.529V52.136H180.533V55.384H189.549V70H185.965V58.212H180.533V70H176.949V58.212ZM187.757 53.256C187.011 53.256 186.469 53.088 186.133 52.752C185.816 52.416 185.657 51.9867 185.657 51.464V50.904C185.657 50.3813 185.816 49.952 186.133 49.616C186.469 49.28 187.011 49.112 187.757 49.112C188.485 49.112 189.017 49.28 189.353 49.616C189.689 49.952 189.857 50.3813 189.857 50.904V51.464C189.857 51.9867 189.689 52.416 189.353 52.752C189.017 53.088 188.485 53.256 187.757 53.256ZM199.462 70.336C198.379 70.336 197.418 70.1587 196.578 69.804C195.738 69.4493 195.029 68.936 194.45 68.264C193.89 67.592 193.461 66.7893 193.162 65.856C192.863 64.904 192.714 63.84 192.714 62.664C192.714 61.488 192.863 60.4333 193.162 59.5C193.461 58.5667 193.89 57.7733 194.45 57.12C195.029 56.448 195.738 55.9347 196.578 55.58C197.418 55.2253 198.379 55.048 199.462 55.048C200.937 55.048 202.15 55.3747 203.102 56.028C204.073 56.6813 204.773 57.5867 205.202 58.744L202.262 60.06C202.094 59.444 201.777 58.94 201.31 58.548C200.862 58.1373 200.246 57.932 199.462 57.932C198.454 57.932 197.698 58.2493 197.194 58.884C196.709 59.5187 196.466 60.3493 196.466 61.376V64.036C196.466 65.0627 196.709 65.8933 197.194 66.528C197.698 67.144 198.454 67.452 199.462 67.452C200.321 67.452 200.983 67.2373 201.45 66.808C201.917 66.36 202.281 65.8093 202.542 65.156L205.286 66.472C204.801 67.76 204.063 68.7307 203.074 69.384C202.085 70.0187 200.881 70.336 199.462 70.336ZM213.821 70.336C212.738 70.336 211.767 70.1587 210.909 69.804C210.069 69.4307 209.35 68.9173 208.753 68.264C208.174 67.592 207.726 66.7893 207.409 65.856C207.091 64.904 206.933 63.84 206.933 62.664C206.933 61.5067 207.082 60.4613 207.381 59.528C207.698 58.5947 208.146 57.8013 208.725 57.148C209.303 56.476 210.013 55.9627 210.853 55.608C211.693 55.2347 212.645 55.048 213.709 55.048C214.847 55.048 215.837 55.244 216.677 55.636C217.517 56.028 218.207 56.56 218.749 57.232C219.29 57.904 219.691 58.688 219.953 59.584C220.233 60.4613 220.373 61.404 220.373 62.412V63.588H210.657V63.952C210.657 65.016 210.955 65.8747 211.553 66.528C212.15 67.1627 213.037 67.48 214.213 67.48C215.109 67.48 215.837 67.2933 216.397 66.92C216.975 66.5467 217.489 66.0707 217.937 65.492L219.869 67.648C219.271 68.488 218.45 69.1507 217.405 69.636C216.378 70.1027 215.183 70.336 213.821 70.336ZM213.765 57.736C212.813 57.736 212.057 58.0533 211.497 58.688C210.937 59.3227 210.657 60.144 210.657 61.152V61.376H216.649V61.124C216.649 60.116 216.397 59.304 215.893 58.688C215.407 58.0533 214.698 57.736 213.765 57.736ZM242.211 61.74H234.063V70H230.367V50.456H234.063V58.464H242.211V50.456H245.907V70H242.211V61.74ZM256.064 70.336C255.019 70.336 254.076 70.1587 253.236 69.804C252.415 69.4493 251.706 68.936 251.108 68.264C250.53 67.592 250.082 66.7893 249.764 65.856C249.447 64.904 249.288 63.84 249.288 62.664C249.288 61.488 249.447 60.4333 249.764 59.5C250.082 58.5667 250.53 57.7733 251.108 57.12C251.706 56.448 252.415 55.9347 253.236 55.58C254.076 55.2253 255.019 55.048 256.064 55.048C257.11 55.048 258.052 55.2253 258.892 55.58C259.732 55.9347 260.442 56.448 261.02 57.12C261.618 57.7733 262.075 58.5667 262.392 59.5C262.71 60.4333 262.868 61.488 262.868 62.664C262.868 63.84 262.71 64.904 262.392 65.856C262.075 66.7893 261.618 67.592 261.02 68.264C260.442 68.936 259.732 69.4493 258.892 69.804C258.052 70.1587 257.11 70.336 256.064 70.336ZM256.064 67.452C257.016 67.452 257.763 67.1627 258.304 66.584C258.846 66.0053 259.116 65.156 259.116 64.036V61.32C259.116 60.2187 258.846 59.3787 258.304 58.8C257.763 58.2213 257.016 57.932 256.064 57.932C255.131 57.932 254.394 58.2213 253.852 58.8C253.311 59.3787 253.04 60.2187 253.04 61.32V64.036C253.04 65.156 253.311 66.0053 253.852 66.584C254.394 67.1627 255.131 67.452 256.064 67.452ZM274.782 67.564H274.642C274.511 67.9373 274.334 68.292 274.11 68.628C273.904 68.9453 273.634 69.2347 273.298 69.496C272.98 69.7573 272.588 69.9627 272.122 70.112C271.674 70.2613 271.151 70.336 270.554 70.336C269.042 70.336 267.884 69.8413 267.082 68.852C266.279 67.8627 265.878 66.4533 265.878 64.624V55.384H269.462V64.26C269.462 65.268 269.658 66.0427 270.05 66.584C270.442 67.1067 271.067 67.368 271.926 67.368C272.28 67.368 272.626 67.3213 272.962 67.228C273.316 67.1347 273.624 66.9947 273.886 66.808C274.147 66.6027 274.362 66.36 274.53 66.08C274.698 65.7813 274.782 65.436 274.782 65.044V55.384H278.366V70H274.782V67.564ZM282.507 70V55.384H286.091V58.408H286.231C286.324 58.016 286.464 57.6427 286.651 57.288C286.856 56.9147 287.117 56.588 287.435 56.308C287.752 56.028 288.125 55.804 288.555 55.636C289.003 55.468 289.516 55.384 290.095 55.384H290.879V58.772H289.759C288.545 58.772 287.631 58.9493 287.015 59.304C286.399 59.6587 286.091 60.2373 286.091 61.04V70H282.507ZM298.287 70.336C296.887 70.336 295.711 70.1027 294.759 69.636C293.807 69.1507 292.967 68.488 292.239 67.648L294.423 65.52C294.964 66.136 295.552 66.6213 296.187 66.976C296.84 67.3307 297.587 67.508 298.427 67.508C299.285 67.508 299.901 67.3587 300.275 67.06C300.667 66.7613 300.863 66.3507 300.863 65.828C300.863 65.3987 300.723 65.0627 300.443 64.82C300.181 64.5587 299.724 64.3813 299.071 64.288L297.615 64.092C296.028 63.8867 294.815 63.4387 293.975 62.748C293.153 62.0387 292.743 61.012 292.743 59.668C292.743 58.9587 292.873 58.324 293.135 57.764C293.396 57.1853 293.769 56.7 294.255 56.308C294.74 55.8973 295.319 55.5893 295.991 55.384C296.681 55.16 297.447 55.048 298.287 55.048C298.996 55.048 299.621 55.104 300.163 55.216C300.723 55.3093 301.227 55.4587 301.675 55.664C302.123 55.8507 302.533 56.0933 302.907 56.392C303.28 56.672 303.644 56.9893 303.999 57.344L301.899 59.444C301.469 58.996 300.956 58.6227 300.359 58.324C299.761 58.0253 299.108 57.876 298.399 57.876C297.615 57.876 297.045 58.016 296.691 58.296C296.355 58.576 296.187 58.94 296.187 59.388C296.187 59.8733 296.327 60.2467 296.607 60.508C296.905 60.7507 297.4 60.928 298.091 61.04L299.575 61.236C302.729 61.684 304.307 63.1213 304.307 65.548C304.307 66.2573 304.157 66.9107 303.859 67.508C303.579 68.0867 303.177 68.5907 302.655 69.02C302.132 69.4307 301.497 69.7573 300.751 70C300.023 70.224 299.201 70.336 298.287 70.336Z" fill="black"/>
</svg>
