<svg width="436" height="121" viewBox="0 0 436 121" fill="none" xmlns="http://www.w3.org/2000/svg">
<rect width="436" height="121" rx="30" fill="#F4F3F3"/>
<ellipse cx="77.2891" cy="60.1755" rx="39.72" ry="40.1755" fill="black"/>
<path d="M78.0549 72.0484C78.0549 72.4454 77.6341 72.7676 77.1156 72.7676H60.2095C59.6911 72.7676 59.2703 72.4454 59.2703 72.0484C59.2703 70.9394 59.6093 69.834 60.2518 68.8502C60.5467 68.3906 60.9214 67.9469 61.3619 67.5362C61.4149 67.4854 61.4688 67.4352 61.5236 67.3856C62.7273 66.2972 63.0272 63.6025 63.0272 61.9797C63.0272 61.3159 63.2291 60.655 63.6123 60.0681C63.7908 59.7905 64.0059 59.5352 64.267 59.2914C64.9357 58.6492 65.7848 58.1839 66.7813 57.9156C67.9891 57.5812 69.3369 57.5812 70.5222 57.9098C71.516 58.1781 72.3876 58.6492 73.0347 59.2691C73.3099 59.5266 73.5306 59.7855 73.7034 60.0545C74.0923 60.6492 74.2979 61.3159 74.2979 61.9797C74.2979 63.6019 74.5975 66.2988 75.8018 67.3855C75.8594 67.4374 75.916 67.49 75.9717 67.5434C76.4037 67.9469 76.7775 68.3906 77.0762 68.8545C77.7158 69.834 78.0549 70.9394 78.0549 72.0484ZM93.9842 68.8552C93.6836 68.3877 93.3079 67.949 92.8759 67.5463C92.8206 67.4929 92.7644 67.4403 92.7072 67.3885C91.5062 66.2991 91.2041 63.6012 91.2041 61.9797C91.2041 61.3181 90.9974 60.6492 90.6124 60.0523C90.4339 59.7862 90.2179 59.5273 89.9455 59.2684C89.2974 58.6499 88.424 58.1752 87.4284 57.9091C86.2449 57.5783 84.8925 57.5783 83.6902 57.9163C82.6947 58.1824 81.84 58.6499 81.1731 59.29C80.9101 59.5345 80.6941 59.7934 80.5156 60.0667C80.14 60.6564 79.9333 61.3181 79.9333 61.9797C79.9333 62.3382 79.9909 62.6866 80.0994 63.0197C80.4754 64.1742 80.2558 66.0398 79.2589 66.733C79.1388 66.8166 79.0216 66.9026 78.9073 66.9911C78.5311 67.2823 78.5048 67.8204 78.7593 68.2223C79.5295 69.3874 79.9333 70.7179 79.9333 72.0484C79.9333 72.3902 80.1681 72.7676 80.5099 72.7676H94.0218C94.5383 72.7676 94.961 72.4439 94.961 72.0484C94.961 70.9408 94.6229 69.8333 93.9842 68.8552ZM78.0549 46.8768H61.1487C59.5953 46.8768 58.3311 47.8448 58.3311 49.0343V51.1056C58.3311 52.2951 59.5953 53.2632 61.1487 53.2632H62.3815C65.7288 53.2632 69.0043 54.2332 71.8118 56.0558C71.9837 56.1665 72.1997 56.2262 72.4195 56.2262C72.4974 56.2262 72.5763 56.219 72.6534 56.2032C72.9483 56.145 73.1887 55.981 73.2977 55.7631C74.0595 54.2315 75.6227 53.2632 77.3333 53.2632H78.0549C79.6083 53.2632 80.8726 52.2951 80.8726 51.1056V49.0343C80.8726 47.8448 79.6083 46.8768 78.0549 46.8768ZM93.0825 44H78.0549C77.876 44 77.7009 44.013 77.5312 44.0377C76.3074 44.2162 76.8181 45.4384 78.0549 45.4384C80.6471 45.4384 82.751 47.0494 82.751 49.0343V51.1056C82.751 52.159 82.3826 53.2269 82.5487 54.2672L82.7604 55.5933C82.8074 55.881 83.0703 56.1183 83.4366 56.1975C83.5212 56.219 83.6057 56.2262 83.6902 56.2262C83.972 56.2262 84.2538 56.1255 84.4322 55.9529L86.7381 53.6948C88.4328 52.0351 90.7105 51.1056 93.0825 51.1056C94.6323 51.1056 95.9002 50.1347 95.9002 48.948V46.1576C95.9002 44.9709 94.6323 44 93.0825 44Z" fill="white"/>
<path d="M152.889 53.288C151.785 53.288 150.785 53.104 149.889 52.736C148.993 52.368 148.225 51.816 147.585 51.08C146.961 50.344 146.473 49.44 146.121 48.368C145.769 47.296 145.593 46.048 145.593 44.624C145.593 43.216 145.769 41.976 146.121 40.904C146.473 39.816 146.961 38.904 147.585 38.168C148.225 37.432 148.993 36.88 149.889 36.512C150.785 36.144 151.785 35.96 152.889 35.96C153.993 35.96 154.993 36.144 155.889 36.512C156.785 36.88 157.553 37.432 158.193 38.168C158.833 38.904 159.321 39.816 159.657 40.904C160.009 41.976 160.185 43.216 160.185 44.624C160.185 46.048 160.009 47.296 159.657 48.368C159.321 49.44 158.833 50.344 158.193 51.08C157.553 51.816 156.785 52.368 155.889 52.736C154.993 53.104 153.993 53.288 152.889 53.288ZM152.889 50.48C154.089 50.48 155.041 50.08 155.745 49.28C156.465 48.48 156.825 47.36 156.825 45.92V43.328C156.825 41.888 156.465 40.768 155.745 39.968C155.041 39.168 154.089 38.768 152.889 38.768C151.689 38.768 150.729 39.168 150.009 39.968C149.305 40.768 148.953 41.888 148.953 43.328V45.92C148.953 47.36 149.305 48.48 150.009 49.28C150.729 50.08 151.689 50.48 152.889 50.48ZM163.207 53V40.472H166.279V42.56H166.399C166.655 41.888 167.055 41.328 167.599 40.88C168.159 40.416 168.927 40.184 169.903 40.184C171.199 40.184 172.191 40.608 172.879 41.456C173.567 42.304 173.911 43.512 173.911 45.08V53H170.839V45.392C170.839 44.496 170.679 43.824 170.359 43.376C170.039 42.928 169.511 42.704 168.775 42.704C168.455 42.704 168.143 42.752 167.839 42.848C167.551 42.928 167.287 43.056 167.047 43.232C166.823 43.392 166.639 43.6 166.495 43.856C166.351 44.096 166.279 44.384 166.279 44.72V53H163.207ZM182.38 53.288C181.452 53.288 180.62 53.136 179.884 52.832C179.164 52.512 178.548 52.072 178.036 51.512C177.54 50.936 177.156 50.248 176.884 49.448C176.612 48.632 176.476 47.72 176.476 46.712C176.476 45.72 176.604 44.824 176.86 44.024C177.132 43.224 177.516 42.544 178.012 41.984C178.508 41.408 179.116 40.968 179.836 40.664C180.556 40.344 181.372 40.184 182.284 40.184C183.26 40.184 184.108 40.352 184.828 40.688C185.548 41.024 186.14 41.48 186.604 42.056C187.068 42.632 187.412 43.304 187.636 44.072C187.876 44.824 187.996 45.632 187.996 46.496V47.504H179.668V47.816C179.668 48.728 179.924 49.464 180.436 50.024C180.948 50.568 181.708 50.84 182.716 50.84C183.484 50.84 184.108 50.68 184.588 50.36C185.084 50.04 185.524 49.632 185.908 49.136L187.564 50.984C187.052 51.704 186.348 52.272 185.452 52.688C184.572 53.088 183.548 53.288 182.38 53.288ZM182.332 42.488C181.516 42.488 180.868 42.76 180.388 43.304C179.908 43.848 179.668 44.552 179.668 45.416V45.608H184.804V45.392C184.804 44.528 184.588 43.832 184.156 43.304C183.74 42.76 183.132 42.488 182.332 42.488ZM190.549 47.216V44.168H197.413V47.216H190.549ZM205.792 53.288C204.896 53.288 204.088 53.136 203.368 52.832C202.664 52.528 202.056 52.088 201.544 51.512C201.048 50.936 200.664 50.248 200.392 49.448C200.12 48.632 199.984 47.72 199.984 46.712C199.984 45.704 200.12 44.8 200.392 44C200.664 43.2 201.048 42.52 201.544 41.96C202.056 41.384 202.664 40.944 203.368 40.64C204.088 40.336 204.896 40.184 205.792 40.184C206.688 40.184 207.496 40.336 208.216 40.64C208.936 40.944 209.544 41.384 210.04 41.96C210.552 42.52 210.944 43.2 211.216 44C211.488 44.8 211.624 45.704 211.624 46.712C211.624 47.72 211.488 48.632 211.216 49.448C210.944 50.248 210.552 50.936 210.04 51.512C209.544 52.088 208.936 52.528 208.216 52.832C207.496 53.136 206.688 53.288 205.792 53.288ZM205.792 50.816C206.608 50.816 207.248 50.568 207.712 50.072C208.176 49.576 208.408 48.848 208.408 47.888V45.56C208.408 44.616 208.176 43.896 207.712 43.4C207.248 42.904 206.608 42.656 205.792 42.656C204.992 42.656 204.36 42.904 203.896 43.4C203.432 43.896 203.2 44.616 203.2 45.56V47.888C203.2 48.848 203.432 49.576 203.896 50.072C204.36 50.568 204.992 50.816 205.792 50.816ZM214.347 53V40.472H217.419V42.56H217.539C217.795 41.888 218.195 41.328 218.739 40.88C219.299 40.416 220.067 40.184 221.043 40.184C222.339 40.184 223.331 40.608 224.019 41.456C224.707 42.304 225.051 43.512 225.051 45.08V53H221.979V45.392C221.979 44.496 221.819 43.824 221.499 43.376C221.179 42.928 220.651 42.704 219.915 42.704C219.595 42.704 219.283 42.752 218.979 42.848C218.691 42.928 218.427 43.056 218.187 43.232C217.963 43.392 217.779 43.6 217.635 43.856C217.491 44.096 217.419 44.384 217.419 44.72V53H214.347ZM228.073 47.216V44.168H234.937V47.216H228.073ZM245.232 53.288C244.128 53.288 243.128 53.104 242.232 52.736C241.336 52.368 240.568 51.816 239.928 51.08C239.304 50.344 238.816 49.44 238.464 48.368C238.112 47.296 237.936 46.048 237.936 44.624C237.936 43.216 238.112 41.976 238.464 40.904C238.816 39.816 239.304 38.904 239.928 38.168C240.568 37.432 241.336 36.88 242.232 36.512C243.128 36.144 244.128 35.96 245.232 35.96C246.336 35.96 247.336 36.144 248.232 36.512C249.128 36.88 249.896 37.432 250.536 38.168C251.176 38.904 251.664 39.816 252 40.904C252.352 41.976 252.528 43.216 252.528 44.624C252.528 46.048 252.352 47.296 252 48.368C251.664 49.44 251.176 50.344 250.536 51.08C249.896 51.816 249.128 52.368 248.232 52.736C247.336 53.104 246.336 53.288 245.232 53.288ZM245.232 50.48C246.432 50.48 247.384 50.08 248.088 49.28C248.808 48.48 249.168 47.36 249.168 45.92V43.328C249.168 41.888 248.808 40.768 248.088 39.968C247.384 39.168 246.432 38.768 245.232 38.768C244.032 38.768 243.072 39.168 242.352 39.968C241.648 40.768 241.296 41.888 241.296 43.328V45.92C241.296 47.36 241.648 48.48 242.352 49.28C243.072 50.08 244.032 50.48 245.232 50.48ZM255.55 53V40.472H258.622V42.56H258.742C258.998 41.888 259.398 41.328 259.942 40.88C260.502 40.416 261.27 40.184 262.246 40.184C263.542 40.184 264.534 40.608 265.222 41.456C265.91 42.304 266.254 43.512 266.254 45.08V53H263.182V45.392C263.182 44.496 263.022 43.824 262.702 43.376C262.382 42.928 261.854 42.704 261.118 42.704C260.798 42.704 260.486 42.752 260.182 42.848C259.894 42.928 259.63 43.056 259.39 43.232C259.166 43.392 258.982 43.6 258.838 43.856C258.694 44.096 258.622 44.384 258.622 44.72V53H255.55ZM274.724 53.288C273.796 53.288 272.964 53.136 272.228 52.832C271.508 52.512 270.892 52.072 270.38 51.512C269.884 50.936 269.5 50.248 269.228 49.448C268.956 48.632 268.82 47.72 268.82 46.712C268.82 45.72 268.948 44.824 269.204 44.024C269.476 43.224 269.86 42.544 270.356 41.984C270.852 41.408 271.46 40.968 272.18 40.664C272.9 40.344 273.716 40.184 274.628 40.184C275.604 40.184 276.452 40.352 277.172 40.688C277.892 41.024 278.484 41.48 278.948 42.056C279.412 42.632 279.756 43.304 279.98 44.072C280.22 44.824 280.34 45.632 280.34 46.496V47.504H272.012V47.816C272.012 48.728 272.268 49.464 272.78 50.024C273.292 50.568 274.052 50.84 275.06 50.84C275.828 50.84 276.452 50.68 276.932 50.36C277.428 50.04 277.868 49.632 278.252 49.136L279.908 50.984C279.396 51.704 278.692 52.272 277.796 52.688C276.916 53.088 275.892 53.288 274.724 53.288ZM274.676 42.488C273.86 42.488 273.212 42.76 272.732 43.304C272.252 43.848 272.012 44.552 272.012 45.416V45.608H277.148V45.392C277.148 44.528 276.932 43.832 276.5 43.304C276.084 42.76 275.476 42.488 274.676 42.488ZM295.41 53.288C294.306 53.288 293.306 53.112 292.41 52.76C291.53 52.392 290.77 51.848 290.13 51.128C289.506 50.408 289.026 49.52 288.69 48.464C288.354 47.392 288.186 46.152 288.186 44.744C288.186 43.336 288.354 42.088 288.69 41C289.026 39.896 289.506 38.976 290.13 38.24C290.77 37.488 291.53 36.92 292.41 36.536C293.306 36.152 294.306 35.96 295.41 35.96C296.914 35.96 298.162 36.28 299.154 36.92C300.146 37.56 300.938 38.528 301.53 39.824L298.818 41.264C298.578 40.512 298.186 39.912 297.642 39.464C297.098 39 296.354 38.768 295.41 38.768C294.226 38.768 293.282 39.168 292.578 39.968C291.89 40.768 291.546 41.888 291.546 43.328V45.968C291.546 47.424 291.89 48.544 292.578 49.328C293.282 50.096 294.226 50.48 295.41 50.48C296.354 50.48 297.122 50.224 297.714 49.712C298.322 49.2 298.762 48.568 299.034 47.816L301.602 49.328C300.994 50.576 300.186 51.552 299.178 52.256C298.17 52.944 296.914 53.288 295.41 53.288ZM304.113 35.24H307.185V42.56H307.305C307.561 41.888 307.961 41.328 308.505 40.88C309.065 40.416 309.833 40.184 310.809 40.184C312.105 40.184 313.097 40.608 313.785 41.456C314.473 42.304 314.817 43.512 314.817 45.08V53H311.745V45.392C311.745 44.496 311.585 43.824 311.265 43.376C310.945 42.928 310.417 42.704 309.681 42.704C309.361 42.704 309.049 42.752 308.745 42.848C308.457 42.928 308.193 43.056 307.953 43.232C307.729 43.392 307.545 43.6 307.401 43.856C307.257 44.096 307.185 44.384 307.185 44.72V53H304.113V35.24ZM327.438 53C326.766 53 326.23 52.808 325.83 52.424C325.446 52.024 325.206 51.496 325.11 50.84H324.966C324.758 51.656 324.334 52.272 323.694 52.688C323.054 53.088 322.262 53.288 321.318 53.288C320.038 53.288 319.054 52.952 318.366 52.28C317.678 51.608 317.334 50.712 317.334 49.592C317.334 48.296 317.798 47.336 318.726 46.712C319.654 46.072 320.974 45.752 322.686 45.752H324.822V44.84C324.822 44.136 324.638 43.592 324.27 43.208C323.902 42.824 323.31 42.632 322.494 42.632C321.774 42.632 321.19 42.792 320.742 43.112C320.31 43.416 319.942 43.784 319.638 44.216L317.814 42.584C318.278 41.864 318.894 41.288 319.662 40.856C320.43 40.408 321.446 40.184 322.71 40.184C324.406 40.184 325.694 40.568 326.574 41.336C327.454 42.104 327.894 43.208 327.894 44.648V50.552H329.142V53H327.438ZM322.35 51.056C323.038 51.056 323.622 50.904 324.102 50.6C324.582 50.296 324.822 49.848 324.822 49.256V47.6H322.854C321.254 47.6 320.454 48.112 320.454 49.136V49.544C320.454 50.056 320.614 50.44 320.934 50.696C321.27 50.936 321.742 51.056 322.35 51.056ZM335.447 53C334.391 53 333.583 52.728 333.023 52.184C332.479 51.624 332.207 50.832 332.207 49.808V42.92H330.359V40.472H331.319C331.783 40.472 332.095 40.368 332.255 40.16C332.431 39.936 332.519 39.608 332.519 39.176V37.04H335.279V40.472H337.847V42.92H335.279V50.552H337.655V53H335.447ZM144.897 71.472H147.849L149.121 76.632L150.105 80.928H150.201L151.353 76.632L152.817 71.472H155.601L157.113 76.632L158.289 80.928H158.385L159.369 76.632L160.617 71.472H163.473L160.041 84H156.729L155.121 78.48L154.185 75.072H154.113L153.201 78.48L151.617 84H148.353L144.897 71.472ZM167.321 69.648C166.681 69.648 166.217 69.504 165.929 69.216C165.657 68.928 165.521 68.56 165.521 68.112V67.632C165.521 67.184 165.657 66.816 165.929 66.528C166.217 66.24 166.681 66.096 167.321 66.096C167.945 66.096 168.401 66.24 168.689 66.528C168.977 66.816 169.121 67.184 169.121 67.632V68.112C169.121 68.56 168.977 68.928 168.689 69.216C168.401 69.504 167.945 69.648 167.321 69.648ZM165.785 71.472H168.857V84H165.785V71.472ZM176.33 84C175.274 84 174.466 83.728 173.906 83.184C173.362 82.624 173.09 81.832 173.09 80.808V73.92H171.242V71.472H172.202C172.666 71.472 172.978 71.368 173.138 71.16C173.314 70.936 173.402 70.608 173.402 70.176V68.04H176.162V71.472H178.73V73.92H176.162V81.552H178.538V84H176.33ZM181.394 66.24H184.466V73.56H184.586C184.842 72.888 185.242 72.328 185.786 71.88C186.346 71.416 187.114 71.184 188.09 71.184C189.386 71.184 190.378 71.608 191.066 72.456C191.754 73.304 192.098 74.512 192.098 76.08V84H189.026V76.392C189.026 75.496 188.866 74.824 188.546 74.376C188.226 73.928 187.698 73.704 186.962 73.704C186.642 73.704 186.33 73.752 186.026 73.848C185.738 73.928 185.474 74.056 185.234 74.232C185.01 74.392 184.826 74.6 184.682 74.856C184.538 75.096 184.466 75.384 184.466 75.72V84H181.394V66.24ZM200.671 84V81.456H202.879V69.792H200.671V67.248H208.279V69.792H206.047V81.456H208.279V84H200.671ZM211.324 84V71.472H214.396V73.56H214.516C214.772 72.888 215.172 72.328 215.716 71.88C216.276 71.416 217.044 71.184 218.02 71.184C219.316 71.184 220.308 71.608 220.996 72.456C221.684 73.304 222.028 74.512 222.028 76.08V84H218.956V76.392C218.956 75.496 218.796 74.824 218.476 74.376C218.156 73.928 217.628 73.704 216.892 73.704C216.572 73.704 216.26 73.752 215.956 73.848C215.668 73.928 215.404 74.056 215.164 74.232C214.94 74.392 214.756 74.6 214.612 74.856C214.468 75.096 214.396 75.384 214.396 75.72V84H211.324ZM229.537 84.288C228.337 84.288 227.329 84.088 226.513 83.688C225.697 83.272 224.977 82.704 224.353 81.984L226.225 80.16C226.689 80.688 227.193 81.104 227.737 81.408C228.297 81.712 228.937 81.864 229.657 81.864C230.393 81.864 230.921 81.736 231.241 81.48C231.577 81.224 231.745 80.872 231.745 80.424C231.745 80.056 231.625 79.768 231.385 79.56C231.161 79.336 230.769 79.184 230.209 79.104L228.961 78.936C227.601 78.76 226.561 78.376 225.841 77.784C225.137 77.176 224.785 76.296 224.785 75.144C224.785 74.536 224.897 73.992 225.121 73.512C225.345 73.016 225.665 72.6 226.081 72.264C226.497 71.912 226.993 71.648 227.569 71.472C228.161 71.28 228.817 71.184 229.537 71.184C230.145 71.184 230.681 71.232 231.145 71.328C231.625 71.408 232.057 71.536 232.441 71.712C232.825 71.872 233.177 72.08 233.497 72.336C233.817 72.576 234.129 72.848 234.433 73.152L232.633 74.952C232.265 74.568 231.825 74.248 231.313 73.992C230.801 73.736 230.241 73.608 229.633 73.608C228.961 73.608 228.473 73.728 228.169 73.968C227.881 74.208 227.737 74.52 227.737 74.904C227.737 75.32 227.857 75.64 228.097 75.864C228.353 76.072 228.777 76.224 229.369 76.32L230.641 76.488C233.345 76.872 234.697 78.104 234.697 80.184C234.697 80.792 234.569 81.352 234.313 81.864C234.073 82.36 233.729 82.792 233.281 83.16C232.833 83.512 232.289 83.792 231.649 84C231.025 84.192 230.321 84.288 229.537 84.288ZM241.134 84C240.078 84 239.27 83.728 238.71 83.184C238.166 82.624 237.894 81.832 237.894 80.808V73.92H236.046V71.472H237.006C237.47 71.472 237.782 71.368 237.942 71.16C238.118 70.936 238.206 70.608 238.206 70.176V68.04H240.966V71.472H243.534V73.92H240.966V81.552H243.342V84H241.134ZM246.199 84V71.472H249.271V74.064H249.391C249.471 73.728 249.591 73.408 249.751 73.104C249.927 72.784 250.151 72.504 250.423 72.264C250.695 72.024 251.015 71.832 251.383 71.688C251.767 71.544 252.207 71.472 252.703 71.472H253.375V74.376H252.415C251.375 74.376 250.591 74.528 250.063 74.832C249.535 75.136 249.271 75.632 249.271 76.32V84H246.199ZM263.109 81.912H262.989C262.877 82.232 262.725 82.536 262.533 82.824C262.357 83.096 262.125 83.344 261.837 83.568C261.565 83.792 261.229 83.968 260.829 84.096C260.445 84.224 259.997 84.288 259.485 84.288C258.189 84.288 257.197 83.864 256.509 83.016C255.821 82.168 255.477 80.96 255.477 79.392V71.472H258.549V79.08C258.549 79.944 258.717 80.608 259.053 81.072C259.389 81.52 259.925 81.744 260.661 81.744C260.965 81.744 261.261 81.704 261.549 81.624C261.853 81.544 262.117 81.424 262.341 81.264C262.565 81.088 262.749 80.88 262.893 80.64C263.037 80.384 263.109 80.088 263.109 79.752V71.472H266.181V84H263.109V81.912ZM274.674 84.288C273.746 84.288 272.922 84.136 272.202 83.832C271.482 83.528 270.874 83.088 270.378 82.512C269.898 81.936 269.53 81.248 269.274 80.448C269.018 79.632 268.89 78.72 268.89 77.712C268.89 76.704 269.018 75.8 269.274 75C269.53 74.2 269.898 73.52 270.378 72.96C270.874 72.384 271.482 71.944 272.202 71.64C272.922 71.336 273.746 71.184 274.674 71.184C275.938 71.184 276.978 71.464 277.794 72.024C278.626 72.584 279.226 73.36 279.594 74.352L277.074 75.48C276.93 74.952 276.658 74.52 276.258 74.184C275.874 73.832 275.346 73.656 274.674 73.656C273.81 73.656 273.162 73.928 272.73 74.472C272.314 75.016 272.106 75.728 272.106 76.608V78.888C272.106 79.768 272.314 80.48 272.73 81.024C273.162 81.552 273.81 81.816 274.674 81.816C275.41 81.816 275.978 81.632 276.378 81.264C276.778 80.88 277.09 80.408 277.314 79.848L279.666 80.976C279.25 82.08 278.618 82.912 277.77 83.472C276.922 84.016 275.89 84.288 274.674 84.288ZM285.947 84C284.891 84 284.083 83.728 283.523 83.184C282.979 82.624 282.707 81.832 282.707 80.808V73.92H280.859V71.472H281.819C282.283 71.472 282.595 71.368 282.755 71.16C282.931 70.936 283.019 70.608 283.019 70.176V68.04H285.779V71.472H288.347V73.92H285.779V81.552H288.155V84H285.947ZM295.886 84.288C294.99 84.288 294.182 84.136 293.462 83.832C292.758 83.528 292.15 83.088 291.638 82.512C291.142 81.936 290.758 81.248 290.486 80.448C290.214 79.632 290.078 78.72 290.078 77.712C290.078 76.704 290.214 75.8 290.486 75C290.758 74.2 291.142 73.52 291.638 72.96C292.15 72.384 292.758 71.944 293.462 71.64C294.182 71.336 294.99 71.184 295.886 71.184C296.782 71.184 297.59 71.336 298.31 71.64C299.03 71.944 299.638 72.384 300.134 72.96C300.646 73.52 301.038 74.2 301.31 75C301.582 75.8 301.718 76.704 301.718 77.712C301.718 78.72 301.582 79.632 301.31 80.448C301.038 81.248 300.646 81.936 300.134 82.512C299.638 83.088 299.03 83.528 298.31 83.832C297.59 84.136 296.782 84.288 295.886 84.288ZM295.886 81.816C296.702 81.816 297.342 81.568 297.806 81.072C298.27 80.576 298.502 79.848 298.502 78.888V76.56C298.502 75.616 298.27 74.896 297.806 74.4C297.342 73.904 296.702 73.656 295.886 73.656C295.086 73.656 294.454 73.904 293.99 74.4C293.526 74.896 293.294 75.616 293.294 76.56V78.888C293.294 79.848 293.526 80.576 293.99 81.072C294.454 81.568 295.086 81.816 295.886 81.816ZM304.441 84V71.472H307.513V74.064H307.633C307.713 73.728 307.833 73.408 307.993 73.104C308.169 72.784 308.393 72.504 308.665 72.264C308.937 72.024 309.257 71.832 309.625 71.688C310.009 71.544 310.449 71.472 310.945 71.472H311.617V74.376H310.657C309.617 74.376 308.833 74.528 308.305 74.832C307.777 75.136 307.513 75.632 307.513 76.32V84H304.441Z" fill="black"/>
</svg>
