<svg width="436" height="121" viewBox="0 0 436 121" fill="none" xmlns="http://www.w3.org/2000/svg">
<rect width="436" height="121" rx="30" fill="#F4F3F3"/>
<ellipse cx="77.2891" cy="60.1755" rx="39.72" ry="40.1755" fill="black"/>
<path d="M100.349 73.6352V77.6502H87.2988V75.0652V73.6352C87.2988 73.3602 87.2988 73.1402 87.3532 72.9202C87.3532 72.8102 87.3532 72.7002 87.4076 72.6452C87.4076 72.5352 87.4619 72.4252 87.4619 72.3152C87.8426 70.4452 88.9845 68.9052 90.5614 67.9702C89.637 67.0902 89.0389 65.8252 89.0389 64.3952C89.0389 61.8102 91.0508 59.7202 93.5521 59.5552C93.6608 59.5552 93.7152 59.5552 93.824 59.5552C94.0415 59.5552 94.2046 59.5552 94.4221 59.6102C94.4765 59.6102 94.5309 59.6102 94.5852 59.6102C94.7484 59.6102 94.9115 59.6652 95.0746 59.7202C95.129 59.7202 95.129 59.7202 95.1834 59.7202C95.564 59.8302 95.9447 59.9952 96.3253 60.2152C97.7391 61.0402 98.7179 62.6352 98.7179 64.3952C98.7179 65.8252 98.1197 67.0352 97.1953 67.9702C99.0441 69.0702 100.349 71.1602 100.349 73.6352ZM69.7896 72.5902C69.7896 72.4802 69.7352 72.3702 69.7352 72.2602C69.3546 70.3902 68.2127 68.8502 66.6358 67.9152C67.5602 67.0352 68.1583 65.7702 68.1583 64.3402C68.1583 61.7552 66.1464 59.6652 63.6451 59.5002C63.5363 59.5002 63.4819 59.5002 63.3732 59.5002C63.1557 59.5002 62.9925 59.5002 62.775 59.5552C62.7207 59.5552 62.6663 59.5552 62.6119 59.5552C62.4488 59.5552 62.2857 59.6102 62.1225 59.6652C62.0681 59.6652 62.0681 59.6652 62.0138 59.6652C61.6331 59.7752 61.2525 59.9402 60.8719 60.1602C59.4581 60.9852 58.4793 62.5802 58.4793 64.3402C58.4793 65.7702 59.0774 66.9802 60.0018 67.9152C58.0443 69.0702 56.7393 71.1602 56.7393 73.6352V77.6502H69.7896V75.0652V73.6352C69.7896 73.3602 69.7896 73.1402 69.7352 72.9202C69.844 72.7552 69.844 72.7002 69.7896 72.5902ZM74.5203 43.5502C74.6291 43.7152 74.7379 43.8802 74.8466 43.9902C74.901 44.0452 74.901 44.0452 74.9554 44.1002C75.0641 44.2652 75.2272 44.4302 75.3904 44.5402C73.4328 45.6952 72.1278 47.7852 72.1278 50.2602V54.2752H85.1781V50.2602C85.1781 48.0052 84.0906 46.0802 82.4049 44.8702C82.2418 44.7602 82.0787 44.6502 81.9155 44.5402C82.0787 44.3752 82.1874 44.2652 82.3506 44.1002C82.4049 44.0452 82.4049 44.0452 82.4593 43.9902C82.5681 43.8252 82.6768 43.7152 82.7856 43.5502C82.7856 43.5502 82.7856 43.5502 82.7856 43.4952C83.0031 43.1102 83.1662 42.7252 83.3293 42.2852C83.4381 41.9002 83.4925 41.4602 83.4925 41.0202C83.4925 38.3252 81.3174 36.1802 78.7073 36.1802C76.0429 36.1802 73.9222 38.3802 73.9222 41.0202C73.8135 41.9002 74.031 42.7802 74.5203 43.5502C74.5203 43.4952 74.5203 43.4952 74.5203 43.5502ZM63.7538 57.8502C64.2976 52.7902 67.2883 48.5002 71.5296 46.1902C71.9103 45.4752 72.454 44.8152 73.0522 44.2102C72.7803 43.7702 72.5628 43.2752 72.454 42.7252C66.092 45.1452 61.47 51.1402 60.9806 58.2902C61.7419 57.9602 62.5575 57.7952 63.3732 57.7952C63.4819 57.8502 63.5907 57.8502 63.7538 57.8502ZM71.4753 72.8102C71.4753 73.0852 71.5296 73.3602 71.5296 73.6352V75.8902C73.7047 76.8252 76.0973 77.3752 78.5986 77.3752C81.0999 77.3752 83.4925 76.8252 85.6675 75.8902V73.6352C85.6675 73.3602 85.6675 73.0852 85.7219 72.8102C83.6012 73.9652 81.2086 74.6252 78.5986 74.6252C75.9885 74.6252 73.596 73.9652 71.4753 72.8102ZM93.4433 57.8502C93.5521 57.8502 93.6608 57.8502 93.824 57.8502C94.694 57.8502 95.5096 58.0152 96.2165 58.3452C95.7815 51.1952 91.1052 45.2002 84.7431 42.7802C84.58 43.2752 84.4169 43.7702 84.145 44.2652C84.7431 44.8152 85.2869 45.5302 85.6675 46.2452C89.9089 48.5002 92.8996 52.8452 93.4433 57.8502Z" fill="white"/>
<path d="M151.521 53.288C150.081 53.288 148.857 53.032 147.849 52.52C146.857 52.008 146.001 51.336 145.281 50.504L147.417 48.44C147.993 49.112 148.633 49.624 149.337 49.976C150.057 50.328 150.849 50.504 151.713 50.504C152.689 50.504 153.425 50.296 153.921 49.88C154.417 49.448 154.665 48.872 154.665 48.152C154.665 47.592 154.505 47.136 154.185 46.784C153.865 46.432 153.265 46.176 152.385 46.016L150.801 45.776C147.457 45.248 145.785 43.624 145.785 40.904C145.785 40.152 145.921 39.472 146.193 38.864C146.481 38.256 146.889 37.736 147.417 37.304C147.945 36.872 148.577 36.544 149.313 36.32C150.065 36.08 150.913 35.96 151.857 35.96C153.121 35.96 154.225 36.168 155.169 36.584C156.113 37 156.921 37.616 157.593 38.432L155.433 40.472C155.017 39.96 154.513 39.544 153.921 39.224C153.329 38.904 152.585 38.744 151.689 38.744C150.777 38.744 150.089 38.92 149.625 39.272C149.177 39.608 148.953 40.088 148.953 40.712C148.953 41.352 149.137 41.824 149.505 42.128C149.873 42.432 150.465 42.656 151.281 42.8L152.841 43.088C154.537 43.392 155.785 43.936 156.585 44.72C157.401 45.488 157.809 46.568 157.809 47.96C157.809 48.76 157.665 49.488 157.377 50.144C157.105 50.784 156.697 51.344 156.153 51.824C155.625 52.288 154.969 52.648 154.185 52.904C153.417 53.16 152.529 53.288 151.521 53.288ZM164.611 53C163.555 53 162.747 52.728 162.187 52.184C161.643 51.624 161.371 50.832 161.371 49.808V42.92H159.523V40.472H160.483C160.947 40.472 161.259 40.368 161.419 40.16C161.595 39.936 161.683 39.608 161.683 39.176V37.04H164.443V40.472H167.011V42.92H164.443V50.552H166.819V53H164.611ZM177.163 50.912H177.043C176.931 51.232 176.779 51.536 176.587 51.824C176.411 52.096 176.179 52.344 175.891 52.568C175.619 52.792 175.283 52.968 174.883 53.096C174.499 53.224 174.051 53.288 173.539 53.288C172.243 53.288 171.251 52.864 170.563 52.016C169.875 51.168 169.531 49.96 169.531 48.392V40.472H172.603V48.08C172.603 48.944 172.771 49.608 173.107 50.072C173.443 50.52 173.979 50.744 174.715 50.744C175.019 50.744 175.315 50.704 175.603 50.624C175.907 50.544 176.171 50.424 176.395 50.264C176.619 50.088 176.803 49.88 176.947 49.64C177.091 49.384 177.163 49.088 177.163 48.752V40.472H180.235V53H177.163V50.912ZM191.561 50.912H191.441C191.217 51.632 190.793 52.208 190.169 52.64C189.545 53.072 188.817 53.288 187.985 53.288C186.401 53.288 185.185 52.72 184.337 51.584C183.505 50.448 183.089 48.824 183.089 46.712C183.089 44.616 183.505 43.008 184.337 41.888C185.185 40.752 186.401 40.184 187.985 40.184C188.817 40.184 189.545 40.4 190.169 40.832C190.793 41.248 191.217 41.816 191.441 42.536H191.561V35.24H194.633V53H191.561V50.912ZM188.969 50.744C189.705 50.744 190.321 50.568 190.817 50.216C191.313 49.864 191.561 49.36 191.561 48.704V44.72C191.561 44.112 191.313 43.624 190.817 43.256C190.321 42.888 189.705 42.704 188.969 42.704C188.169 42.704 187.521 42.976 187.025 43.52C186.545 44.048 186.305 44.76 186.305 45.656V47.816C186.305 48.712 186.545 49.424 187.025 49.952C187.521 50.48 188.169 50.744 188.969 50.744ZM203.239 53.288C202.311 53.288 201.479 53.136 200.743 52.832C200.023 52.512 199.407 52.072 198.895 51.512C198.399 50.936 198.015 50.248 197.743 49.448C197.471 48.632 197.335 47.72 197.335 46.712C197.335 45.72 197.463 44.824 197.719 44.024C197.991 43.224 198.375 42.544 198.871 41.984C199.367 41.408 199.975 40.968 200.695 40.664C201.415 40.344 202.231 40.184 203.143 40.184C204.119 40.184 204.967 40.352 205.687 40.688C206.407 41.024 206.999 41.48 207.463 42.056C207.927 42.632 208.271 43.304 208.495 44.072C208.735 44.824 208.855 45.632 208.855 46.496V47.504H200.527V47.816C200.527 48.728 200.783 49.464 201.295 50.024C201.807 50.568 202.567 50.84 203.575 50.84C204.343 50.84 204.967 50.68 205.447 50.36C205.943 50.04 206.383 49.632 206.767 49.136L208.423 50.984C207.911 51.704 207.207 52.272 206.311 52.688C205.431 53.088 204.407 53.288 203.239 53.288ZM203.191 42.488C202.375 42.488 201.727 42.76 201.247 43.304C200.767 43.848 200.527 44.552 200.527 45.416V45.608H205.663V45.392C205.663 44.528 205.447 43.832 205.015 43.304C204.599 42.76 203.991 42.488 203.191 42.488ZM211.558 53V40.472H214.63V42.56H214.75C215.006 41.888 215.406 41.328 215.95 40.88C216.51 40.416 217.278 40.184 218.254 40.184C219.55 40.184 220.542 40.608 221.23 41.456C221.918 42.304 222.262 43.512 222.262 45.08V53H219.19V45.392C219.19 44.496 219.03 43.824 218.71 43.376C218.39 42.928 217.862 42.704 217.126 42.704C216.806 42.704 216.494 42.752 216.19 42.848C215.902 42.928 215.638 43.056 215.398 43.232C215.174 43.392 214.99 43.6 214.846 43.856C214.702 44.096 214.63 44.384 214.63 44.72V53H211.558ZM229.58 53C228.524 53 227.716 52.728 227.156 52.184C226.612 51.624 226.34 50.832 226.34 49.808V42.92H224.492V40.472H225.452C225.916 40.472 226.228 40.368 226.388 40.16C226.564 39.936 226.652 39.608 226.652 39.176V37.04H229.412V40.472H231.98V42.92H229.412V50.552H231.788V53H229.58ZM233.955 47.216V44.168H240.819V47.216H233.955ZM247.908 53C246.852 53 246.044 52.728 245.484 52.184C244.94 51.624 244.668 50.832 244.668 49.808V42.92H242.82V40.472H243.78C244.244 40.472 244.556 40.368 244.716 40.16C244.892 39.936 244.98 39.608 244.98 39.176V37.04H247.74V40.472H250.308V42.92H247.74V50.552H250.116V53H247.908ZM257.847 53.288C256.951 53.288 256.143 53.136 255.423 52.832C254.719 52.528 254.111 52.088 253.599 51.512C253.103 50.936 252.719 50.248 252.447 49.448C252.175 48.632 252.039 47.72 252.039 46.712C252.039 45.704 252.175 44.8 252.447 44C252.719 43.2 253.103 42.52 253.599 41.96C254.111 41.384 254.719 40.944 255.423 40.64C256.143 40.336 256.951 40.184 257.847 40.184C258.743 40.184 259.551 40.336 260.271 40.64C260.991 40.944 261.599 41.384 262.095 41.96C262.607 42.52 262.999 43.2 263.271 44C263.543 44.8 263.679 45.704 263.679 46.712C263.679 47.72 263.543 48.632 263.271 49.448C262.999 50.248 262.607 50.936 262.095 51.512C261.599 52.088 260.991 52.528 260.271 52.832C259.551 53.136 258.743 53.288 257.847 53.288ZM257.847 50.816C258.663 50.816 259.303 50.568 259.767 50.072C260.231 49.576 260.463 48.848 260.463 47.888V45.56C260.463 44.616 260.231 43.896 259.767 43.4C259.303 42.904 258.663 42.656 257.847 42.656C257.047 42.656 256.415 42.904 255.951 43.4C255.487 43.896 255.255 44.616 255.255 45.56V47.888C255.255 48.848 255.487 49.576 255.951 50.072C256.415 50.568 257.047 50.816 257.847 50.816ZM266.252 47.216V44.168H273.116V47.216H266.252ZM281.224 53.288C279.784 53.288 278.56 53.032 277.552 52.52C276.56 52.008 275.704 51.336 274.984 50.504L277.12 48.44C277.696 49.112 278.336 49.624 279.04 49.976C279.76 50.328 280.552 50.504 281.416 50.504C282.392 50.504 283.128 50.296 283.624 49.88C284.12 49.448 284.368 48.872 284.368 48.152C284.368 47.592 284.208 47.136 283.888 46.784C283.568 46.432 282.968 46.176 282.088 46.016L280.504 45.776C277.16 45.248 275.488 43.624 275.488 40.904C275.488 40.152 275.624 39.472 275.896 38.864C276.184 38.256 276.592 37.736 277.12 37.304C277.648 36.872 278.28 36.544 279.016 36.32C279.768 36.08 280.616 35.96 281.56 35.96C282.824 35.96 283.928 36.168 284.872 36.584C285.816 37 286.624 37.616 287.296 38.432L285.136 40.472C284.72 39.96 284.216 39.544 283.624 39.224C283.032 38.904 282.288 38.744 281.392 38.744C280.48 38.744 279.792 38.92 279.328 39.272C278.88 39.608 278.656 40.088 278.656 40.712C278.656 41.352 278.84 41.824 279.208 42.128C279.576 42.432 280.168 42.656 280.984 42.8L282.544 43.088C284.24 43.392 285.488 43.936 286.288 44.72C287.104 45.488 287.512 46.568 287.512 47.96C287.512 48.76 287.368 49.488 287.08 50.144C286.808 50.784 286.4 51.344 285.856 51.824C285.328 52.288 284.672 52.648 283.888 52.904C283.12 53.16 282.232 53.288 281.224 53.288ZM294.314 53C293.258 53 292.45 52.728 291.89 52.184C291.346 51.624 291.074 50.832 291.074 49.808V42.92H289.226V40.472H290.186C290.65 40.472 290.962 40.368 291.122 40.16C291.298 39.936 291.386 39.608 291.386 39.176V37.04H294.146V40.472H296.714V42.92H294.146V50.552H296.522V53H294.314ZM306.867 50.912H306.747C306.635 51.232 306.483 51.536 306.291 51.824C306.115 52.096 305.883 52.344 305.595 52.568C305.323 52.792 304.987 52.968 304.587 53.096C304.203 53.224 303.755 53.288 303.243 53.288C301.947 53.288 300.955 52.864 300.267 52.016C299.579 51.168 299.235 49.96 299.235 48.392V40.472H302.307V48.08C302.307 48.944 302.475 49.608 302.811 50.072C303.147 50.52 303.683 50.744 304.419 50.744C304.723 50.744 305.019 50.704 305.307 50.624C305.611 50.544 305.875 50.424 306.099 50.264C306.323 50.088 306.507 49.88 306.651 49.64C306.795 49.384 306.867 49.088 306.867 48.752V40.472H309.939V53H306.867V50.912ZM321.264 50.912H321.144C320.92 51.632 320.496 52.208 319.872 52.64C319.248 53.072 318.52 53.288 317.688 53.288C316.104 53.288 314.888 52.72 314.04 51.584C313.208 50.448 312.792 48.824 312.792 46.712C312.792 44.616 313.208 43.008 314.04 41.888C314.888 40.752 316.104 40.184 317.688 40.184C318.52 40.184 319.248 40.4 319.872 40.832C320.496 41.248 320.92 41.816 321.144 42.536H321.264V35.24H324.336V53H321.264V50.912ZM318.672 50.744C319.408 50.744 320.024 50.568 320.52 50.216C321.016 49.864 321.264 49.36 321.264 48.704V44.72C321.264 44.112 321.016 43.624 320.52 43.256C320.024 42.888 319.408 42.704 318.672 42.704C317.872 42.704 317.224 42.976 316.728 43.52C316.248 44.048 316.008 44.76 316.008 45.656V47.816C316.008 48.712 316.248 49.424 316.728 49.952C317.224 50.48 317.872 50.744 318.672 50.744ZM332.943 53.288C332.015 53.288 331.183 53.136 330.447 52.832C329.727 52.512 329.111 52.072 328.599 51.512C328.103 50.936 327.719 50.248 327.447 49.448C327.175 48.632 327.039 47.72 327.039 46.712C327.039 45.72 327.167 44.824 327.423 44.024C327.695 43.224 328.079 42.544 328.575 41.984C329.071 41.408 329.679 40.968 330.399 40.664C331.119 40.344 331.935 40.184 332.847 40.184C333.823 40.184 334.671 40.352 335.391 40.688C336.111 41.024 336.703 41.48 337.167 42.056C337.631 42.632 337.975 43.304 338.199 44.072C338.439 44.824 338.559 45.632 338.559 46.496V47.504H330.231V47.816C330.231 48.728 330.487 49.464 330.999 50.024C331.511 50.568 332.271 50.84 333.279 50.84C334.047 50.84 334.671 50.68 335.151 50.36C335.647 50.04 336.087 49.632 336.471 49.136L338.127 50.984C337.615 51.704 336.911 52.272 336.015 52.688C335.135 53.088 334.111 53.288 332.943 53.288ZM332.895 42.488C332.079 42.488 331.431 42.76 330.951 43.304C330.471 43.848 330.231 44.552 330.231 45.416V45.608H335.367V45.392C335.367 44.528 335.151 43.832 334.719 43.304C334.303 42.76 333.695 42.488 332.895 42.488ZM341.261 53V40.472H344.333V42.56H344.453C344.709 41.888 345.109 41.328 345.653 40.88C346.213 40.416 346.981 40.184 347.957 40.184C349.253 40.184 350.245 40.608 350.933 41.456C351.621 42.304 351.965 43.512 351.965 45.08V53H348.893V45.392C348.893 44.496 348.733 43.824 348.413 43.376C348.093 42.928 347.565 42.704 346.829 42.704C346.509 42.704 346.197 42.752 345.893 42.848C345.605 42.928 345.341 43.056 345.101 43.232C344.877 43.392 344.693 43.6 344.549 43.856C344.405 44.096 344.333 44.384 344.333 44.72V53H341.261ZM359.283 53C358.227 53 357.419 52.728 356.859 52.184C356.315 51.624 356.043 50.832 356.043 49.808V42.92H354.195V40.472H355.155C355.619 40.472 355.931 40.368 356.091 40.16C356.267 39.936 356.355 39.608 356.355 39.176V37.04H359.115V40.472H361.683V42.92H359.115V50.552H361.491V53H359.283ZM156.465 76.92H149.481V84H146.313V67.248H149.481V74.112H156.465V67.248H159.633V84H156.465V76.92ZM168.435 84.288C167.507 84.288 166.675 84.136 165.939 83.832C165.219 83.512 164.603 83.072 164.091 82.512C163.595 81.936 163.211 81.248 162.939 80.448C162.667 79.632 162.531 78.72 162.531 77.712C162.531 76.72 162.659 75.824 162.915 75.024C163.187 74.224 163.571 73.544 164.067 72.984C164.563 72.408 165.171 71.968 165.891 71.664C166.611 71.344 167.427 71.184 168.339 71.184C169.315 71.184 170.163 71.352 170.883 71.688C171.603 72.024 172.195 72.48 172.659 73.056C173.123 73.632 173.467 74.304 173.691 75.072C173.931 75.824 174.051 76.632 174.051 77.496V78.504H165.723V78.816C165.723 79.728 165.979 80.464 166.491 81.024C167.003 81.568 167.763 81.84 168.771 81.84C169.539 81.84 170.163 81.68 170.643 81.36C171.139 81.04 171.579 80.632 171.963 80.136L173.619 81.984C173.107 82.704 172.403 83.272 171.507 83.688C170.627 84.088 169.603 84.288 168.435 84.288ZM168.387 73.488C167.571 73.488 166.923 73.76 166.443 74.304C165.963 74.848 165.723 75.552 165.723 76.416V76.608H170.859V76.392C170.859 75.528 170.643 74.832 170.211 74.304C169.795 73.76 169.187 73.488 168.387 73.488ZM179.826 84C178.77 84 177.994 83.736 177.498 83.208C177.002 82.68 176.754 81.936 176.754 80.976V66.24H179.826V81.552H181.482V84H179.826ZM183.808 71.472H186.88V73.536H186.976C187.2 72.816 187.624 72.248 188.248 71.832C188.872 71.4 189.6 71.184 190.432 71.184C192.032 71.184 193.248 71.752 194.08 72.888C194.928 74.008 195.352 75.616 195.352 77.712C195.352 79.824 194.928 81.448 194.08 82.584C193.248 83.72 192.032 84.288 190.432 84.288C189.6 84.288 188.872 84.072 188.248 83.64C187.64 83.208 187.216 82.632 186.976 81.912H186.88V88.8H183.808V71.472ZM189.448 81.744C190.248 81.744 190.896 81.48 191.392 80.952C191.888 80.424 192.136 79.712 192.136 78.816V76.656C192.136 75.76 191.888 75.048 191.392 74.52C190.896 73.976 190.248 73.704 189.448 73.704C188.712 73.704 188.096 73.888 187.6 74.256C187.12 74.624 186.88 75.112 186.88 75.72V79.704C186.88 80.36 187.12 80.864 187.6 81.216C188.096 81.568 188.712 81.744 189.448 81.744ZM204.063 84V67.248H214.839V70.056H207.231V74.112H213.855V76.92H207.231V84H204.063ZM221.964 84.288C221.068 84.288 220.26 84.136 219.54 83.832C218.836 83.528 218.228 83.088 217.716 82.512C217.22 81.936 216.836 81.248 216.564 80.448C216.292 79.632 216.156 78.72 216.156 77.712C216.156 76.704 216.292 75.8 216.564 75C216.836 74.2 217.22 73.52 217.716 72.96C218.228 72.384 218.836 71.944 219.54 71.64C220.26 71.336 221.068 71.184 221.964 71.184C222.86 71.184 223.668 71.336 224.388 71.64C225.108 71.944 225.716 72.384 226.212 72.96C226.724 73.52 227.116 74.2 227.388 75C227.66 75.8 227.796 76.704 227.796 77.712C227.796 78.72 227.66 79.632 227.388 80.448C227.116 81.248 226.724 81.936 226.212 82.512C225.716 83.088 225.108 83.528 224.388 83.832C223.668 84.136 222.86 84.288 221.964 84.288ZM221.964 81.816C222.78 81.816 223.42 81.568 223.884 81.072C224.348 80.576 224.58 79.848 224.58 78.888V76.56C224.58 75.616 224.348 74.896 223.884 74.4C223.42 73.904 222.78 73.656 221.964 73.656C221.164 73.656 220.532 73.904 220.068 74.4C219.604 74.896 219.372 75.616 219.372 76.56V78.888C219.372 79.848 219.604 80.576 220.068 81.072C220.532 81.568 221.164 81.816 221.964 81.816ZM230.519 84V71.472H233.591V74.064H233.711C233.791 73.728 233.911 73.408 234.071 73.104C234.247 72.784 234.471 72.504 234.743 72.264C235.015 72.024 235.335 71.832 235.703 71.688C236.087 71.544 236.527 71.472 237.023 71.472H237.695V74.376H236.735C235.695 74.376 234.911 74.528 234.383 74.832C233.855 75.136 233.591 75.632 233.591 76.32V84H230.519ZM247.429 81.912H247.309C247.197 82.232 247.045 82.536 246.853 82.824C246.677 83.096 246.445 83.344 246.157 83.568C245.885 83.792 245.549 83.968 245.149 84.096C244.765 84.224 244.317 84.288 243.805 84.288C242.509 84.288 241.517 83.864 240.829 83.016C240.141 82.168 239.797 80.96 239.797 79.392V71.472H242.869V79.08C242.869 79.944 243.037 80.608 243.373 81.072C243.709 81.52 244.245 81.744 244.981 81.744C245.285 81.744 245.581 81.704 245.869 81.624C246.173 81.544 246.437 81.424 246.661 81.264C246.885 81.088 247.069 80.88 247.213 80.64C247.357 80.384 247.429 80.088 247.429 79.752V71.472H250.501V84H247.429V81.912ZM254.05 84V71.472H257.122V73.56H257.242C257.482 72.904 257.866 72.344 258.394 71.88C258.922 71.416 259.658 71.184 260.602 71.184C261.466 71.184 262.21 71.392 262.834 71.808C263.458 72.224 263.922 72.856 264.226 73.704H264.274C264.498 73 264.938 72.408 265.594 71.928C266.266 71.432 267.106 71.184 268.114 71.184C269.346 71.184 270.29 71.608 270.946 72.456C271.618 73.304 271.954 74.512 271.954 76.08V84H268.882V76.392C268.882 74.6 268.21 73.704 266.866 73.704C266.562 73.704 266.266 73.752 265.978 73.848C265.706 73.928 265.458 74.056 265.234 74.232C265.026 74.392 264.858 74.6 264.73 74.856C264.602 75.096 264.538 75.384 264.538 75.72V84H261.466V76.392C261.466 74.6 260.794 73.704 259.45 73.704C259.162 73.704 258.874 73.752 258.586 73.848C258.314 73.928 258.066 74.056 257.842 74.232C257.634 74.392 257.458 74.6 257.314 74.856C257.186 75.096 257.122 75.384 257.122 75.72V84H254.05Z" fill="black"/>
</svg>
