<svg width="436" height="121" viewBox="0 0 436 121" fill="none" xmlns="http://www.w3.org/2000/svg">
<rect width="436" height="121" rx="30" fill="#F4F3F3"/>
<ellipse cx="77.2891" cy="60.1755" rx="39.72" ry="40.1755" fill="#CC2131"/>
<path d="M60.2303 60.7484C60.2303 59.5986 60.5674 58.4747 61.1989 57.5187C61.8304 56.5627 62.728 55.8176 63.7782 55.3777C64.8284 54.9377 65.984 54.8225 67.0988 55.0469C68.2137 55.2712 69.2378 55.8248 70.0416 56.6378C70.8453 57.4508 71.3927 58.4866 71.6145 59.6143C71.8362 60.7419 71.7224 61.9108 71.2874 62.973C70.8524 64.0352 70.1158 64.9431 69.1706 65.5819C68.2255 66.2206 67.1143 66.5616 65.9776 66.5616C64.4542 66.5586 62.9941 65.9452 61.9169 64.8556C60.8397 63.7661 60.2333 62.2892 60.2303 60.7484ZM73.5658 74.532C73.0976 72.6532 71.9656 71.0127 70.3834 69.9201C68.8013 68.8276 66.8785 68.3586 64.978 68.6017C63.0775 68.8448 61.3306 69.7831 60.0672 71.2396C58.8037 72.6961 58.1111 74.57 58.12 76.5076V78.7784C58.12 79.0795 58.2382 79.3683 58.4487 79.5813C58.6592 79.7942 58.9448 79.9138 59.2425 79.9138H72.7127C73.0104 79.9138 73.296 79.7942 73.5065 79.5813C73.717 79.3683 73.8353 79.0795 73.8353 78.7784V77.7339L81.4235 68.5599H78.5049L73.5658 74.532ZM100.776 67.4245C100.776 67.7256 100.657 68.0144 100.447 68.2273C100.236 68.4403 99.9509 68.5599 99.6532 68.5599H81.4235L89.2811 59.068C89.4337 58.8357 89.4965 58.5548 89.4574 58.2787C89.4183 58.0026 89.2802 57.7508 89.0693 57.5711C88.8584 57.3915 88.5895 57.2966 88.3139 57.3047C88.0383 57.3127 87.7752 57.4231 87.5749 57.6147L78.5049 68.5599H72.3086C71.7583 68.1068 71.1641 67.7112 70.535 67.3791C71.9337 66.3981 72.9859 64.9908 73.5381 63.3624C74.0904 61.734 74.1138 59.9697 73.605 58.3269C73.0962 56.6841 72.0818 55.2487 70.7097 54.2301C69.3376 53.2114 67.6796 52.6629 65.9776 52.6644C64.8118 52.6612 63.6605 52.9251 62.61 53.4364V43.5812H61.4875C61.1898 43.5812 60.9043 43.4616 60.6938 43.2487C60.4833 43.0357 60.365 42.7469 60.365 42.4458C60.365 42.1447 60.4833 41.8559 60.6938 41.643C60.9043 41.43 61.1898 41.3104 61.4875 41.3104H99.6532C99.9509 41.3104 100.236 41.43 100.447 41.643C100.657 41.8559 100.776 42.1447 100.776 42.4458C100.776 42.7469 100.657 43.0357 100.447 43.2487C100.236 43.4616 99.9509 43.5812 99.6532 43.5812H98.5307V66.2891H99.6532C99.9509 66.2891 100.236 66.4087 100.447 66.6216C100.657 66.8346 100.776 67.1234 100.776 67.4245ZM91.7956 53.7998C91.7956 53.4986 91.6773 53.2098 91.4668 52.9969C91.2563 52.784 90.9708 52.6644 90.6731 52.6644H72.7127C72.415 52.6644 72.1295 52.784 71.919 52.9969C71.7085 53.2098 71.5902 53.4986 71.5902 53.7998C71.5902 54.1009 71.7085 54.3897 71.919 54.6026C72.1295 54.8155 72.415 54.9352 72.7127 54.9352H90.6731C90.9708 54.9352 91.2563 54.8155 91.4668 54.6026C91.6773 54.3897 91.7956 54.1009 91.7956 53.7998ZM91.7956 49.2582C91.7956 48.9571 91.6773 48.6683 91.4668 48.4553C91.2563 48.2424 90.9708 48.1228 90.6731 48.1228H77.2028C76.9051 48.1228 76.6196 48.2424 76.4091 48.4553C76.1986 48.6683 76.0803 48.9571 76.0803 49.2582C76.0803 49.5593 76.1986 49.8481 76.4091 50.061C76.6196 50.274 76.9051 50.3936 77.2028 50.3936H90.6731C90.9708 50.3936 91.2563 50.274 91.4668 50.061C91.6773 49.8481 91.7956 49.5593 91.7956 49.2582Z" fill="white"/>
<path d="M154.313 53.732V70H150.617V53.732H145.073V50.456H159.857V53.732H154.313ZM166.735 70.336C165.652 70.336 164.682 70.1587 163.823 69.804C162.983 69.4307 162.264 68.9173 161.667 68.264C161.088 67.592 160.64 66.7893 160.323 65.856C160.006 64.904 159.847 63.84 159.847 62.664C159.847 61.5067 159.996 60.4613 160.295 59.528C160.612 58.5947 161.06 57.8013 161.639 57.148C162.218 56.476 162.927 55.9627 163.767 55.608C164.607 55.2347 165.559 55.048 166.623 55.048C167.762 55.048 168.751 55.244 169.591 55.636C170.431 56.028 171.122 56.56 171.663 57.232C172.204 57.904 172.606 58.688 172.867 59.584C173.147 60.4613 173.287 61.404 173.287 62.412V63.588H163.571V63.952C163.571 65.016 163.87 65.8747 164.467 66.528C165.064 67.1627 165.951 67.48 167.127 67.48C168.023 67.48 168.751 67.2933 169.311 66.92C169.89 66.5467 170.403 66.0707 170.851 65.492L172.783 67.648C172.186 68.488 171.364 69.1507 170.319 69.636C169.292 70.1027 168.098 70.336 166.735 70.336ZM166.679 57.736C165.727 57.736 164.971 58.0533 164.411 58.688C163.851 59.3227 163.571 60.144 163.571 61.152V61.376H169.563V61.124C169.563 60.116 169.311 59.304 168.807 58.688C168.322 58.0533 167.612 57.736 166.679 57.736ZM187.192 70C186.408 70 185.783 69.776 185.316 69.328C184.868 68.8613 184.588 68.2453 184.476 67.48H184.308C184.065 68.432 183.571 69.1507 182.824 69.636C182.077 70.1027 181.153 70.336 180.052 70.336C178.559 70.336 177.411 69.944 176.608 69.16C175.805 68.376 175.404 67.3307 175.404 66.024C175.404 64.512 175.945 63.392 177.028 62.664C178.111 61.9173 179.651 61.544 181.648 61.544H184.14V60.48C184.14 59.6587 183.925 59.024 183.496 58.576C183.067 58.128 182.376 57.904 181.424 57.904C180.584 57.904 179.903 58.0907 179.38 58.464C178.876 58.8187 178.447 59.248 178.092 59.752L175.964 57.848C176.505 57.008 177.224 56.336 178.12 55.832C179.016 55.3093 180.201 55.048 181.676 55.048C183.655 55.048 185.157 55.496 186.184 56.392C187.211 57.288 187.724 58.576 187.724 60.256V67.144H189.18V70H187.192ZM181.256 67.732C182.059 67.732 182.74 67.5547 183.3 67.2C183.86 66.8453 184.14 66.3227 184.14 65.632V63.7H181.844C179.977 63.7 179.044 64.2973 179.044 65.492V65.968C179.044 66.5653 179.231 67.0133 179.604 67.312C179.996 67.592 180.547 67.732 181.256 67.732ZM197.849 70.336C196.766 70.336 195.805 70.1587 194.965 69.804C194.125 69.4493 193.415 68.936 192.837 68.264C192.277 67.592 191.847 66.7893 191.549 65.856C191.25 64.904 191.101 63.84 191.101 62.664C191.101 61.488 191.25 60.4333 191.549 59.5C191.847 58.5667 192.277 57.7733 192.837 57.12C193.415 56.448 194.125 55.9347 194.965 55.58C195.805 55.2253 196.766 55.048 197.849 55.048C199.323 55.048 200.537 55.3747 201.489 56.028C202.459 56.6813 203.159 57.5867 203.589 58.744L200.649 60.06C200.481 59.444 200.163 58.94 199.697 58.548C199.249 58.1373 198.633 57.932 197.849 57.932C196.841 57.932 196.085 58.2493 195.581 58.884C195.095 59.5187 194.853 60.3493 194.853 61.376V64.036C194.853 65.0627 195.095 65.8933 195.581 66.528C196.085 67.144 196.841 67.452 197.849 67.452C198.707 67.452 199.37 67.2373 199.837 66.808C200.303 66.36 200.667 65.8093 200.929 65.156L203.673 66.472C203.187 67.76 202.45 68.7307 201.461 69.384C200.471 70.0187 199.267 70.336 197.849 70.336ZM206.436 49.28H210.02V57.82H210.16C210.459 57.036 210.926 56.3827 211.56 55.86C212.214 55.3187 213.11 55.048 214.248 55.048C215.76 55.048 216.918 55.5427 217.72 56.532C218.523 57.5213 218.924 58.9307 218.924 60.76V70H215.34V61.124C215.34 60.0787 215.154 59.2947 214.78 58.772C214.407 58.2493 213.791 57.988 212.932 57.988C212.559 57.988 212.195 58.044 211.84 58.156C211.504 58.2493 211.196 58.3987 210.916 58.604C210.655 58.7907 210.44 59.0333 210.272 59.332C210.104 59.612 210.02 59.948 210.02 60.34V70H206.436V49.28ZM224.689 53.256C223.943 53.256 223.401 53.088 223.065 52.752C222.748 52.416 222.589 51.9867 222.589 51.464V50.904C222.589 50.3813 222.748 49.952 223.065 49.616C223.401 49.28 223.943 49.112 224.689 49.112C225.417 49.112 225.949 49.28 226.285 49.616C226.621 49.952 226.789 50.3813 226.789 50.904V51.464C226.789 51.9867 226.621 52.416 226.285 52.752C225.949 53.088 225.417 53.256 224.689 53.256ZM222.897 55.384H226.481V70H222.897V55.384ZM230.635 70V55.384H234.219V57.82H234.359C234.658 57.036 235.125 56.3827 235.759 55.86C236.413 55.3187 237.309 55.048 238.447 55.048C239.959 55.048 241.117 55.5427 241.919 56.532C242.722 57.5213 243.123 58.9307 243.123 60.76V70H239.539V61.124C239.539 60.0787 239.353 59.2947 238.979 58.772C238.606 58.2493 237.99 57.988 237.131 57.988C236.758 57.988 236.394 58.044 236.039 58.156C235.703 58.2493 235.395 58.3987 235.115 58.604C234.854 58.7907 234.639 59.0333 234.471 59.332C234.303 59.612 234.219 59.948 234.219 60.34V70H230.635ZM260.284 71.232C260.284 71.9973 260.144 72.6693 259.864 73.248C259.603 73.8453 259.164 74.34 258.548 74.732C257.932 75.124 257.139 75.4227 256.168 75.628C255.198 75.8333 254.012 75.936 252.612 75.936C251.38 75.936 250.335 75.852 249.476 75.684C248.618 75.5347 247.908 75.3107 247.348 75.012C246.807 74.732 246.415 74.3773 246.172 73.948C245.93 73.5187 245.808 73.0333 245.808 72.492C245.808 71.6707 246.032 71.0267 246.48 70.56C246.947 70.112 247.591 69.8227 248.412 69.692V69.384C247.815 69.2347 247.348 68.9453 247.012 68.516C246.695 68.068 246.536 67.5453 246.536 66.948C246.536 66.5747 246.611 66.248 246.76 65.968C246.91 65.6693 247.106 65.4173 247.348 65.212C247.61 65.0067 247.899 64.8387 248.216 64.708C248.534 64.5587 248.87 64.4467 249.224 64.372V64.26C248.328 63.8493 247.656 63.28 247.208 62.552C246.779 61.824 246.564 60.9747 246.564 60.004C246.564 58.5107 247.078 57.316 248.104 56.42C249.131 55.5053 250.634 55.048 252.612 55.048C253.06 55.048 253.499 55.076 253.928 55.132C254.376 55.188 254.787 55.2813 255.16 55.412V54.936C255.16 53.5173 255.851 52.808 257.232 52.808H259.5V55.552H256.392V55.944C257.158 56.3733 257.727 56.9333 258.1 57.624C258.474 58.3147 258.66 59.108 258.66 60.004C258.66 61.4787 258.147 62.664 257.12 63.56C256.112 64.456 254.61 64.904 252.612 64.904C251.754 64.904 251.007 64.82 250.372 64.652C250.092 64.7827 249.85 64.96 249.644 65.184C249.439 65.3893 249.336 65.6507 249.336 65.968C249.336 66.696 249.971 67.06 251.24 67.06H255.16C256.952 67.06 258.25 67.4333 259.052 68.18C259.874 68.908 260.284 69.9253 260.284 71.232ZM256.924 71.652C256.924 71.1853 256.738 70.8213 256.364 70.56C255.991 70.2987 255.347 70.168 254.432 70.168H249.448C248.944 70.5413 248.692 71.0453 248.692 71.68C248.692 72.24 248.926 72.6787 249.392 72.996C249.859 73.3133 250.652 73.472 251.772 73.472H253.564C254.74 73.472 255.59 73.3227 256.112 73.024C256.654 72.7253 256.924 72.268 256.924 71.652ZM252.612 62.468C254.367 62.468 255.244 61.7213 255.244 60.228V59.752C255.244 58.2587 254.367 57.512 252.612 57.512C250.858 57.512 249.98 58.2587 249.98 59.752V60.228C249.98 61.7213 250.858 62.468 252.612 62.468ZM276.867 53.732V70H273.171V53.732H267.627V50.456H282.411V53.732H276.867ZM289.29 70.336C288.207 70.336 287.236 70.1587 286.378 69.804C285.538 69.4307 284.819 68.9173 284.222 68.264C283.643 67.592 283.195 66.7893 282.878 65.856C282.56 64.904 282.402 63.84 282.402 62.664C282.402 61.5067 282.551 60.4613 282.85 59.528C283.167 58.5947 283.615 57.8013 284.194 57.148C284.772 56.476 285.482 55.9627 286.322 55.608C287.162 55.2347 288.114 55.048 289.178 55.048C290.316 55.048 291.306 55.244 292.146 55.636C292.986 56.028 293.676 56.56 294.218 57.232C294.759 57.904 295.16 58.688 295.422 59.584C295.702 60.4613 295.842 61.404 295.842 62.412V63.588H286.126V63.952C286.126 65.016 286.424 65.8747 287.022 66.528C287.619 67.1627 288.506 67.48 289.682 67.48C290.578 67.48 291.306 67.2933 291.866 66.92C292.444 66.5467 292.958 66.0707 293.406 65.492L295.338 67.648C294.74 68.488 293.919 69.1507 292.874 69.636C291.847 70.1027 290.652 70.336 289.29 70.336ZM289.234 57.736C288.282 57.736 287.526 58.0533 286.966 58.688C286.406 59.3227 286.126 60.144 286.126 61.152V61.376H292.118V61.124C292.118 60.116 291.866 59.304 291.362 58.688C290.876 58.0533 290.167 57.736 289.234 57.736ZM309.747 70C308.963 70 308.338 69.776 307.871 69.328C307.423 68.8613 307.143 68.2453 307.031 67.48H306.863C306.62 68.432 306.126 69.1507 305.379 69.636C304.632 70.1027 303.708 70.336 302.607 70.336C301.114 70.336 299.966 69.944 299.163 69.16C298.36 68.376 297.959 67.3307 297.959 66.024C297.959 64.512 298.5 63.392 299.583 62.664C300.666 61.9173 302.206 61.544 304.203 61.544H306.695V60.48C306.695 59.6587 306.48 59.024 306.051 58.576C305.622 58.128 304.931 57.904 303.979 57.904C303.139 57.904 302.458 58.0907 301.935 58.464C301.431 58.8187 301.002 59.248 300.647 59.752L298.519 57.848C299.06 57.008 299.779 56.336 300.675 55.832C301.571 55.3093 302.756 55.048 304.231 55.048C306.21 55.048 307.712 55.496 308.739 56.392C309.766 57.288 310.279 58.576 310.279 60.256V67.144H311.735V70H309.747ZM303.811 67.732C304.614 67.732 305.295 67.5547 305.855 67.2C306.415 66.8453 306.695 66.3227 306.695 65.632V63.7H304.399C302.532 63.7 301.599 64.2973 301.599 65.492V65.968C301.599 66.5653 301.786 67.0133 302.159 67.312C302.551 67.592 303.102 67.732 303.811 67.732ZM314.635 70V55.384H318.219V57.82H318.359C318.639 57.0547 319.087 56.4013 319.703 55.86C320.319 55.3187 321.178 55.048 322.279 55.048C323.287 55.048 324.155 55.2907 324.883 55.776C325.611 56.2613 326.153 56.9987 326.507 57.988H326.563C326.825 57.1667 327.338 56.476 328.103 55.916C328.887 55.3373 329.867 55.048 331.043 55.048C332.481 55.048 333.582 55.5427 334.347 56.532C335.131 57.5213 335.523 58.9307 335.523 60.76V70H331.939V61.124C331.939 59.0333 331.155 57.988 329.587 57.988C329.233 57.988 328.887 58.044 328.551 58.156C328.234 58.2493 327.945 58.3987 327.683 58.604C327.441 58.7907 327.245 59.0333 327.095 59.332C326.946 59.612 326.871 59.948 326.871 60.34V70H323.287V61.124C323.287 59.0333 322.503 57.988 320.935 57.988C320.599 57.988 320.263 58.044 319.927 58.156C319.61 58.2493 319.321 58.3987 319.059 58.604C318.817 58.7907 318.611 59.0333 318.443 59.332C318.294 59.612 318.219 59.948 318.219 60.34V70H314.635Z" fill="black"/>
</svg>
